<svg width="900" height="900" viewBox="0 0 900 900" fill="none" xmlns="http://www.w3.org/2000/svg">
<g opacity="0.51">
<path d="M518.583 564.167C516.667 560.5 521.083 556.583 525.167 555.833C529.25 555.083 533.833 555.667 537 553.083C541.333 549.667 541.083 542.25 545.833 539.5C549.667 537.333 554.75 539.417 558.75 537.667C563.75 535.5 565.167 528.5 570.167 526.167C574.083 524.25 579.25 526.417 581.25 530.25C583.25 534.083 582.333 539.083 579.583 542.5C577.417 545.083 574.167 547 572.833 550.083C570.75 555 574.083 560.917 572.083 565.917C568.5 575.083 551.5 572.333 548.5 581.75C547.833 583.833 548.083 586.083 547.917 588.333C547.417 594.833 542.833 600.5 537.167 603.75C531.5 607 524.833 608.083 518.333 608.583C515.667 608.75 512.833 608.833 510.5 607.583C508.25 606.417 506.75 604.333 505.5 602.083C497.667 588 494.417 569.5 518.583 564.167Z" fill="#EAEAEA"/>
</g>
<g opacity="0.51">
<path d="M391.667 551.417C394.333 547.083 389.333 541.917 384.417 540.667C379.5 539.417 373.917 539.667 370.167 536.25C365.25 531.667 366.167 522.583 360.583 518.833C356.083 515.833 349.75 517.917 344.917 515.417C338.917 512.333 337.917 503.583 332.083 500.25C327.417 497.583 320.917 499.667 318.083 504.25C315.25 508.833 315.917 515 319 519.417C321.417 522.833 325.167 525.417 326.583 529.333C328.75 535.5 324.083 542.5 326 548.75C329.583 560.333 350.667 558.5 353.333 570.333C353.917 573 353.417 575.667 353.417 578.417C353.417 586.417 358.5 593.833 365.167 598.333C371.833 602.833 379.833 604.833 387.75 606C391 606.5 394.417 606.833 397.417 605.5C400.25 604.333 402.333 601.833 404.083 599.25C415 582.5 420.667 560.167 391.667 551.417Z" fill="#EAEAEA"/>
</g>
<path d="M566 351.083L560.167 353.083L557.667 345.833C553 332.417 538.25 325.25 524.833 329.917C511.417 334.583 504.25 349.333 508.917 362.75L511.417 370L505.583 372C501 373.583 498.583 378.583 500.167 383.167L516.583 430.583C518.167 435.167 523.25 437.667 527.75 436.083L588.083 415.167C592.667 413.583 595.167 408.5 593.583 403.917L577.167 356.5C575.667 351.917 570.667 349.417 566 351.083ZM520 358.833C517.417 351.5 521.333 343.417 528.667 340.833C536 338.25 544.083 342.167 546.667 349.583L549.167 356.833L522.5 366.083L520 358.833ZM555 402.083L559.167 414.167C559.333 414.667 559 415.167 558.5 415.417L552.667 417.417C552.25 417.583 551.667 417.333 551.5 416.833L547.333 404.75C542.833 404.583 538.667 401.75 537.083 397.167C535.083 391.333 538.167 384.917 544 382.833C549.833 380.833 556.25 383.917 558.333 389.75C559.917 394.333 558.417 399.167 555 402.083Z" fill="#EAEAEA"/>
<path d="M503.417 585.833C509.333 583.333 514.583 578.583 519 574.083C530.833 561.833 538.167 545.917 542.083 529.417C545.583 514.5 546.333 499.167 545.667 483.917C545.583 482.667 543.583 482.583 543.667 483.917C545.333 518.167 538.5 560.083 507.917 580.917C506.167 582.083 504.417 583.25 502.5 584.083C501.25 584.583 502.25 586.333 503.417 585.833Z" fill="#EAEAEA"/>
<path d="M542.333 523.667C542.333 523.667 544.25 512.583 558.917 510.833C559 510.833 553.583 523.917 542.333 523.667Z" fill="#EAEAEA"/>
<path d="M537.583 540C537.583 540 542.083 529.667 556.75 531.417C556.667 531.417 548.417 542.917 537.583 540Z" fill="#EAEAEA"/>
<path d="M531.333 554.5C531.333 554.5 538 545.417 551.917 550.417C551.917 550.417 541.25 559.75 531.333 554.5Z" fill="#EAEAEA"/>
<path d="M544.583 506.417C544.583 506.417 546.5 495.5 560.917 493.833C560.917 493.833 555.667 506.75 544.583 506.417Z" fill="#EAEAEA"/>
<path d="M544.833 487.5C544.833 487.5 536.583 480.083 542.833 466.917C542.833 467 550.917 478.25 544.833 487.5Z" fill="#EAEAEA"/>
<path d="M544.833 498.75C544.833 498.75 533.917 496.75 532.333 482.333C532.417 482.25 545.25 487.667 544.833 498.75Z" fill="#EAEAEA"/>
<path d="M543.75 515.333C543.75 515.333 532.833 513.333 531.25 498.917C531.333 498.917 544.167 504.25 543.75 515.333Z" fill="#EAEAEA"/>
<path d="M540.917 530.917C540.917 530.917 530.167 528.167 529.667 513.667C529.667 513.583 542.083 519.833 540.917 530.917Z" fill="#EAEAEA"/>
<path d="M536 546.417C536 546.417 525.25 543.667 524.75 529.167C524.75 529.167 537.167 535.417 536 546.417Z" fill="#EAEAEA"/>
<path d="M391.916 581.667C386 579.167 380.75 574.417 376.333 569.917C364.5 557.667 357.166 541.75 353.25 525.25C349.75 510.333 349 495 349.666 479.75C349.75 478.5 351.75 478.417 351.666 479.75C350 514 356.833 555.917 387.416 576.75C389.166 577.917 390.916 579.083 392.833 579.917C394.083 580.417 393.083 582.167 391.916 581.667Z" fill="#EAEAEA"/>
<path d="M353 519.5C353 519.5 351.083 508.417 336.416 506.667C336.333 506.667 341.75 519.75 353 519.5Z" fill="#EAEAEA"/>
<path d="M357.833 535.833C357.833 535.833 353.333 525.5 338.667 527.25C338.667 527.25 346.917 538.75 357.833 535.833Z" fill="#EAEAEA"/>
<path d="M364.083 550.333C364.083 550.333 357.416 541.25 343.5 546.25C343.416 546.25 354.083 555.583 364.083 550.333Z" fill="#EAEAEA"/>
<path d="M350.75 502.25C350.75 502.25 348.833 491.333 334.417 489.667C334.417 489.667 339.667 502.583 350.75 502.25Z" fill="#EAEAEA"/>
<path d="M350.583 483.333C350.583 483.333 358.833 475.917 352.583 462.75C352.583 462.833 344.416 474.083 350.583 483.333Z" fill="#EAEAEA"/>
<path d="M350.5 494.583C350.5 494.583 361.417 492.583 363 478.167C363 478.083 350.083 483.5 350.5 494.583Z" fill="#EAEAEA"/>
<path d="M351.583 511.167C351.583 511.167 362.5 509.167 364.083 494.75C364.083 494.75 351.167 500.083 351.583 511.167Z" fill="#EAEAEA"/>
<path d="M354.416 526.75C354.416 526.75 365.166 524 365.666 509.5C365.666 509.417 353.25 515.667 354.416 526.75Z" fill="#EAEAEA"/>
<path d="M359.333 542.25C359.333 542.25 370.083 539.5 370.583 525C370.583 525 358.167 531.25 359.333 542.25Z" fill="#EAEAEA"/>
<g opacity="0.07">
<path d="M570.073 447.155C575.573 457.238 583.657 466.738 584.323 478.072C585.407 496.322 567.657 509.988 560.407 526.905C551.49 547.655 558.99 572.072 551.073 593.155C545.323 608.405 531.323 620.655 514.823 624.655C502.49 627.655 489.49 626.322 476.74 626.405C440.573 626.738 404.49 639.238 368.74 633.572C351.073 630.738 334.407 623.572 316.74 621.322C295.49 618.572 270.74 621.905 255.573 607.488C234.323 587.322 250.073 550.238 234.157 526.072C228.99 518.238 220.74 512.155 217.99 503.405C214.74 493.072 219.99 482.155 226.49 473.322C232.99 464.572 241.073 456.488 244.573 446.238C247.74 436.988 245.823 426.905 241.907 417.905C235.907 404.072 252.657 372.405 285.99 374.822C301.24 375.905 308.157 358.238 324.907 353.322C344.073 347.738 368.157 352.238 382.24 356.905C396.573 361.655 414.323 364.155 422.573 351.988C434.157 334.738 468.823 332.072 484.407 360.072C490.073 370.238 495.157 378.238 507.24 377.405C572.74 373.155 561.823 432.238 570.073 447.155ZM391.49 352.738C391.49 355.072 391.49 359.072 401.823 358.405C404.99 358.238 407.573 356.488 407.573 354.155C407.573 351.822 404.99 349.905 401.823 349.905C398.657 349.988 391.49 348.988 391.49 352.738ZM289.74 364.155C289.407 364.322 289.24 364.655 289.073 364.988C288.407 365.988 287.24 366.655 286.073 367.155C285.407 367.405 284.657 367.655 284.157 368.155C283.323 368.988 283.407 370.488 284.323 371.155C285.073 371.738 286.073 371.822 287.073 371.738C290.657 371.572 294.157 370.238 296.99 368.072C300.573 365.155 291.74 363.072 289.74 364.155ZM279.907 369.488C278.657 368.655 277.157 369.155 275.907 369.738C275.657 369.905 275.407 370.072 275.323 370.322C275.157 370.905 275.907 371.322 276.49 371.488C277.407 371.738 278.407 372.072 279.323 371.738C280.24 371.488 281.157 370.322 279.907 369.488ZM234.24 444.238C233.323 441.488 231.24 440.155 227.99 441.738C226.073 442.655 224.74 444.405 223.573 446.155C221.74 448.988 220.157 452.155 220.573 455.405C220.823 457.822 222.24 460.072 224.24 461.488C225.073 462.072 226.073 462.488 227.073 462.488C228.24 462.488 229.24 461.822 230.157 461.155C232.24 459.572 233.823 457.405 235.407 455.405C236.24 454.322 237.073 453.155 237.24 451.905C237.657 448.988 235.073 446.738 234.24 444.238ZM569.24 528.405C568.407 528.738 567.573 529.155 567.157 529.905C566.823 530.488 566.657 531.155 566.657 531.822C566.49 533.238 566.407 534.572 566.407 535.988C566.407 537.488 566.573 539.155 567.74 540.238C569.323 541.655 571.823 541.155 573.823 540.572C574.99 540.238 576.24 539.905 576.99 538.988C577.573 538.322 577.74 537.488 577.907 536.655C578.407 533.905 579.907 529.738 578.24 528.238C576.407 526.738 572.157 527.238 569.24 528.405ZM453.49 635.405C453.073 635.822 452.657 636.238 452.407 636.738C451.74 638.155 452.407 639.988 453.907 640.572C454.657 640.905 455.49 640.905 456.323 640.822C463.24 640.738 470.657 640.488 476.157 636.488C476.823 635.988 477.49 635.322 477.407 634.572C477.24 633.572 476.073 633.155 475.073 632.988C468.157 631.738 458.99 630.238 453.49 635.405ZM322.657 624.738C316.657 623.905 307.157 622.822 307.157 627.655C307.157 629.488 315.657 631.238 316.99 631.572C321.323 632.655 325.407 634.155 329.573 635.738C337.407 638.655 343.74 634.738 337.49 630.322C332.407 626.738 327.49 625.405 322.657 624.738Z" fill="#2A94F4"/>
</g>
</svg>
