<svg width="1280" height="800" viewBox="0 0 1280 800" fill="none" xmlns="http://www.w3.org/2000/svg">
<g clip-path="url(#clip0_199_289)">
<rect width="1280" height="800" fill="white"/>
<path d="M1280 0H0V800H1280V0Z" fill="#D6FFDE"/>
<path d="M0 196.079L26.6667 194.486C53.3333 192.893 106.667 189.706 160 189.212C213.333 188.718 266.667 190.916 320 191.164C373.333 191.411 426.667 189.707 480 168.435C533.333 147.163 586.667 106.324 640 102.875C693.333 99.4259 746.667 133.367 800 122.964C853.333 112.562 906.667 57.8163 960 54.7111C1013.33 51.6067 1066.67 100.143 1120 112.233C1173.33 124.322 1226.67 99.9652 1253.33 87.7859L1280 75.6074V800H1253.33C1226.67 800 1173.33 800 1120 800C1066.67 800 1013.33 800 960 800C906.667 800 853.333 800 800 800C746.667 800 693.333 800 640 800C586.667 800 533.333 800 480 800C426.667 800 373.333 800 320 800C266.667 800 213.333 800 160 800C106.667 800 53.3333 800 26.6667 800H0V196.079Z" fill="#A1E8C6"/>
<path d="M0 213.409L26.6667 234.478C53.3333 255.546 106.667 297.683 160 305.281C213.333 312.879 266.667 285.937 320 272.453C373.333 258.967 426.667 258.939 480 278.486C533.333 298.033 586.667 337.154 640 358.165C693.333 379.176 746.667 382.077 800 358.153C853.333 334.228 906.667 283.479 960 262.568C1013.33 241.657 1066.67 250.584 1120 270.151C1173.33 289.719 1226.67 319.925 1253.33 335.029L1280 350.133V800H1253.33C1226.67 800 1173.33 800 1120 800C1066.67 800 1013.33 800 960 800C906.667 800 853.333 800 800 800C746.667 800 693.333 800 640 800C586.667 800 533.333 800 480 800C426.667 800 373.333 800 320 800C266.667 800 213.333 800 160 800C106.667 800 53.3333 800 26.6667 800H0V213.409Z" fill="#6BD1AE"/>
<path d="M0 587.725L26.6667 573.218C53.3333 558.71 106.667 529.696 160 500.174C213.333 470.652 266.667 440.624 320 424.091C373.333 407.559 426.667 404.523 480 422.821C533.333 441.121 586.667 480.754 640 493.213C693.333 505.67 746.667 490.952 800 475.654C853.333 460.356 906.667 444.479 960 440.141C1013.33 435.804 1066.67 443.007 1120 448.116C1173.33 453.224 1226.67 456.24 1253.33 457.747L1280 459.256V800H1253.33C1226.67 800 1173.33 800 1120 800C1066.67 800 1013.33 800 960 800C906.667 800 853.333 800 800 800C746.667 800 693.333 800 640 800C586.667 800 533.333 800 480 800C426.667 800 373.333 800 320 800C266.667 800 213.333 800 160 800C106.667 800 53.3333 800 26.6667 800H0V587.725Z" fill="#36BA96"/>
<path d="M0 756.29L26.6667 762.144C53.3333 767.999 106.667 779.709 160 786.733C213.333 793.756 266.667 796.094 320 782.569C373.333 769.044 426.667 739.656 480 716.275C533.333 692.893 586.667 675.519 640 660.353C693.333 645.189 746.667 632.235 800 651.374C853.333 670.513 906.667 721.747 960 751.204C1013.33 780.661 1066.67 788.341 1120 792.453C1173.33 796.565 1226.67 797.11 1253.33 797.382L1280 797.655V800H1253.33C1226.67 800 1173.33 800 1120 800C1066.67 800 1013.33 800 960 800C906.667 800 853.333 800 800 800C746.667 800 693.333 800 640 800C586.667 800 533.333 800 480 800C426.667 800 373.333 800 320 800C266.667 800 213.333 800 160 800C106.667 800 53.3333 800 26.6667 800H0V756.29Z" fill="#00A37E"/>
</g>
<defs>
<clipPath id="clip0_199_289">
<rect width="1280" height="800" fill="white"/>
</clipPath>
</defs>
</svg>
