<svg width="500" height="500" viewBox="0 0 500 500" fill="none" xmlns="http://www.w3.org/2000/svg">
<path d="M440.71 263.76C442.71 237.19 436.53 209.45 428.25 184.76C416 148 392.08 110.33 351.88 101.63C328.7 96.63 305.11 101.99 285.23 114.55C266.12 126.63 251.23 142.24 227.72 145.26C203.95 148.32 179.56 147.09 155.67 147.09C94.24 147.09 44.39 211.62 56.85 278.84C69.31 346.06 128.07 392.67 177.92 392.67C222.72 392.67 259.58 365.8 302.13 358.58C323.23 355 344.42 359.24 365.3 353.88C389.57 347.64 412.39 332.77 425.84 311.24C435 296.56 439.46 280.39 440.71 263.76Z" fill="#B0BEC5"/>
<path opacity="0.7" d="M440.71 263.76C442.71 237.19 436.53 209.45 428.25 184.76C416 148 392.08 110.33 351.88 101.63C328.7 96.63 305.11 101.99 285.23 114.55C266.12 126.63 251.23 142.24 227.72 145.26C203.95 148.32 179.56 147.09 155.67 147.09C94.24 147.09 44.39 211.62 56.85 278.84C69.31 346.06 128.07 392.67 177.92 392.67C222.72 392.67 259.58 365.8 302.13 358.58C323.23 355 344.42 359.24 365.3 353.88C389.57 347.64 412.39 332.77 425.84 311.24C435 296.56 439.46 280.39 440.71 263.76Z" fill="white"/>
<path d="M433.52 254.43C433.52 254.43 433.52 249.43 426.52 242.5C419.52 235.57 415.08 231.55 415.08 231.55C415.08 231.55 411.6 242.99 418.08 249.96C422.837 254.855 427.995 259.344 433.5 263.38L433.52 254.43Z" fill="#B0BEC5"/>
<path d="M423.42 285.49C423.42 285.49 423.42 280.49 416.42 273.56C409.42 266.63 405 262.61 405 262.61C405 262.61 401.51 274.05 408 281.02C412.757 285.915 417.915 290.404 423.42 294.44V285.49Z" fill="#B0BEC5"/>
<path d="M433.08 262.9C433.08 262.9 433.61 257.96 441.27 251.77C448.93 245.58 453.8 242.1 453.8 242.1C453.8 242.1 456.05 253.84 448.89 260.1C443.643 264.466 438.04 268.387 432.14 271.82L433.08 262.9Z" fill="#B0BEC5"/>
<path d="M420.88 299.58C420.88 299.58 421.88 294.72 430.19 289.37C438.5 284.02 443.66 281.07 443.66 281.07C443.66 281.07 444.66 292.99 436.89 298.44C431.213 302.232 425.228 305.544 419 308.34L420.88 299.58Z" fill="#B0BEC5"/>
<path d="M423.17 339.58C423.17 339.58 423.17 334.58 430.17 327.64C437.17 320.7 441.6 316.7 441.6 316.7C441.6 316.7 445.09 328.14 438.6 335.1C433.845 340 428.687 344.493 423.18 348.53L423.17 339.58Z" fill="#B0BEC5"/>
<path d="M423.06 349.34C423.06 349.34 423.76 344.42 417.86 336.54C411.96 328.66 408.09 324.08 408.09 324.08C408.09 324.08 403.02 334.91 408.43 342.72C412.44 348.243 416.906 353.421 421.78 358.2L423.06 349.34Z" fill="#B0BEC5"/>
<path d="M416.19 378.27C416.19 378.27 416.19 373.27 423.19 366.34C430.19 359.41 434.63 355.39 434.63 355.39C434.63 355.39 438.11 366.83 431.63 373.8C426.872 378.697 421.714 383.189 416.21 387.23L416.19 378.27Z" fill="#B0BEC5"/>
<path d="M420.84 404.5C420.84 404.5 419.58 399.69 424.55 391.19C429.52 382.69 432.85 377.71 432.85 377.71C432.85 377.71 439.11 387.89 434.62 396.27C431.261 402.211 427.411 407.861 423.11 413.16L420.84 404.5Z" fill="#B0BEC5"/>
<path d="M434.15 253.16C433.8 258.338 433.166 263.492 432.25 268.6C429.49 282.82 422.61 292 419.86 304.84C417.11 317.68 425.01 334.23 422.86 350.73C420.71 367.23 414.33 376.4 416.16 387.41C417.99 398.42 427.63 428.24 427.63 428.24" stroke="#263238" stroke-linecap="round" stroke-linejoin="round"/>
<path d="M433.02 266.21L440.52 260.45" stroke="#263238" stroke-linecap="round" stroke-linejoin="round"/>
<path d="M433.37 259.58L430.22 253.99" stroke="#263238" stroke-linecap="round" stroke-linejoin="round"/>
<path d="M420.28 304.25C420.28 304.25 426.56 299.54 433.02 294.83" stroke="#263238" stroke-linecap="round" stroke-linejoin="round"/>
<path d="M423.42 294.44C423.42 294.44 418.18 284.18 412.25 277.38" stroke="#263238" stroke-linecap="round" stroke-linejoin="round"/>
<path d="M423.42 346.66C427.002 340.039 431.53 333.976 436.86 328.66" stroke="#263238" stroke-linecap="round" stroke-linejoin="round"/>
<path d="M422.2 353.64C420.294 349.151 418.016 344.829 415.39 340.72C411.73 335.31 411.2 334.61 411.2 334.61" stroke="#263238" stroke-linecap="round" stroke-linejoin="round"/>
<path d="M416.19 387.41C417.784 383.469 419.676 379.654 421.85 376C424.025 372.604 426.476 369.393 429.18 366.4" stroke="#263238" stroke-linecap="round" stroke-linejoin="round"/>
<path d="M423.11 413.16C422.745 409.391 423.394 405.594 424.99 402.16C427.61 397.1 430.57 390.47 431.79 387.85" stroke="#263238" stroke-linecap="round" stroke-linejoin="round"/>
<path d="M376.7 320.88C376.7 320.88 376.16 317.76 379.77 312.63C383.38 307.5 385.77 304.53 385.77 304.53C385.77 304.53 389.19 311.33 385.89 316.39C383.439 319.979 380.693 323.358 377.68 326.49L376.7 320.88Z" fill="#B0BEC5"/>
<path d="M386.41 339.26C386.41 339.26 385.87 336.14 389.48 331.01C393.09 325.88 395.48 322.91 395.48 322.91C395.48 322.91 398.9 329.71 395.6 334.78C393.147 338.365 390.401 341.74 387.39 344.87L386.41 339.26Z" fill="#B0BEC5"/>
<path d="M377.89 326.14C377.89 326.14 377.03 323.14 371.55 320.05C366.07 316.96 362.65 315.34 362.65 315.34C362.65 315.34 362.51 322.95 367.65 326.09C371.413 328.256 375.35 330.106 379.42 331.62L377.89 326.14Z" fill="#B0BEC5"/>
<path d="M389.53 347.82C389.53 347.82 388.35 344.88 382.59 342.42C376.83 339.96 373.23 338.68 373.23 338.68C373.23 338.68 373.89 346.26 379.37 348.84C383.341 350.599 387.452 352.024 391.66 353.1L389.53 347.82Z" fill="#B0BEC5"/>
<path d="M392.43 373.15C392.43 373.15 391.9 370.03 386.77 366.42C381.64 362.81 378.41 360.8 378.41 360.8C378.41 360.8 377.47 368.35 382.28 372.01C385.794 374.569 389.517 376.827 393.41 378.76L392.43 373.15Z" fill="#B0BEC5"/>
<path d="M393.57 379.26C393.57 379.26 392.57 376.26 395.44 370.66C398.31 365.06 400.21 361.79 400.21 361.79C400.21 361.79 404.56 368.03 402.02 373.52C400.106 377.418 397.868 381.147 395.33 384.67L393.57 379.26Z" fill="#B0BEC5"/>
<path d="M402.31 404.41C402.31 404.41 402.67 401.27 407.58 397.41C412.49 393.55 415.58 391.32 415.58 391.32C415.58 391.32 416.95 398.81 412.36 402.74C408.998 405.491 405.412 407.956 401.64 410.11L402.31 404.41Z" fill="#B0BEC5"/>
<path d="M401 396.65C401 396.65 400.46 393.53 395.34 389.92C390.22 386.31 387 384.3 387 384.3C387 384.3 386.06 391.85 390.87 395.52C394.386 398.075 398.109 400.332 402 402.27L401 396.65Z" fill="#B0BEC5"/>
<path d="M401 413.61C401 413.61 401.26 410.45 397.22 405.66C393.18 400.87 390.56 398.11 390.56 398.11C390.56 398.11 387.73 405.17 391.46 409.94C394.194 413.299 397.205 416.423 400.46 419.28L401 413.61Z" fill="#B0BEC5"/>
<path d="M376.17 320.14C376.952 323.35 377.911 326.515 379.04 329.62C382.31 338.24 387.62 343.25 390.74 351C393.86 358.75 390.74 370 393.82 380.11C396.9 390.22 402 395.28 402 402.38C402 409.48 399.24 429.23 399.24 429.23" stroke="#263238" stroke-linecap="round" stroke-linejoin="round"/>
<path d="M378.3 328.2L372.97 325.41" stroke="#263238" stroke-linecap="round" stroke-linejoin="round"/>
<path d="M377.36 324.08L378.72 320.24" stroke="#263238" stroke-linecap="round" stroke-linejoin="round"/>
<path d="M390.41 350.68C390.41 350.68 385.96 348.41 381.41 346.15" stroke="#263238" stroke-linecap="round" stroke-linejoin="round"/>
<path d="M387.38 344.87C388.692 340.75 390.417 336.773 392.53 333" stroke="#263238" stroke-linecap="round" stroke-linejoin="round"/>
<path d="M393.05 377.61C390.083 373.855 386.586 370.551 382.67 367.8" stroke="#263238" stroke-linecap="round" stroke-linejoin="round"/>
<path d="M394.57 381.85C395.282 378.833 396.242 375.879 397.44 373.02C399.15 369.23 399.44 368.73 399.44 368.73" stroke="#263238" stroke-linecap="round" stroke-linejoin="round"/>
<path d="M401.76 407.77C403.494 405.621 405.415 403.63 407.5 401.82C408.826 400.843 410.071 399.76 411.22 398.58" stroke="#263238" stroke-linecap="round" stroke-linejoin="round"/>
<path d="M402 402.38C400.571 400.075 398.97 397.883 397.21 395.82C395.477 393.928 393.59 392.182 391.57 390.6" stroke="#263238" stroke-linecap="round" stroke-linejoin="round"/>
<path d="M400.46 419.28C400.281 416.875 399.463 414.562 398.09 412.58C395.9 409.69 393.32 405.85 392.27 404.34" stroke="#263238" stroke-linecap="round" stroke-linejoin="round"/>
<path d="M92.67 277.32L88.29 264.81L92.67 270.12L89.23 251.35L94.55 264.81L96.43 238.52L99.56 263.55L103 258.55V264.81L107.07 256.36L104.88 271.06L108.63 268.56L102.69 276.69L92.67 277.32Z" fill="#B0BEC5"/>
<path d="M106.44 274.19H90.1699L93.0999 307.04H103.51L106.44 274.19Z" fill="#263238" stroke="#263238" stroke-linecap="round" stroke-linejoin="round"/>
<path d="M136.96 306.67H81.53V424.07H136.96V306.67Z" fill="white" stroke="#263238" stroke-linecap="round" stroke-linejoin="round"/>
<path d="M139.99 306.67H109.24V424.07H139.99V306.67Z" fill="white" stroke="#263238" stroke-linecap="round" stroke-linejoin="round"/>
<path d="M136.53 306.67H109.24V424.07H136.53V306.67Z" fill="#263238" stroke="#263238" stroke-linecap="round" stroke-linejoin="round"/>
<path d="M133.46 396.77H109.24V420.81H133.46V396.77Z" fill="#B0BEC5" stroke="#263238" stroke-linecap="round" stroke-linejoin="round"/>
<path d="M133.46 398.07H109.24V401.15H133.46V398.07Z" fill="white" stroke="#263238" stroke-linecap="round" stroke-linejoin="round"/>
<path d="M133.46 415.77H109.24V418.85H133.46V415.77Z" fill="white" stroke="#263238" stroke-linecap="round" stroke-linejoin="round"/>
<path d="M113.83 397.27V427.67" stroke="#263238" stroke-linecap="round" stroke-linejoin="round"/>
<path d="M122.28 397.27V427.67" stroke="#263238" stroke-linecap="round" stroke-linejoin="round"/>
<path d="M129.7 397.27V427.67" stroke="#263238" stroke-linecap="round" stroke-linejoin="round"/>
<path d="M133.46 311.03H109.24V346.38H133.46V311.03Z" fill="#B0BEC5" stroke="#263238" stroke-linecap="round" stroke-linejoin="round"/>
<path d="M133.46 312.51H109.24V316.01H133.46V312.51Z" fill="white" stroke="#263238" stroke-linecap="round" stroke-linejoin="round"/>
<path d="M133.46 335.17H109.24V338.67H133.46V335.17Z" fill="white" stroke="#263238" stroke-linecap="round" stroke-linejoin="round"/>
<path d="M113.83 311.59V346.14" stroke="#263238" stroke-linecap="round" stroke-linejoin="round"/>
<path d="M122.28 311.59V346.14" stroke="#263238" stroke-linecap="round" stroke-linejoin="round"/>
<path d="M129.7 311.59V346.14" stroke="#263238" stroke-linecap="round" stroke-linejoin="round"/>
<path d="M133.46 353.63H109.24V388.98H133.46V353.63Z" fill="#B0BEC5" stroke="#263238" stroke-linecap="round" stroke-linejoin="round"/>
<path d="M133.46 355.11H109.24V358.61H133.46V355.11Z" fill="white" stroke="#263238" stroke-linecap="round" stroke-linejoin="round"/>
<path d="M133.46 377.77H109.24V381.27H133.46V377.77Z" fill="white" stroke="#263238" stroke-linecap="round" stroke-linejoin="round"/>
<path d="M113.83 354.2V388.74" stroke="#263238" stroke-linecap="round" stroke-linejoin="round"/>
<path d="M122.28 354.2V388.74" stroke="#263238" stroke-linecap="round" stroke-linejoin="round"/>
<path d="M129.7 354.2V388.74" stroke="#263238" stroke-linecap="round" stroke-linejoin="round"/>
<path d="M136.95 345.89H109.24V349.91H136.95V345.89Z" fill="white" stroke="#263238" stroke-linecap="round" stroke-linejoin="round"/>
<path d="M136.95 388.76H109.24V392.78H136.95V388.76Z" fill="white" stroke="#263238" stroke-linecap="round" stroke-linejoin="round"/>
<path d="M136.95 306.67V424.06" stroke="#263238" stroke-linecap="round" stroke-linejoin="round"/>
<path d="M105.33 306.67V424.06H109.24V311.03H136.47V306.62L105.33 306.67Z" fill="white" stroke="#263238" stroke-linecap="round" stroke-linejoin="round"/>
<path d="M109.24 311.03V306.67" stroke="#263238" stroke-linecap="round" stroke-linejoin="round"/>
<path d="M158 417.38C155.825 417.272 153.69 416.763 151.7 415.88C151.422 415.777 151.169 415.619 150.954 415.416C150.74 415.212 150.569 414.967 150.452 414.695C150.336 414.423 150.276 414.13 150.276 413.834C150.276 413.539 150.336 413.246 150.453 412.974C150.57 412.702 150.741 412.457 150.956 412.254C151.17 412.05 151.424 411.892 151.701 411.79C151.979 411.688 152.274 411.643 152.57 411.658C152.865 411.674 153.154 411.749 153.42 411.88C155.42 412.73 158.01 413.26 158.7 412.96C159.97 411.54 161.92 402.96 159.4 398.82C158.83 397.9 158.3 397.73 157.95 397.69C156.52 397.49 154.4 398.96 153.65 399.69C153.441 399.887 153.195 400.041 152.927 400.143C152.659 400.245 152.373 400.293 152.086 400.285C151.799 400.277 151.517 400.212 151.255 400.094C150.993 399.977 150.757 399.809 150.56 399.6C150.363 399.391 150.209 399.146 150.107 398.877C150.005 398.609 149.956 398.323 149.965 398.036C149.973 397.749 150.038 397.467 150.155 397.205C150.273 396.943 150.441 396.707 150.65 396.51C151.04 396.13 154.65 392.88 158.5 393.4C159.455 393.539 160.365 393.897 161.159 394.445C161.953 394.993 162.61 395.717 163.08 396.56C166.79 402.61 164.25 414.12 161.4 416.4C160.409 417.101 159.211 417.446 158 417.38Z" fill="white"/>
<mask id="mask0_2338_2" style="mask-type:luminance" maskUnits="userSpaceOnUse" x="149" y="393" width="16" height="25">
<path d="M158 417.38C155.825 417.272 153.69 416.763 151.7 415.88C151.422 415.777 151.169 415.619 150.954 415.416C150.74 415.212 150.569 414.967 150.452 414.695C150.336 414.423 150.276 414.13 150.276 413.834C150.276 413.539 150.336 413.246 150.453 412.974C150.57 412.702 150.741 412.457 150.956 412.254C151.17 412.05 151.424 411.892 151.701 411.79C151.979 411.688 152.274 411.643 152.57 411.658C152.865 411.674 153.154 411.749 153.42 411.88C155.42 412.73 158.01 413.26 158.7 412.96C159.97 411.54 161.92 402.96 159.4 398.82C158.83 397.9 158.3 397.73 157.95 397.69C156.52 397.49 154.4 398.96 153.65 399.69C153.441 399.887 153.195 400.041 152.927 400.143C152.659 400.245 152.373 400.293 152.086 400.285C151.799 400.277 151.517 400.212 151.255 400.094C150.993 399.977 150.757 399.809 150.56 399.6C150.363 399.391 150.209 399.146 150.107 398.877C150.005 398.609 149.956 398.323 149.965 398.036C149.973 397.749 150.038 397.467 150.155 397.205C150.273 396.943 150.441 396.707 150.65 396.51C151.04 396.13 154.65 392.88 158.5 393.4C159.455 393.539 160.365 393.897 161.159 394.445C161.953 394.993 162.61 395.717 163.08 396.56C166.79 402.61 164.25 414.12 161.4 416.4C160.409 417.101 159.211 417.446 158 417.38Z" fill="white"/>
</mask>
<g mask="url(#mask0_2338_2)">
<path d="M160.93 398.16C160.668 397.539 160.257 396.992 159.734 396.566C159.211 396.141 158.591 395.85 157.93 395.72C155.43 395.32 153.08 397.83 152.82 398.11C152.581 398.398 152.433 398.751 152.396 399.123C152.358 399.495 152.433 399.87 152.61 400.2C153.003 400.121 153.367 399.934 153.66 399.66C154.41 398.96 156.53 397.49 157.96 397.66C158.31 397.66 158.84 397.87 159.41 398.79C161.93 402.89 159.98 411.51 158.71 412.93C158.02 413.23 155.44 412.7 153.43 411.85C153.182 411.746 152.918 411.688 152.65 411.68C152.668 411.954 152.754 412.219 152.901 412.452C153.048 412.684 153.25 412.876 153.49 413.01C154.754 413.685 156.149 414.081 157.58 414.17C158.396 414.209 159.196 413.929 159.81 413.39C161.69 411.66 163.35 402.81 160.93 398.16Z" fill="#B0BEC5"/>
<path opacity="0.5" d="M160.93 398.16C160.668 397.539 160.257 396.992 159.734 396.566C159.211 396.141 158.591 395.85 157.93 395.72C155.43 395.32 153.08 397.83 152.82 398.11C152.581 398.398 152.433 398.751 152.396 399.123C152.358 399.495 152.433 399.87 152.61 400.2C153.003 400.121 153.367 399.934 153.66 399.66C154.41 398.96 156.53 397.49 157.96 397.66C158.31 397.66 158.84 397.87 159.41 398.79C161.93 402.89 159.98 411.51 158.71 412.93C158.02 413.23 155.44 412.7 153.43 411.85C153.182 411.746 152.918 411.688 152.65 411.68C152.668 411.954 152.754 412.219 152.901 412.452C153.048 412.684 153.25 412.876 153.49 413.01C154.754 413.685 156.149 414.081 157.58 414.17C158.396 414.209 159.196 413.929 159.81 413.39C161.69 411.66 163.35 402.81 160.93 398.16Z" fill="white"/>
</g>
<path d="M158 417.38C155.825 417.272 153.69 416.763 151.7 415.88C151.422 415.777 151.169 415.619 150.954 415.416C150.74 415.212 150.569 414.967 150.452 414.695C150.336 414.423 150.276 414.13 150.276 413.834C150.276 413.539 150.336 413.246 150.453 412.974C150.57 412.702 150.741 412.457 150.956 412.254C151.17 412.05 151.424 411.892 151.701 411.79C151.979 411.688 152.274 411.643 152.57 411.658C152.865 411.674 153.154 411.749 153.42 411.88C155.42 412.73 158.01 413.26 158.7 412.96C159.97 411.54 161.92 402.96 159.4 398.82C158.83 397.9 158.3 397.73 157.95 397.69C156.52 397.49 154.4 398.96 153.65 399.69C153.441 399.887 153.195 400.041 152.927 400.143C152.659 400.245 152.373 400.293 152.086 400.285C151.799 400.277 151.517 400.212 151.255 400.094C150.993 399.977 150.757 399.809 150.56 399.6C150.363 399.391 150.209 399.146 150.107 398.877C150.005 398.609 149.956 398.323 149.965 398.036C149.973 397.749 150.038 397.467 150.155 397.205C150.273 396.943 150.441 396.707 150.65 396.51C151.04 396.13 154.65 392.88 158.5 393.4C159.455 393.539 160.365 393.897 161.159 394.445C161.953 394.993 162.61 395.717 163.08 396.56C166.79 402.61 164.25 414.12 161.4 416.4C160.409 417.101 159.211 417.446 158 417.38Z" stroke="#263238" stroke-linecap="round" stroke-linejoin="round"/>
<path d="M154.18 391.58H130.13V423.5H154.18V391.58Z" fill="white"/>
<mask id="mask1_2338_2" style="mask-type:luminance" maskUnits="userSpaceOnUse" x="130" y="391" width="25" height="33">
<path d="M154.18 391.58H130.13V423.5H154.18V391.58Z" fill="white"/>
</mask>
<g mask="url(#mask1_2338_2)">
<path d="M139.98 391.58H130.13V423.5H139.98V391.58Z" fill="#B0BEC5"/>
<path opacity="0.5" d="M139.98 391.58H130.13V423.5H139.98V391.58Z" fill="white"/>
</g>
<path d="M154.18 391.58H130.13V423.5H154.18V391.58Z" stroke="#263238" stroke-linecap="round" stroke-linejoin="round"/>
<path d="M443.03 422.41H57.1699V431.78H443.03V422.41Z" fill="#263238"/>
<path d="M342.98 75H157.35C151.093 75 146.02 80.0726 146.02 86.33V192.84C146.02 199.097 151.093 204.17 157.35 204.17H342.98C349.237 204.17 354.31 199.097 354.31 192.84V86.33C354.31 80.0726 349.237 75 342.98 75Z" fill="#B0BEC5"/>
<path d="M255.063 149.23C271.902 146.524 283.358 130.68 280.652 113.841C277.946 97.003 262.102 85.5464 245.263 88.2526C228.425 90.9587 216.968 106.803 219.675 123.641C222.381 140.48 238.225 151.936 255.063 149.23Z" fill="#263238"/>
<path d="M249.93 124.45L239.64 137.66C239.29 138.21 238.809 138.664 238.24 138.982C237.671 139.3 237.032 139.471 236.38 139.48C235.486 139.492 234.623 139.151 233.98 138.53C233.653 138.23 233.394 137.863 233.222 137.454C233.049 137.045 232.967 136.604 232.98 136.16C233.012 135.166 233.363 134.209 233.98 133.43L245.71 118.92L234.71 104.4C234.199 103.719 233.918 102.892 233.91 102.04C233.907 101.532 234.01 101.029 234.211 100.563C234.413 100.096 234.708 99.6765 235.08 99.33C235.429 98.9657 235.848 98.676 236.312 98.4783C236.776 98.2807 237.275 98.1792 237.78 98.18C238.426 98.1905 239.059 98.3625 239.621 98.6804C240.184 98.9983 240.658 99.452 241 100L250.94 113.09L260.94 100.22C261.297 99.6196 261.797 99.1166 262.396 98.7555C262.994 98.3945 263.672 98.1865 264.37 98.15C264.803 98.149 265.232 98.2372 265.629 98.4093C266.027 98.5813 266.384 98.8335 266.68 99.15C266.995 99.4468 267.246 99.8047 267.418 100.202C267.59 100.599 267.679 101.027 267.68 101.46C267.669 102.235 267.402 102.984 266.92 103.59L255.15 118.65L266.52 133.65C267.057 134.321 267.356 135.151 267.37 136.01C267.373 136.507 267.268 136.998 267.063 137.451C266.857 137.903 266.556 138.306 266.18 138.63C265.446 139.336 264.468 139.73 263.45 139.73C262.801 139.722 262.164 139.551 261.598 139.233C261.032 138.915 260.555 138.46 260.21 137.91L249.93 124.45Z" fill="white"/>
<path d="M309 181.8H191.29C188.903 181.8 186.614 180.852 184.926 179.164C183.238 177.476 182.29 175.187 182.29 172.8C182.29 170.413 183.238 168.124 184.926 166.436C186.614 164.748 188.903 163.8 191.29 163.8H309C311.387 163.8 313.676 164.748 315.364 166.436C317.052 168.124 318 170.413 318 172.8C318 175.187 317.052 177.476 315.364 179.164C313.676 180.852 311.387 181.8 309 181.8Z" fill="white"/>
<path d="M207.42 175.7C207.341 175.7 207.264 175.684 207.191 175.653C207.119 175.622 207.054 175.577 207 175.52C206.941 175.461 206.894 175.391 206.863 175.314C206.832 175.236 206.818 175.153 206.82 175.07C206.82 174.929 206.858 174.791 206.93 174.67L207.83 173.27H205.99C205.905 173.274 205.82 173.261 205.741 173.23C205.661 173.198 205.589 173.151 205.53 173.09C205.427 172.97 205.371 172.818 205.371 172.66C205.371 172.502 205.427 172.35 205.53 172.23C205.589 172.169 205.661 172.121 205.741 172.09C205.82 172.059 205.905 172.046 205.99 172.05L207.8 172.1L207 170.8C206.92 170.667 206.875 170.515 206.87 170.36C206.868 170.277 206.882 170.194 206.913 170.116C206.944 170.039 206.991 169.969 207.05 169.91C207.106 169.853 207.173 169.807 207.247 169.777C207.321 169.746 207.4 169.73 207.48 169.73C207.592 169.728 207.702 169.76 207.796 169.82C207.89 169.881 207.965 169.968 208.01 170.07L208.89 171.64L209.73 170.14C209.783 170.023 209.867 169.923 209.973 169.851C210.078 169.779 210.202 169.737 210.33 169.73C210.408 169.73 210.486 169.746 210.558 169.777C210.631 169.808 210.696 169.853 210.75 169.91C210.809 169.965 210.855 170.032 210.886 170.106C210.917 170.18 210.932 170.26 210.93 170.34C210.929 170.482 210.887 170.621 210.81 170.74L209.93 172.15L211.76 172.1C211.845 172.095 211.93 172.108 212.01 172.14C212.089 172.171 212.161 172.219 212.22 172.28C212.323 172.4 212.379 172.552 212.379 172.71C212.379 172.868 212.323 173.02 212.22 173.14C212.161 173.201 212.089 173.249 212.01 173.28C211.93 173.312 211.845 173.325 211.76 173.32H209.91L210.73 174.6C210.822 174.754 210.874 174.93 210.88 175.11C210.883 175.191 210.869 175.272 210.84 175.347C210.811 175.423 210.767 175.492 210.71 175.55C210.657 175.606 210.594 175.651 210.523 175.682C210.453 175.713 210.377 175.729 210.3 175.73C210.176 175.727 210.056 175.689 209.953 175.62C209.85 175.55 209.769 175.453 209.72 175.34L208.89 173.87L208.06 175.34C208 175.456 207.907 175.552 207.794 175.615C207.68 175.679 207.55 175.709 207.42 175.7Z" fill="black"/>
<path d="M216.6 175.7C216.522 175.7 216.444 175.684 216.372 175.653C216.299 175.622 216.234 175.577 216.18 175.52C216.121 175.461 216.074 175.391 216.043 175.314C216.013 175.236 215.998 175.153 216 175.07C216 174.929 216.038 174.791 216.11 174.67L217.01 173.27H215.17C215.085 173.274 215 173.261 214.921 173.23C214.841 173.199 214.77 173.151 214.71 173.09C214.607 172.97 214.551 172.818 214.551 172.66C214.551 172.502 214.607 172.35 214.71 172.23C214.77 172.169 214.841 172.122 214.921 172.09C215 172.059 215.085 172.046 215.17 172.05L216.98 172.1L216.13 170.75C216.05 170.617 216.005 170.465 216 170.31C215.998 170.227 216.013 170.144 216.043 170.066C216.074 169.989 216.121 169.919 216.18 169.86C216.236 169.803 216.303 169.757 216.377 169.727C216.451 169.696 216.53 169.68 216.61 169.68C216.722 169.678 216.832 169.71 216.926 169.77C217.021 169.831 217.095 169.918 217.14 170.02L218.02 171.59L218.86 170.09C218.913 169.973 218.997 169.873 219.103 169.801C219.209 169.729 219.332 169.687 219.46 169.68C219.539 169.68 219.616 169.696 219.689 169.727C219.761 169.758 219.826 169.803 219.88 169.86C219.939 169.915 219.985 169.982 220.016 170.056C220.047 170.13 220.062 170.21 220.06 170.29C220.059 170.432 220.017 170.571 219.94 170.69L219.06 172.1L220.89 172.05C220.975 172.045 221.06 172.058 221.14 172.09C221.219 172.121 221.291 172.169 221.35 172.23C221.453 172.35 221.509 172.502 221.509 172.66C221.509 172.818 221.453 172.97 221.35 173.09C221.291 173.151 221.219 173.199 221.14 173.23C221.06 173.262 220.975 173.275 220.89 173.27H219.04L219.86 174.55C219.953 174.705 220.004 174.88 220.01 175.06C220.013 175.141 219.999 175.222 219.97 175.297C219.941 175.373 219.897 175.442 219.84 175.5C219.787 175.556 219.724 175.601 219.653 175.632C219.583 175.663 219.507 175.679 219.43 175.68C219.306 175.678 219.185 175.64 219.082 175.571C218.979 175.502 218.899 175.404 218.85 175.29L218.02 173.82L217.19 175.29C217.141 175.407 217.059 175.508 216.955 175.581C216.85 175.653 216.727 175.695 216.6 175.7Z" fill="black"/>
<path d="M225.78 175.7C225.701 175.7 225.624 175.684 225.552 175.653C225.479 175.622 225.414 175.577 225.36 175.52C225.301 175.461 225.254 175.391 225.223 175.314C225.192 175.236 225.178 175.153 225.18 175.07C225.18 174.929 225.218 174.791 225.29 174.67L226.19 173.27H224.35C224.265 173.274 224.18 173.261 224.101 173.23C224.021 173.199 223.95 173.151 223.89 173.09C223.787 172.97 223.731 172.818 223.731 172.66C223.731 172.502 223.787 172.35 223.89 172.23C223.95 172.169 224.021 172.122 224.101 172.09C224.18 172.059 224.265 172.046 224.35 172.05L226.16 172.1L225.31 170.75C225.23 170.617 225.185 170.465 225.18 170.31C225.178 170.227 225.192 170.144 225.223 170.066C225.254 169.989 225.301 169.919 225.36 169.86C225.416 169.803 225.483 169.757 225.557 169.727C225.631 169.696 225.71 169.68 225.79 169.68C225.902 169.678 226.012 169.71 226.106 169.77C226.2 169.831 226.275 169.918 226.32 170.02L227.2 171.59L228.04 170.09C228.093 169.973 228.177 169.873 228.283 169.801C228.388 169.729 228.512 169.687 228.64 169.68C228.719 169.68 228.796 169.696 228.868 169.727C228.941 169.758 229.006 169.803 229.06 169.86C229.119 169.915 229.165 169.982 229.196 170.056C229.227 170.13 229.242 170.21 229.24 170.29C229.239 170.432 229.197 170.571 229.12 170.69L228.24 172.1L230.07 172.05C230.155 172.045 230.24 172.058 230.32 172.09C230.399 172.121 230.471 172.169 230.53 172.23C230.633 172.35 230.689 172.502 230.689 172.66C230.689 172.818 230.633 172.97 230.53 173.09C230.471 173.151 230.399 173.199 230.32 173.23C230.24 173.262 230.155 173.275 230.07 173.27H228.22L229.04 174.55C229.133 174.705 229.184 174.88 229.19 175.06C229.193 175.141 229.179 175.222 229.15 175.297C229.121 175.373 229.077 175.442 229.02 175.5C228.967 175.556 228.904 175.601 228.833 175.632C228.763 175.663 228.687 175.679 228.61 175.68C228.486 175.678 228.365 175.64 228.262 175.571C228.159 175.502 228.078 175.404 228.03 175.29L227.2 173.82L226.37 175.29C226.321 175.407 226.239 175.508 226.135 175.581C226.03 175.653 225.907 175.695 225.78 175.7Z" fill="black"/>
<path d="M235 175.7C234.921 175.7 234.844 175.684 234.772 175.653C234.699 175.622 234.634 175.577 234.58 175.52C234.521 175.461 234.474 175.391 234.443 175.314C234.412 175.236 234.398 175.153 234.4 175.07C234.4 174.929 234.438 174.791 234.51 174.67L235.41 173.27H233.57C233.485 173.274 233.4 173.261 233.321 173.23C233.241 173.199 233.169 173.151 233.11 173.09C233.007 172.97 232.951 172.818 232.951 172.66C232.951 172.502 233.007 172.35 233.11 172.23C233.169 172.169 233.241 172.122 233.321 172.09C233.4 172.059 233.485 172.046 233.57 172.05L235.38 172.1L234.53 170.75C234.45 170.617 234.405 170.465 234.4 170.31C234.398 170.227 234.412 170.144 234.443 170.066C234.474 169.989 234.521 169.919 234.58 169.86C234.636 169.803 234.703 169.757 234.777 169.727C234.851 169.696 234.93 169.68 235.01 169.68C235.122 169.678 235.232 169.71 235.326 169.77C235.42 169.831 235.495 169.918 235.54 170.02L236.42 171.59L237.26 170.09C237.313 169.973 237.397 169.873 237.503 169.801C237.608 169.729 237.732 169.687 237.86 169.68C237.939 169.68 238.016 169.696 238.088 169.727C238.161 169.758 238.226 169.803 238.28 169.86C238.339 169.915 238.385 169.982 238.416 170.056C238.447 170.13 238.462 170.21 238.46 170.29C238.459 170.432 238.417 170.571 238.34 170.69L237.46 172.1L239.29 172.05C239.375 172.045 239.46 172.058 239.54 172.09C239.619 172.121 239.691 172.169 239.75 172.23C239.853 172.35 239.909 172.502 239.909 172.66C239.909 172.818 239.853 172.97 239.75 173.09C239.691 173.151 239.619 173.199 239.54 173.23C239.46 173.262 239.375 173.275 239.29 173.27H237.44L238.26 174.55C238.352 174.705 238.404 174.88 238.41 175.06C238.413 175.141 238.399 175.222 238.37 175.297C238.341 175.373 238.297 175.442 238.24 175.5C238.187 175.556 238.124 175.601 238.053 175.632C237.983 175.663 237.907 175.679 237.83 175.68C237.706 175.677 237.586 175.639 237.483 175.57C237.38 175.501 237.299 175.403 237.25 175.29L236.42 173.82L235.59 175.29C235.541 175.407 235.459 175.508 235.355 175.581C235.25 175.653 235.127 175.695 235 175.7Z" fill="black"/>
<path d="M244.14 175.7C244.062 175.7 243.984 175.684 243.912 175.653C243.839 175.622 243.774 175.577 243.72 175.52C243.661 175.461 243.614 175.391 243.584 175.314C243.553 175.236 243.538 175.153 243.54 175.07C243.545 174.93 243.582 174.793 243.65 174.67L244.55 173.27H242.71C242.625 173.274 242.54 173.261 242.461 173.23C242.381 173.199 242.31 173.151 242.25 173.09C242.147 172.97 242.091 172.818 242.091 172.66C242.091 172.502 242.147 172.35 242.25 172.23C242.31 172.169 242.381 172.122 242.461 172.09C242.54 172.059 242.625 172.046 242.71 172.05L244.52 172.1L243.67 170.75C243.59 170.617 243.545 170.465 243.54 170.31C243.538 170.227 243.553 170.144 243.584 170.066C243.614 169.989 243.661 169.919 243.72 169.86C243.776 169.803 243.843 169.757 243.917 169.727C243.991 169.696 244.07 169.68 244.15 169.68C244.262 169.678 244.372 169.71 244.466 169.77C244.561 169.831 244.635 169.918 244.68 170.02L245.56 171.59L246.4 170.09C246.453 169.973 246.537 169.873 246.643 169.801C246.749 169.729 246.872 169.687 247 169.68C247.079 169.679 247.157 169.694 247.229 169.725C247.302 169.756 247.367 169.802 247.42 169.86C247.479 169.915 247.525 169.982 247.556 170.056C247.587 170.13 247.602 170.21 247.6 170.29C247.599 170.432 247.557 170.571 247.48 170.69L246.6 172.1L248.43 172.05C248.515 172.045 248.6 172.058 248.68 172.09C248.759 172.121 248.831 172.169 248.89 172.23C248.993 172.35 249.049 172.502 249.049 172.66C249.049 172.818 248.993 172.97 248.89 173.09C248.831 173.151 248.759 173.199 248.68 173.23C248.6 173.262 248.515 173.275 248.43 173.27H246.58L247.4 174.55C247.493 174.705 247.544 174.88 247.55 175.06C247.553 175.141 247.539 175.222 247.51 175.297C247.481 175.373 247.437 175.442 247.38 175.5C247.327 175.556 247.264 175.601 247.194 175.632C247.123 175.663 247.047 175.679 246.97 175.68C246.846 175.677 246.726 175.639 246.623 175.57C246.52 175.501 246.44 175.403 246.39 175.29L245.56 173.82L244.73 175.29C244.681 175.407 244.599 175.508 244.495 175.581C244.39 175.653 244.267 175.695 244.14 175.7Z" fill="black"/>
<path d="M253.32 175.7C253.242 175.7 253.164 175.684 253.092 175.653C253.019 175.622 252.954 175.577 252.9 175.52C252.841 175.461 252.794 175.391 252.763 175.314C252.732 175.236 252.718 175.153 252.72 175.07C252.725 174.93 252.762 174.793 252.83 174.67L253.73 173.27H251.9C251.813 173.275 251.727 173.262 251.646 173.231C251.565 173.2 251.491 173.152 251.43 173.09C251.327 172.97 251.271 172.818 251.271 172.66C251.271 172.502 251.327 172.35 251.43 172.23C251.491 172.168 251.565 172.12 251.646 172.089C251.727 172.058 251.813 172.045 251.9 172.05L253.7 172.1L252.85 170.75C252.77 170.617 252.725 170.465 252.72 170.31C252.718 170.227 252.732 170.144 252.763 170.066C252.794 169.989 252.841 169.919 252.9 169.86C252.956 169.803 253.023 169.757 253.097 169.727C253.171 169.696 253.25 169.68 253.33 169.68C253.442 169.678 253.552 169.71 253.646 169.77C253.741 169.831 253.815 169.918 253.86 170.02L254.74 171.59L255.58 170.09C255.633 169.973 255.717 169.873 255.823 169.801C255.928 169.729 256.052 169.687 256.18 169.68C256.259 169.679 256.337 169.694 256.409 169.725C256.482 169.756 256.547 169.802 256.6 169.86C256.659 169.915 256.705 169.982 256.736 170.056C256.767 170.13 256.782 170.21 256.78 170.29C256.779 170.432 256.737 170.571 256.66 170.69L255.78 172.1L257.61 172.05C257.695 172.045 257.78 172.058 257.86 172.09C257.939 172.121 258.011 172.169 258.07 172.23C258.173 172.35 258.229 172.502 258.229 172.66C258.229 172.818 258.173 172.97 258.07 173.09C258.011 173.151 257.939 173.199 257.86 173.23C257.78 173.262 257.695 173.275 257.61 173.27H255.76L256.58 174.55C256.673 174.705 256.724 174.88 256.73 175.06C256.733 175.141 256.719 175.222 256.69 175.297C256.661 175.373 256.617 175.442 256.56 175.5C256.507 175.556 256.444 175.601 256.373 175.632C256.303 175.663 256.227 175.679 256.15 175.68C256.026 175.677 255.906 175.639 255.803 175.57C255.7 175.501 255.62 175.403 255.57 175.29L254.74 173.82L253.91 175.29C253.861 175.407 253.779 175.508 253.675 175.581C253.57 175.653 253.447 175.695 253.32 175.7Z" fill="black"/>
<path d="M262.5 175.7C262.421 175.7 262.344 175.684 262.271 175.653C262.199 175.622 262.134 175.577 262.08 175.52C262.021 175.461 261.974 175.391 261.943 175.314C261.912 175.236 261.898 175.153 261.9 175.07C261.9 174.929 261.938 174.791 262.01 174.67L262.91 173.27H261.07C260.985 173.274 260.9 173.261 260.821 173.23C260.741 173.198 260.669 173.151 260.61 173.09C260.507 172.97 260.451 172.818 260.451 172.66C260.451 172.502 260.507 172.35 260.61 172.23C260.669 172.169 260.741 172.121 260.821 172.09C260.9 172.059 260.985 172.046 261.07 172.05L262.88 172.1L262 170.8C261.92 170.667 261.875 170.515 261.87 170.36C261.868 170.277 261.882 170.194 261.913 170.116C261.944 170.039 261.991 169.969 262.05 169.91C262.106 169.853 262.173 169.807 262.247 169.777C262.321 169.746 262.4 169.73 262.48 169.73C262.592 169.728 262.702 169.76 262.796 169.82C262.89 169.881 262.965 169.968 263.01 170.07L263.89 171.64L264.73 170.14C264.783 170.023 264.867 169.923 264.973 169.851C265.078 169.779 265.202 169.737 265.33 169.73C265.409 169.729 265.487 169.744 265.559 169.775C265.632 169.806 265.697 169.852 265.75 169.91C265.809 169.965 265.855 170.032 265.886 170.106C265.917 170.18 265.932 170.26 265.93 170.34C265.929 170.482 265.887 170.621 265.81 170.74L264.93 172.15L266.76 172.1C266.845 172.095 266.93 172.108 267.01 172.14C267.089 172.171 267.161 172.219 267.22 172.28C267.323 172.4 267.379 172.552 267.379 172.71C267.379 172.868 267.323 173.02 267.22 173.14C267.161 173.201 267.089 173.249 267.01 173.28C266.93 173.312 266.845 173.325 266.76 173.32H264.91L265.73 174.6C265.822 174.754 265.874 174.93 265.88 175.11C265.883 175.191 265.869 175.272 265.84 175.347C265.811 175.423 265.767 175.492 265.71 175.55C265.657 175.606 265.594 175.651 265.523 175.682C265.453 175.713 265.377 175.729 265.3 175.73C265.176 175.727 265.056 175.689 264.953 175.62C264.85 175.55 264.769 175.453 264.72 175.34L263.89 173.87L263.06 175.34C263.006 175.444 262.926 175.531 262.828 175.594C262.73 175.658 262.617 175.694 262.5 175.7Z" fill="black"/>
<path d="M271.68 175.7C271.601 175.7 271.524 175.684 271.451 175.653C271.379 175.622 271.314 175.577 271.26 175.52C271.201 175.461 271.154 175.391 271.123 175.314C271.092 175.236 271.078 175.153 271.08 175.07C271.085 174.93 271.122 174.793 271.19 174.67L272.09 173.27H270.26C270.175 173.276 270.089 173.264 270.009 173.232C269.93 173.201 269.858 173.153 269.8 173.09C269.691 172.973 269.63 172.82 269.63 172.66C269.63 172.5 269.691 172.347 269.8 172.23C269.858 172.167 269.93 172.119 270.009 172.088C270.089 172.056 270.175 172.044 270.26 172.05L272.06 172.1L271.21 170.75C271.13 170.617 271.085 170.465 271.08 170.31C271.077 170.228 271.091 170.147 271.121 170.07C271.15 169.994 271.194 169.924 271.251 169.866C271.308 169.807 271.376 169.76 271.452 169.728C271.527 169.696 271.608 169.68 271.69 169.68C271.802 169.678 271.912 169.71 272.006 169.77C272.1 169.831 272.175 169.918 272.22 170.02L273.1 171.59L273.94 170.09C273.993 169.973 274.077 169.873 274.183 169.801C274.288 169.729 274.412 169.687 274.54 169.68C274.619 169.677 274.697 169.692 274.77 169.723C274.842 169.754 274.907 169.801 274.96 169.86C275.019 169.915 275.065 169.982 275.096 170.056C275.127 170.13 275.142 170.21 275.14 170.29C275.139 170.432 275.097 170.571 275.02 170.69L274.14 172.1L275.97 172.05C276.055 172.045 276.14 172.058 276.22 172.09C276.299 172.121 276.371 172.169 276.43 172.23C276.533 172.35 276.589 172.502 276.589 172.66C276.589 172.818 276.533 172.97 276.43 173.09C276.371 173.151 276.299 173.199 276.22 173.23C276.14 173.261 276.055 173.275 275.97 173.27H274.12L274.94 174.55C275.032 174.704 275.084 174.88 275.09 175.06C275.093 175.139 275.08 175.217 275.052 175.291C275.024 175.365 274.982 175.433 274.928 175.49C274.875 175.548 274.81 175.594 274.738 175.627C274.666 175.659 274.589 175.677 274.51 175.68C274.386 175.677 274.266 175.639 274.163 175.57C274.06 175.5 273.979 175.403 273.93 175.29L273.1 173.82L272.27 175.29C272.221 175.407 272.139 175.508 272.035 175.581C271.93 175.653 271.807 175.695 271.68 175.7Z" fill="black"/>
<path d="M280.86 175.7C280.782 175.7 280.704 175.684 280.632 175.653C280.559 175.622 280.494 175.577 280.44 175.52C280.381 175.461 280.334 175.391 280.303 175.314C280.273 175.236 280.258 175.153 280.26 175.07C280.265 174.93 280.302 174.793 280.37 174.67L281.27 173.27H279.43C279.346 173.275 279.263 173.261 279.185 173.23C279.107 173.199 279.037 173.151 278.98 173.09C278.871 172.973 278.811 172.82 278.811 172.66C278.811 172.5 278.871 172.347 278.98 172.23C279.037 172.169 279.107 172.121 279.185 172.09C279.263 172.059 279.346 172.045 279.43 172.05L281.24 172.1L280.39 170.75C280.31 170.617 280.265 170.465 280.26 170.31C280.257 170.228 280.271 170.147 280.301 170.07C280.33 169.994 280.375 169.924 280.432 169.866C280.488 169.807 280.557 169.76 280.632 169.728C280.707 169.696 280.788 169.68 280.87 169.68C280.982 169.678 281.092 169.71 281.186 169.77C281.281 169.831 281.355 169.918 281.4 170.02L282.28 171.59L283.12 170.09C283.173 169.973 283.257 169.873 283.363 169.801C283.469 169.729 283.592 169.687 283.72 169.68C283.799 169.677 283.878 169.692 283.95 169.723C284.023 169.754 284.088 169.801 284.14 169.86C284.199 169.915 284.245 169.982 284.276 170.056C284.307 170.13 284.322 170.21 284.32 170.29C284.319 170.432 284.277 170.571 284.2 170.69L283.32 172.1L285.15 172.05C285.235 172.045 285.32 172.058 285.4 172.09C285.479 172.121 285.551 172.169 285.61 172.23C285.713 172.35 285.769 172.502 285.769 172.66C285.769 172.818 285.713 172.97 285.61 173.09C285.551 173.151 285.479 173.199 285.4 173.23C285.32 173.261 285.235 173.275 285.15 173.27H283.3L284.12 174.55C284.213 174.704 284.264 174.88 284.27 175.06C284.273 175.139 284.26 175.217 284.232 175.291C284.204 175.365 284.163 175.433 284.109 175.49C284.055 175.548 283.99 175.594 283.918 175.627C283.846 175.659 283.769 175.677 283.69 175.68C283.566 175.677 283.446 175.639 283.343 175.57C283.24 175.5 283.16 175.403 283.11 175.29L282.28 173.82L281.45 175.29C281.401 175.407 281.319 175.508 281.215 175.581C281.11 175.653 280.987 175.695 280.86 175.7Z" fill="black"/>
<path d="M290 175.7C289.921 175.7 289.844 175.684 289.772 175.653C289.699 175.622 289.634 175.577 289.58 175.52C289.521 175.461 289.474 175.391 289.443 175.314C289.412 175.236 289.398 175.153 289.4 175.07C289.405 174.93 289.442 174.793 289.51 174.67L290.41 173.27H288.57C288.486 173.275 288.403 173.261 288.325 173.23C288.247 173.199 288.177 173.151 288.12 173.09C288.011 172.973 287.95 172.82 287.95 172.66C287.95 172.5 288.011 172.347 288.12 172.23C288.177 172.169 288.247 172.121 288.325 172.09C288.403 172.059 288.486 172.045 288.57 172.05L290.38 172.1L289.53 170.75C289.45 170.617 289.405 170.465 289.4 170.31C289.398 170.227 289.412 170.144 289.443 170.066C289.474 169.989 289.521 169.919 289.58 169.86C289.636 169.803 289.703 169.757 289.777 169.727C289.851 169.696 289.93 169.68 290.01 169.68C290.122 169.678 290.232 169.71 290.326 169.77C290.42 169.831 290.495 169.918 290.54 170.02L291.42 171.59L292.26 170.09C292.313 169.973 292.397 169.873 292.503 169.801C292.608 169.729 292.732 169.687 292.86 169.68C292.939 169.677 293.017 169.692 293.09 169.723C293.163 169.754 293.227 169.801 293.28 169.86C293.339 169.915 293.385 169.982 293.416 170.056C293.447 170.13 293.462 170.21 293.46 170.29C293.459 170.432 293.417 170.571 293.34 170.69L292.46 172.1L294.29 172.05C294.375 172.045 294.46 172.058 294.54 172.09C294.619 172.121 294.691 172.169 294.75 172.23C294.853 172.35 294.909 172.502 294.909 172.66C294.909 172.818 294.853 172.97 294.75 173.09C294.691 173.151 294.619 173.199 294.54 173.23C294.46 173.261 294.375 173.275 294.29 173.27H292.44L293.26 174.55C293.353 174.704 293.404 174.88 293.41 175.06C293.413 175.141 293.399 175.222 293.37 175.297C293.341 175.373 293.297 175.442 293.24 175.5C293.187 175.556 293.124 175.601 293.053 175.632C292.983 175.663 292.907 175.679 292.83 175.68C292.706 175.677 292.586 175.639 292.483 175.57C292.38 175.5 292.299 175.403 292.25 175.29L291.42 173.82L290.59 175.29C290.541 175.407 290.459 175.508 290.355 175.581C290.25 175.653 290.127 175.695 290 175.7Z" fill="black"/>
<path d="M321.46 197.82H333.69" stroke="white" stroke-width="3" stroke-linecap="round" stroke-linejoin="round"/>
<path d="M151.83 107.77V189C151.83 191.352 152.765 193.609 154.428 195.272C156.091 196.936 158.348 197.87 160.7 197.87H309.85" stroke="white" stroke-width="3" stroke-linecap="round" stroke-linejoin="round"/>
<path d="M151.83 86.23V98.41" stroke="white" stroke-width="3" stroke-linecap="round" stroke-linejoin="round"/>
</svg>
