<svg width="90" height="60" viewBox="0 0 55 16" fill="none" version="1.1" xmlns="http://www.w3.org/2000/svg">
    <path d="M0 5.566l4.617 5.825L0 15.217V5.566zM1.858 15.217l3.474-2.906 2.4 2.906H1.858zM0 2.449l1.205 1.524 4.954 6.191 1.605-1.279a19.906 19.906 0 01-2.228-3.32C3.786 2.142 5.025.01 5.025.01H0v2.439zM6.865 11.119L8.5 9.769a7.815 7.815 0 003.372 2.541 3.053 3.053 0 003.423-.92v3.826h-5.214l1.175-1.016s-.613.409-2.113-.63a15.39 15.39 0 01-2.278-2.451zM7.016 0a3.208 3.208 0 00-.15 2.449c.39 1.383 1.06 2.67 1.971 3.781a5.348 5.348 0 011.248-3.1 4.53 4.53 0 015.211-.989V.01L7.016 0z" fill="#F15A23"/>
    <path d="M15.296 4.717a5.636 5.636 0 00-2.888-1.323 2.658 2.658 0 00-2.656 2.559 4.2 4.2 0 001.507 3.193c1.085 1.085 2.405 2.255 4.036 1.313l.001-5.742z" fill="#F15A23"/>
    <path d="M32.889.159h3.645s3.229 4.89 4.816 6.91c1.587 2.02 3.3 4.321 3.3 4.321V1.254c0-.438-1.149-1.1-1.149-1.1h4.2s-1.379.567-1.379 1.1v14.745a11.712 11.712 0 01-2.824-2.478c-1.686-1.96-7.685-9.87-7.685-9.87v10.246c0 .525 1.149 1.319 1.149 1.319H32.89s1.117-.8 1.117-1.319V1.254C34.006.789 32.889.159 32.889.159zM50.054.159h4.679s-1.256.6-1.256 1.1v12.644c0 .546 1.256 1.319 1.256 1.319h-4.679s1.17-.79 1.17-1.319V1.254c0-.481-1.17-1.095-1.17-1.095zM19.124.159s1.213.6 1.213 1.1v12.644c0 .538-1.213 1.319-1.213 1.319h6.931c.433 0 5.285-.793 5.285-4.534 0-3.741-3.769-4.091-3.769-4.091a3.29 3.29 0 002.3-3.2c0-2.759-3.379-3.235-3.812-3.235L19.124.159zm3.682 6.185V1.636h2.816a2.232 2.232 0 011.949 2.382 2.47 2.47 0 01-1.949 2.325l-2.816.001zm0 1.235h3.249c.433 0 2.989.664 2.989 2.882 0 2.261-2.556 3.062-2.989 3.062h-3.249V7.579z" fill="#005E6A"/>
</svg>