<svg width="180" height="172" viewBox="0 0 180 172" fill="none" xmlns="http://www.w3.org/2000/svg">
<path d="M179.428 115.117H110.594V76.4225H179.428V115.117ZM111.014 114.709H179.008V76.8305H111.014V114.709Z" fill="#E0E0E0"/>
<path d="M165.228 97.055H119.813V98.3484H165.228V97.055Z" fill="#F0F0F0"/>
<path d="M168.357 101.878H119.813V103.289H168.357V101.878Z" fill="#F0F0F0"/>
<path d="M168.357 106.757H119.813V108.169H168.357V106.757Z" fill="#F0F0F0"/>
<path d="M135.685 90.0497H119.813V93.4075H135.685V90.0497Z" fill="#F0F0F0"/>
<path d="M179.218 76.6265H110.817V82.7873H179.218V76.6265Z" fill="#E0E0E0"/>
<path d="M173.956 81.8652C173.867 81.7836 174.749 80.7514 175.921 79.56C177.093 78.3686 178.122 77.467 178.206 77.5445C178.29 77.622 177.412 78.6583 176.24 79.8538C175.069 81.0492 174.04 81.9468 173.956 81.8652Z" fill="white"/>
<path d="M178.214 81.8652C178.13 81.9468 177.106 81.0492 175.93 79.8538C174.754 78.6583 173.876 77.6261 173.964 77.5445C174.052 77.4629 175.073 78.3605 176.249 79.56C177.425 80.7595 178.294 81.7836 178.214 81.8652Z" fill="white"/>
<path d="M94.7268 0H26.3256V38.2908H94.7268V0Z" fill="#E6E6E6"/>
<path d="M68.4012 33H0V71.2908H68.4012V33Z" fill="#E6E6E6"/>
<path d="M80.7408 20.4326H35.3262V21.726H80.7408V20.4326Z" fill="#F0F0F0"/>
<path d="M83.8698 25.2552H35.3262V26.6669H83.8698V25.2552Z" fill="#F0F0F0"/>
<path d="M83.8698 30.1349H35.3262V31.5466H83.8698V30.1349Z" fill="#F0F0F0"/>
<path d="M51.198 13.4273H35.3262V16.7851H51.198V13.4273Z" fill="#F0F0F0"/>
<path d="M94.7268 0H26.3256V6.1608H94.7268V0Z" fill="#E0E0E0"/>
<path d="M89.2332 5.21017C89.145 5.13265 90.027 4.09633 91.1988 2.90497C92.3706 1.71361 93.3996 0.811927 93.4836 0.893527C93.5676 0.975127 92.6898 2.00737 91.518 3.19873C90.3462 4.39009 89.3172 5.28361 89.2332 5.21017Z" fill="white"/>
<path d="M93.4836 5.21016C93.3996 5.29176 92.3748 4.39416 91.1988 3.19872C90.0228 2.00328 89.145 0.975117 89.2332 0.893517C89.3214 0.811917 90.342 1.70952 91.518 2.90496C92.694 4.1004 93.5718 5.13264 93.4836 5.21016Z" fill="white"/>
<path d="M68.8212 71.1307H0V32.4319H68.8212V71.1307ZM0.42 70.7227H68.4012V32.8399H0.42V70.7227Z" fill="#E0E0E0"/>
<path d="M54.6252 53.0686H9.2106V54.3619H54.6252V53.0686Z" fill="#F0F0F0"/>
<path d="M57.7542 57.8911H9.2106V59.3028H57.7542V57.8911Z" fill="#F0F0F0"/>
<path d="M57.7542 62.7708H9.2106V64.1825H57.7542V62.7708Z" fill="#F0F0F0"/>
<path d="M25.0824 46.0632H9.2106V49.421H25.0824V46.0632Z" fill="#F0F0F0"/>
<path d="M68.6112 32.6359H0.209991V38.7967H68.6112V32.6359Z" fill="#E0E0E0"/>
<path d="M148.247 79.9966H67.4814V150.238H148.247V79.9966Z" fill="#E6E6E6"/>
<path d="M71.5428 57.8707H8.27399V121.727H71.5428V57.8707Z" fill="#F0F0F0"/>
<path d="M71.5428 57.8707H8.27399V64.8271H71.5428V57.8707Z" fill="#E0E0E0"/>
<path d="M13.4988 61.2775C13.4873 61.5298 13.3998 61.7732 13.2471 61.9776C13.0945 62.182 12.8834 62.3383 12.6401 62.4272C12.3968 62.516 12.132 62.5336 11.8785 62.4776C11.625 62.4215 11.3941 62.2945 11.2143 62.1121C11.0345 61.9297 10.9139 61.7001 10.8672 61.4517C10.8206 61.2032 10.8501 60.947 10.9521 60.7147C11.054 60.4824 11.2239 60.2844 11.4407 60.1451C11.6575 60.0058 11.9117 59.9314 12.1716 59.9311C12.5311 59.9397 12.8724 60.0861 13.1211 60.3384C13.3698 60.5907 13.5056 60.9283 13.4988 61.2775Z" fill="white"/>
<path d="M18.8874 61.2775C18.8767 61.531 18.7895 61.7758 18.6366 61.9815C18.4838 62.1871 18.2721 62.3446 18.0278 62.4343C17.7835 62.524 17.5175 62.5419 17.2628 62.4858C17.0082 62.4298 16.7761 62.3022 16.5955 62.119C16.4149 61.9358 16.2937 61.705 16.2471 61.4554C16.2005 61.2058 16.2304 60.9484 16.3333 60.7152C16.4361 60.4821 16.6072 60.2834 16.8254 60.144C17.0435 60.0046 17.2991 59.9305 17.5602 59.9311C17.9196 59.9397 18.261 60.0861 18.5097 60.3384C18.7584 60.5906 18.8942 60.9283 18.8874 61.2775Z" fill="white"/>
<path d="M24.276 61.2775C24.2653 61.531 24.1781 61.7758 24.0253 61.9815C23.8724 62.1871 23.6607 62.3446 23.4164 62.4343C23.1722 62.524 22.9061 62.5419 22.6515 62.4858C22.3968 62.4298 22.1647 62.3022 21.9841 62.119C21.8035 61.9358 21.6823 61.705 21.6357 61.4554C21.5891 61.2058 21.619 60.9484 21.7219 60.7152C21.8247 60.4821 21.9958 60.2834 22.214 60.144C22.4321 60.0046 22.6877 59.9305 22.9488 59.9311C23.3083 59.9397 23.6496 60.0861 23.8983 60.3384C24.147 60.5906 24.2828 60.9283 24.276 61.2775Z" fill="white"/>
<path d="M170.394 13.9658H89.628V92.1631H170.394V13.9658Z" fill="#F0F0F0"/>
<path d="M170.394 13.9658H89.628V23.1254H170.394V13.9658Z" fill="#E0E0E0"/>
<path d="M96.5076 18.4538C96.4928 18.7868 96.3776 19.1083 96.1764 19.3782C95.9752 19.6482 95.6968 19.8548 95.3757 19.9724C95.0547 20.09 94.7051 20.1134 94.3705 20.0396C94.0359 19.9659 93.731 19.7984 93.4935 19.5578C93.2561 19.3172 93.0966 19.0141 93.035 18.6862C92.9733 18.3584 93.0121 18.0201 93.1466 17.7135C93.2811 17.4069 93.5053 17.1454 93.7915 16.9615C94.0777 16.7776 94.4131 16.6794 94.7562 16.679C95.2304 16.6898 95.6809 16.8825 96.0092 17.2151C96.3374 17.5478 96.5166 17.9932 96.5076 18.4538Z" fill="white"/>
<path d="M103.089 17.2543C103.322 17.4999 103.475 17.8067 103.53 18.1364C103.584 18.466 103.538 18.804 103.396 19.1082C103.255 19.4125 103.024 19.6694 102.733 19.8472C102.442 20.0249 102.103 20.1155 101.76 20.1077C101.416 20.0999 101.082 19.9941 100.8 19.8034C100.518 19.6126 100.3 19.3455 100.173 19.0352C100.046 18.7249 100.016 18.3851 100.086 18.0583C100.157 17.7315 100.325 17.432 100.569 17.1972C100.911 16.8808 101.369 16.7091 101.841 16.7198C102.314 16.7305 102.762 16.9227 103.089 17.2543Z" fill="white"/>
<path d="M110.695 18.4538C110.68 18.7868 110.565 19.1083 110.364 19.3782C110.163 19.6482 109.884 19.8548 109.563 19.9724C109.242 20.09 108.893 20.1134 108.558 20.0396C108.224 19.9659 107.919 19.7984 107.681 19.5578C107.444 19.3172 107.284 19.0141 107.223 18.6862C107.161 18.3584 107.2 18.0201 107.334 17.7135C107.469 17.4069 107.693 17.1454 107.979 16.9615C108.265 16.7776 108.601 16.6794 108.944 16.679C109.418 16.6898 109.869 16.8825 110.197 17.2151C110.525 17.5478 110.704 17.9932 110.695 18.4538Z" fill="white"/>
<path d="M152.947 170.985C152.947 171.042 123.782 171.091 87.8178 171.091C51.8532 171.091 22.6758 171.042 22.6758 170.985C22.6758 170.928 51.8364 170.879 87.8178 170.879C123.799 170.879 152.947 170.932 152.947 170.985Z" fill="#263238"/>
<path d="M124.53 121.037C118.041 116.635 116.571 108.463 116.827 101.115C116.869 99.8906 116.731 98.5932 117.331 97.5202C117.932 96.4471 119.335 95.7087 120.464 96.2227C121.401 96.6511 121.808 97.7119 122.333 98.5891C123.034 99.7575 124.06 100.709 125.294 101.335C126.097 101.743 127.092 101.988 127.886 101.563C128.978 100.98 129.104 99.5235 129.095 98.2995C129.095 96.0228 129.081 93.7489 129.053 91.4777C128.978 90.2581 129.106 89.0347 129.431 87.8546C129.822 86.6959 130.691 85.6229 131.88 85.2965C133.069 84.9701 134.551 85.6433 134.82 86.8346C134.866 87.3392 134.879 87.8462 134.858 88.3524C134.891 88.8624 135.135 89.4214 135.626 89.5764C136.118 89.7314 136.63 89.3765 137.008 89.0174C138.302 87.7934 139.184 86.1982 140.003 84.6233C140.822 83.0484 141.624 81.4286 142.8 80.0863C143.976 78.744 145.601 77.6791 147.42 77.5771C149.239 77.4751 151.133 78.5604 151.586 80.274C152.04 81.9876 151.011 83.7379 149.906 85.1292C148.24 87.1944 146.275 89.0151 144.073 90.5352C143.643 90.7632 143.3 91.1194 143.094 91.5511C142.821 92.3671 143.615 93.1831 144.442 93.4402C145.379 93.7421 146.395 93.6482 147.382 93.7625C148.369 93.8767 149.419 94.2929 149.793 95.1905C150.305 96.439 149.23 97.7446 148.176 98.6014C146.059 100.315 143.656 101.663 141.07 102.588C140.146 102.914 139.175 103.204 138.428 103.832C137.68 104.46 137.235 105.558 137.684 106.419C138.134 107.28 139.289 107.553 140.259 107.377C141.229 107.202 142.09 106.696 143.014 106.357C144.74 105.725 146.966 105.839 148.054 107.288C148.391 107.787 148.605 108.355 148.677 108.947C148.75 109.54 148.681 110.141 148.474 110.703C148.054 111.821 147.407 112.846 146.572 113.718C143.821 116.91 140.247 119.336 136.214 120.748C132.212 122.094 128.503 122.461 124.526 121.045" fill="#2B9842"/>
<path d="M149.738 78.5849C149.738 78.5849 149.701 78.6257 149.617 78.6991L149.243 79.0214C148.915 79.307 148.432 79.7232 147.823 80.274C146.097 81.8314 144.493 83.513 143.027 85.3046C142.09 86.4348 141.12 87.7159 140.087 89.1072C139.054 90.4985 137.987 91.9999 136.928 93.5952C135.8 95.2775 134.767 97.0181 133.833 98.8094C133.346 99.7438 132.917 100.719 132.476 101.714L131.174 104.754C129.458 108.583 127.963 112.502 126.697 116.492C125.677 119.757 124.974 123.108 124.597 126.5C124.353 128.79 124.314 131.096 124.48 133.392C124.547 134.208 124.61 134.832 124.669 135.256C124.694 135.46 124.711 135.623 124.727 135.742V135.909C124.709 135.856 124.697 135.801 124.69 135.746C124.669 135.627 124.643 135.468 124.61 135.264C124.534 134.856 124.454 134.212 124.379 133.396C124.176 131.095 124.19 128.782 124.421 126.484C124.774 123.077 125.462 119.711 126.475 116.431C127.73 112.429 129.221 108.5 130.939 104.664L132.275 101.637C132.716 100.645 133.148 99.6622 133.64 98.7238C134.58 96.927 135.622 95.1822 136.76 93.4973C137.836 91.8653 138.919 90.3883 139.94 89.0093C140.96 87.6302 141.947 86.341 142.88 85.2149C144.361 83.428 145.986 81.7581 147.739 80.221C148.361 79.6783 148.856 79.2703 149.192 78.997L149.583 78.691C149.631 78.6505 149.683 78.6149 149.738 78.5849Z" fill="#263238"/>
<path d="M133.694 98.7156C133.635 98.5475 133.594 98.3739 133.573 98.1975C133.505 97.8588 133.43 97.3814 133.342 96.7613C133.161 95.5373 132.976 93.8604 132.779 92.004C132.581 90.1476 132.359 88.4666 132.174 87.2549C132.077 86.651 131.993 86.1655 131.935 85.8269C131.889 85.6536 131.865 85.4754 131.863 85.2965C131.936 85.4599 131.988 85.6311 132.019 85.8065C132.111 86.141 132.216 86.6225 132.334 87.2304C132.573 88.4544 132.808 90.119 133.006 91.9795C133.203 93.84 133.371 95.472 133.501 96.7409C133.564 97.3121 133.619 97.7976 133.661 98.1852C133.693 98.3601 133.705 98.5381 133.694 98.7156Z" fill="#263238"/>
<path d="M149.856 95.7862C149.652 95.8294 149.443 95.854 149.234 95.8596C148.814 95.8963 148.218 95.9453 147.479 96.0269C146 96.1819 143.968 96.4675 141.737 96.8755C139.507 97.2835 137.504 97.7446 136.063 98.0995C135.345 98.279 134.765 98.4423 134.383 98.5524C134.179 98.6228 133.968 98.6721 133.753 98.6993C133.947 98.6045 134.15 98.5267 134.358 98.4667C134.753 98.3321 135.324 98.1444 136.038 97.9445C137.47 97.5365 139.474 97.051 141.712 96.6348C143.609 96.2826 145.522 96.0238 147.445 95.8596C148.189 95.7984 148.789 95.7739 149.209 95.7658C149.425 95.7515 149.642 95.7584 149.856 95.7862Z" fill="#263238"/>
<path d="M126.68 116.145C126.636 116.086 126.599 116.022 126.571 115.954L126.294 115.386C126.055 114.893 125.731 114.162 125.345 113.269C124.564 111.474 123.568 108.96 122.51 106.17C121.451 103.379 120.477 100.866 119.738 99.0502C119.377 98.1689 119.078 97.4467 118.856 96.9082L118.621 96.3247C118.588 96.2574 118.565 96.186 118.553 96.1126C118.598 96.1716 118.635 96.2361 118.663 96.3043L118.94 96.8715C119.175 97.3651 119.503 98.0955 119.889 98.989C120.67 100.784 121.666 103.297 122.724 106.088C123.782 108.879 124.757 111.392 125.496 113.208C125.857 114.089 126.155 114.811 126.374 115.35C126.47 115.582 126.55 115.758 126.613 115.933C126.646 116 126.668 116.072 126.68 116.145Z" fill="#263238"/>
<path d="M148.134 109.426C148.067 109.463 147.995 109.492 147.92 109.511L147.298 109.715L145.001 110.437C143.06 111.049 140.381 111.923 137.441 112.885C134.501 113.848 131.809 114.705 129.856 115.276C128.881 115.566 128.087 115.786 127.537 115.933L126.903 116.092C126.829 116.115 126.753 116.13 126.676 116.137C126.743 116.1 126.815 116.071 126.89 116.052L127.512 115.848L129.809 115.125C131.75 114.513 134.429 113.64 137.369 112.677C140.309 111.714 142.997 110.858 144.95 110.286C145.929 109.997 146.719 109.776 147.273 109.63L147.907 109.47C147.981 109.448 148.057 109.433 148.134 109.426Z" fill="#263238"/>
<path d="M130.454 108.659L128.291 109.41L127.363 106.664C125.657 101.601 120.223 98.9124 115.229 100.622C110.235 102.331 107.576 107.884 109.282 112.948L110.21 115.693L108.038 116.448C107.21 116.76 106.538 117.37 106.161 118.151C105.784 118.932 105.731 119.825 106.014 120.642L112.033 138.509C112.157 138.914 112.365 139.29 112.643 139.615C112.92 139.941 113.262 140.209 113.649 140.403C114.035 140.598 114.457 140.715 114.891 140.748C115.325 140.78 115.761 140.728 116.174 140.594L138.589 132.805C139.428 132.494 140.11 131.878 140.491 131.088C140.873 130.298 140.924 129.396 140.635 128.57L134.612 110.704C134.484 110.3 134.273 109.925 133.993 109.602C133.712 109.279 133.368 109.015 132.98 108.824C132.591 108.633 132.168 108.52 131.734 108.492C131.3 108.464 130.865 108.521 130.454 108.659ZM113.368 111.515C112.908 110.199 112.991 108.761 113.598 107.502C114.206 106.243 115.291 105.262 116.627 104.763C117.287 104.544 117.985 104.456 118.681 104.505C119.376 104.553 120.054 104.737 120.675 105.046C121.295 105.355 121.845 105.782 122.292 106.302C122.739 106.822 123.074 107.424 123.276 108.072L124.2 110.818L114.292 114.261L113.368 111.515ZM125.968 127.37L127.505 131.932C127.534 132.023 127.524 132.122 127.48 132.207C127.435 132.292 127.359 132.357 127.266 132.389L125.111 133.135C125.026 133.159 124.934 133.148 124.856 133.107C124.777 133.066 124.719 132.997 124.691 132.915L123.142 128.374C122.287 128.329 121.467 128.031 120.791 127.521C120.116 127.01 119.617 126.312 119.362 125.518C118.996 124.469 119.063 123.323 119.547 122.321C120.032 121.319 120.897 120.537 121.961 120.141C122.487 119.966 123.043 119.896 123.597 119.935C124.151 119.974 124.691 120.121 125.185 120.367C125.679 120.613 126.118 120.953 126.474 121.367C126.83 121.781 127.096 122.26 127.258 122.776C127.528 123.582 127.55 124.447 127.322 125.266C127.094 126.084 126.625 126.819 125.972 127.383L125.968 127.37Z" fill="#2B9842"/>
<path d="M128.194 109.361C128.194 109.418 124.183 110.883 119.194 112.625C114.204 114.367 110.134 115.767 110.113 115.726C110.092 115.685 114.124 114.208 119.118 112.462C124.112 110.716 128.173 109.308 128.194 109.361Z" fill="#263238"/>
<path d="M132.957 110.112C132.975 110.147 132.991 110.184 133.003 110.222C133.037 110.304 133.075 110.41 133.125 110.54C133.234 110.838 133.385 111.25 133.574 111.764L135.187 116.326C135.859 118.26 136.661 120.553 137.552 123.099C137.972 124.376 138.467 125.706 138.929 127.105C139.177 127.826 139.283 128.586 139.244 129.345C139.209 129.74 139.093 130.124 138.904 130.475C138.702 130.825 138.433 131.134 138.11 131.385C137.461 131.845 136.741 132.202 135.977 132.442L133.814 133.197L129.719 134.621L122.785 137.02L118.102 138.619L116.842 139.027L116.506 139.133C116.47 139.149 116.431 139.158 116.392 139.162C116.392 139.162 116.426 139.162 116.497 139.113L116.825 138.986L118.085 138.525L122.743 136.86L129.664 134.412L133.751 132.976L135.914 132.217C136.657 131.987 137.356 131.641 137.984 131.193C138.284 130.961 138.535 130.674 138.724 130.349C138.901 130.024 139.009 129.667 139.039 129.3C139.077 128.569 138.975 127.837 138.736 127.142C138.283 125.755 137.804 124.412 137.371 123.135C136.498 120.585 135.691 118.284 135.053 116.35C134.414 114.416 133.877 112.862 133.507 111.768C133.331 111.234 133.196 110.818 133.087 110.516L132.986 110.189C132.974 110.165 132.964 110.139 132.957 110.112Z" fill="#263238"/>
<path d="M121.13 104.486C121.13 104.486 120.907 104.38 120.496 104.216C119.909 103.997 119.288 103.876 118.66 103.857C117.729 103.826 116.802 103.996 115.947 104.355C114.907 104.802 114.017 105.524 113.381 106.44C112.74 107.353 112.396 108.432 112.394 109.537C112.402 110.442 112.544 111.342 112.814 112.209C113.032 112.952 113.259 113.543 113.41 113.955C113.499 114.165 113.572 114.38 113.629 114.6C113.509 114.404 113.409 114.198 113.33 113.984C113.158 113.576 112.91 112.997 112.667 112.25C112.368 111.374 112.205 110.459 112.184 109.537C112.173 108.39 112.524 107.268 113.192 106.322C113.851 105.373 114.776 104.628 115.859 104.176C116.741 103.815 117.696 103.656 118.652 103.71C119.294 103.742 119.924 103.887 120.512 104.139C120.67 104.209 120.821 104.291 120.966 104.384C121.026 104.409 121.081 104.444 121.13 104.486Z" fill="#263238"/>
<path d="M121.323 120.451C121.39 120.411 121.46 120.377 121.533 120.349C121.743 120.257 121.961 120.181 122.184 120.124C122.538 120.023 122.903 119.963 123.272 119.945C123.773 119.919 124.275 119.992 124.746 120.161C125.821 120.528 126.808 121.593 127.295 123.017C127.529 123.781 127.529 124.595 127.295 125.359C127.036 126.188 126.572 126.943 125.943 127.558L125.968 127.448C126.527 128.937 127.136 130.553 127.766 132.238L127.804 132.34L127.699 132.377L126.737 132.687L124.637 133.368L124.532 133.401L124.498 133.299C123.923 131.61 123.293 130.035 122.818 128.488L122.911 128.558C122.089 128.491 121.307 128.192 120.659 127.697C120.074 127.259 119.594 126.702 119.252 126.065C118.944 125.5 118.791 124.868 118.807 124.229C118.827 123.576 118.994 122.935 119.299 122.352C119.603 121.77 120.036 121.26 120.567 120.859C120.785 120.686 121.031 120.549 121.294 120.451C121.056 120.587 120.826 120.736 120.605 120.895C120.022 121.375 119.575 121.991 119.307 122.687C119.077 123.211 118.97 123.778 118.992 124.347C119.015 124.916 119.167 125.474 119.437 125.979C119.773 126.592 120.241 127.126 120.811 127.546C121.428 128.017 122.174 128.3 122.957 128.362H123.028L123.049 128.423C123.511 129.941 124.145 131.528 124.729 133.225L124.591 133.16L126.691 132.479L127.648 132.164L127.581 132.303C126.955 130.618 126.35 128.998 125.796 127.509V127.448L125.846 127.399C126.457 126.81 126.912 126.086 127.174 125.29C127.396 124.559 127.396 123.781 127.174 123.05C126.716 121.679 125.771 120.638 124.746 120.271C124.292 120.101 123.808 120.022 123.322 120.039C122.959 120.047 122.599 120.095 122.247 120.181C121.621 120.332 121.327 120.471 121.323 120.451Z" fill="#263238"/>
<path d="M117.268 140.054L75.3144 139.866C72.8916 139.854 70.5731 138.907 68.8682 137.235C67.1633 135.562 66.2113 133.301 66.2214 130.948L66.6666 28.7803C66.6715 27.6143 66.913 26.4606 67.3772 25.3853C67.8414 24.3099 68.5192 23.334 69.3718 22.5133C70.2245 21.6926 71.2353 21.0431 72.3465 20.6021C73.4577 20.1611 74.6475 19.9371 75.8478 19.943L117.797 20.1307C120.22 20.1426 122.539 21.0881 124.245 22.7596C125.95 24.4311 126.904 26.6919 126.895 29.0455L126.449 131.209C126.444 132.375 126.203 133.529 125.739 134.605C125.275 135.681 124.597 136.657 123.745 137.479C122.892 138.3 121.881 138.95 120.77 139.392C119.659 139.834 118.469 140.059 117.268 140.054Z" fill="#455A64"/>
<path d="M117.734 23.6436H109.603C109.338 23.6484 109.076 23.7039 108.833 23.807C108.59 23.91 108.37 24.0586 108.186 24.2443C108.002 24.4299 107.857 24.649 107.76 24.889C107.663 25.1289 107.616 25.3851 107.621 25.6428V27.0749C107.626 27.3324 107.578 27.5884 107.481 27.8281C107.385 28.0678 107.24 28.2866 107.056 28.472C106.872 28.6573 106.652 28.8055 106.408 28.9081C106.165 29.0108 105.904 29.0658 105.638 29.07L89.7876 29.0007C89.2514 28.9868 88.7427 28.7667 88.3734 28.3888C88.0041 28.0109 87.8042 27.5061 87.8178 26.9851V25.5531C87.8313 25.0328 87.6321 24.5286 87.2636 24.1508C86.8952 23.773 86.3877 23.5525 85.8522 23.5375H82.992L75.873 23.5049C74.1797 23.4951 72.5514 24.1375 71.3447 25.2914C70.1379 26.4453 69.451 28.0168 69.4344 29.6616L69.0144 129.385C69.0105 130.201 69.1721 131.01 69.49 131.765C69.8079 132.52 70.2758 133.208 70.8671 133.787C71.4583 134.367 72.1613 134.828 72.9359 135.143C73.7105 135.459 74.5416 135.624 75.3816 135.627L117.247 135.815C118.088 135.819 118.921 135.662 119.699 135.353C120.477 135.044 121.185 134.589 121.782 134.014C122.379 133.439 122.854 132.756 123.179 132.003C123.504 131.25 123.674 130.442 123.677 129.626L124.097 29.9023C124.107 28.2528 123.443 26.667 122.25 25.4934C121.056 24.3197 119.432 23.6544 117.734 23.6436Z" fill="white"/>
<path d="M87.1811 52.9585L76.3788 52.9109L76.3698 54.8366L87.1721 54.8842L87.1811 52.9585Z" fill="#2B9842"/>
<path opacity="0.1" d="M87.1811 52.9585L76.3788 52.9109L76.3698 54.8366L87.1721 54.8842L87.1811 52.9585Z" fill="black"/>
<path d="M118.847 64.7822C118.932 64.7739 119.016 64.7547 119.095 64.7251C119.211 64.681 119.313 64.6059 119.387 64.5084C119.461 64.411 119.506 64.2952 119.515 64.1743C119.515 63.5256 119.515 62.579 119.515 61.3632C119.515 60.7553 119.515 60.0739 119.515 59.3232C119.515 59.1396 119.515 58.9478 119.515 58.7561C119.543 58.57 119.501 58.3806 119.398 58.2216C119.34 58.1454 119.265 58.0833 119.178 58.0401C119.091 57.9969 118.995 57.9738 118.898 57.9727H118.243H112.174L77.0448 57.8462C76.9549 57.8448 76.8659 57.8644 76.7855 57.9035C76.7051 57.9425 76.6355 57.9999 76.5828 58.0706C76.4814 58.2302 76.4426 58.42 76.4736 58.6051C76.4736 59.0131 76.4736 59.4211 76.4736 59.8291C76.4736 60.6451 76.4736 61.4611 76.4736 62.2771C76.4736 62.6851 76.4736 63.0931 76.4736 63.5011C76.4562 63.6912 76.4562 63.8823 76.4736 64.0723C76.4957 64.1538 76.5367 64.2293 76.5935 64.2929C76.6503 64.3566 76.7213 64.4067 76.8012 64.4395C76.884 64.4715 76.9726 64.4868 77.0616 64.4844H79.1994L88.5276 64.5334L104.32 64.6272L114.967 64.7088L117.86 64.7414H118.612C118.784 64.7414 118.868 64.7414 118.868 64.7414H118.612H117.86H114.967H104.32L88.5276 64.6925L79.1994 64.6558H77.0616C76.9439 64.6604 76.8266 64.6409 76.7172 64.5986C76.6066 64.5528 76.5083 64.483 76.4296 64.3946C76.351 64.3063 76.2942 64.2016 76.2636 64.0886C76.2393 63.9816 76.2308 63.8717 76.2384 63.7622V63.4603C76.2384 63.0523 76.2384 62.6443 76.2384 62.2363C76.2384 61.4203 76.2384 60.6043 76.2384 59.7883C76.2384 59.3803 76.2384 58.9723 76.2384 58.5643C76.2304 58.4557 76.2304 58.3466 76.2384 58.2379C76.2541 58.1179 76.3019 58.004 76.377 57.9074C76.4495 57.809 76.5453 57.729 76.6565 57.6743C76.7677 57.6196 76.8908 57.5918 77.0154 57.5933L112.144 57.781L118.213 57.8218H118.868C118.984 57.8219 119.098 57.849 119.2 57.9008C119.302 57.9527 119.39 58.0277 119.456 58.1196C119.575 58.297 119.623 58.5102 119.591 58.7194C119.591 58.9111 119.591 59.1029 119.591 59.2865C119.591 60.029 119.591 60.7104 119.591 61.3265C119.591 62.5505 119.561 63.4889 119.553 64.1417C119.543 64.2672 119.496 64.3873 119.418 64.4877C119.34 64.5882 119.233 64.6649 119.112 64.7088C119.033 64.7567 118.941 64.7821 118.847 64.7822Z" fill="#E0E0E0"/>
<path d="M99.3804 59.8944H79.6236V61.6937H99.3804V59.8944Z" fill="#2B9842"/>
<path opacity="0.2" d="M99.3804 59.8944H79.6236V61.6937H99.3804V59.8944Z" fill="white"/>
<path d="M87.1074 70.5265L76.3051 70.4788L76.2961 72.4046L87.0984 72.4522L87.1074 70.5265Z" fill="#2B9842"/>
<path opacity="0.1" d="M87.1074 70.5265L76.3051 70.4788L76.2961 72.4046L87.0984 72.4522L87.1074 70.5265Z" fill="black"/>
<path d="M118.574 82.3507C118.659 82.3406 118.743 82.3256 118.826 82.3058C118.944 82.2696 119.052 82.2093 119.143 82.1291C119.234 82.0488 119.307 81.9505 119.356 81.8407C119.422 81.676 119.448 81.4986 119.431 81.3226C119.431 81.1267 119.431 80.9146 119.431 80.6779C119.431 80.2046 119.431 79.6661 119.431 79.0459V76.4551C119.451 76.2676 119.409 76.0787 119.309 75.9166C119.206 75.7503 119.043 75.6268 118.852 75.5698C118.642 75.5335 118.429 75.5225 118.217 75.5371H112.174L77.1666 75.4106C76.9783 75.4111 76.7966 75.4779 76.6552 75.5987C76.5138 75.7196 76.4224 75.8862 76.398 76.0675C76.398 76.4551 76.398 76.8835 76.398 77.2915C76.398 78.1075 76.398 78.9235 76.398 79.7395C76.398 80.1475 76.398 80.5555 76.398 80.9635C76.3823 81.1542 76.3908 81.346 76.4232 81.5347C76.4756 81.7002 76.5836 81.8438 76.7298 81.9427C76.8849 82.0384 77.0672 82.0841 77.2506 82.0733H77.8344H79.0482L88.3428 82.1182L104.08 82.212L114.689 82.2936L117.575 82.3262H114.689H104.08L88.3344 82.3099L79.0398 82.2773H77.2128C76.9856 82.2904 76.7602 82.2317 76.5702 82.11C76.3791 81.9814 76.2396 81.7926 76.1754 81.5755C76.1377 81.3682 76.1265 81.1572 76.1418 80.9472C76.1418 80.5392 76.1418 80.1312 76.1418 79.7232C76.1418 78.9072 76.1418 78.0912 76.1418 77.2752C76.1418 76.8672 76.1418 76.4592 76.1418 76.0512C76.1724 75.8179 76.2896 75.6035 76.4712 75.448C76.6529 75.2925 76.8867 75.2067 77.1288 75.2066L112.136 75.3943L118.18 75.4392C118.405 75.4258 118.631 75.4409 118.852 75.4841C119.07 75.5533 119.254 75.6987 119.368 75.8921C119.477 76.0718 119.524 76.2804 119.503 76.4878C119.503 76.6795 119.503 76.8672 119.503 77.0549C119.503 77.7934 119.503 78.4706 119.503 79.0949C119.503 79.7191 119.503 80.2454 119.503 80.7269C119.503 80.9594 119.503 81.1757 119.503 81.3756C119.518 81.5581 119.488 81.7414 119.414 81.9101C119.36 82.0227 119.281 82.1225 119.183 82.2028C119.085 82.283 118.971 82.3419 118.847 82.3752C118.756 82.3826 118.663 82.3743 118.574 82.3507Z" fill="#E0E0E0"/>
<path d="M87.026 88.8574L76.2238 88.8097L76.2148 90.7355L87.017 90.7831L87.026 88.8574Z" fill="#2B9842"/>
<path opacity="0.1" d="M87.026 88.8574L76.2238 88.8097L76.2148 90.7355L87.017 90.7831L87.026 88.8574Z" fill="black"/>
<path d="M118.49 100.674C118.575 100.664 118.659 100.649 118.742 100.629C118.859 100.593 118.967 100.533 119.058 100.454C119.149 100.374 119.222 100.277 119.272 100.168C119.337 100.003 119.363 99.826 119.347 99.6499C119.347 99.45 119.347 99.2419 119.347 99.0012C119.347 98.532 119.347 97.9894 119.347 97.3692V94.7784C119.367 94.5908 119.325 94.402 119.225 94.2398C119.119 94.0766 118.957 93.9552 118.768 93.8971C118.559 93.8594 118.346 93.8471 118.133 93.8604H112.09L77.0826 93.7339C76.8943 93.7344 76.7126 93.8012 76.5712 93.922C76.4298 94.0428 76.3384 94.2094 76.314 94.3908C76.314 94.7988 76.314 95.2068 76.314 95.6148C76.314 96.4308 76.314 97.2468 76.314 98.0628C76.314 98.4708 76.314 98.8788 76.314 99.2868C76.2983 99.4761 76.3068 99.6666 76.3392 99.8539C76.3895 100.02 76.4979 100.165 76.6458 100.262C76.8 100.36 76.9829 100.406 77.1666 100.392H78.9936L88.2882 100.441L104.026 100.535L114.635 100.617L117.52 100.65H114.635H104.026L88.2882 100.605L78.9936 100.568H77.1666C76.9392 100.583 76.7132 100.524 76.524 100.401C76.3329 100.272 76.1934 100.083 76.1292 99.8662C76.0915 99.6589 76.0803 99.4478 76.0956 99.2378C76.0956 98.8298 76.0956 98.4218 76.0956 98.0138C76.0956 97.1978 76.0956 96.3818 76.0956 95.5658C76.0956 95.1578 76.0956 94.7498 76.0956 94.3214C76.1253 94.0885 76.2415 93.8741 76.4225 93.7186C76.6035 93.563 76.8367 93.4771 77.0784 93.4769L112.085 93.6646L118.129 93.7094C118.354 93.696 118.58 93.7111 118.801 93.7543C119.019 93.8236 119.203 93.9689 119.318 94.1623C119.426 94.342 119.474 94.5506 119.452 94.758C119.452 94.9498 119.452 95.1415 119.452 95.3251C119.452 96.0636 119.452 96.7409 119.452 97.3651C119.452 97.9894 119.452 98.5157 119.452 98.9971C119.452 99.2297 119.452 99.4459 119.452 99.6458C119.468 99.8283 119.438 100.012 119.364 100.18C119.309 100.293 119.231 100.393 119.133 100.473C119.035 100.553 118.92 100.612 118.797 100.645C118.699 100.678 118.593 100.688 118.49 100.674Z" fill="#E0E0E0"/>
<path d="M98.9586 77.9716L79.202 77.8845L79.1936 79.6837L98.9502 79.7708L98.9586 77.9716Z" fill="#2B9842"/>
<path opacity="0.2" d="M98.9586 77.9716L79.202 77.8845L79.1936 79.6837L98.9502 79.7708L98.9586 77.9716Z" fill="white"/>
<path d="M80.9886 97.3447C80.9762 97.5088 80.9145 97.6658 80.8111 97.7962C80.7077 97.9265 80.5672 98.0245 80.407 98.078C80.2468 98.1315 80.074 98.1382 79.9099 98.0972C79.7459 98.0561 79.5979 97.9692 79.4842 97.8472C79.3705 97.7252 79.2962 97.5734 79.2705 97.4108C79.2448 97.2481 79.2688 97.0817 79.3396 96.9322C79.4103 96.7827 79.5247 96.6566 79.6685 96.5697C79.8123 96.4827 79.9792 96.4387 80.1486 96.443C80.3826 96.4557 80.602 96.5575 80.7592 96.7263C80.9165 96.8951 80.9989 97.1173 80.9886 97.3447Z" fill="#2B9842"/>
<path d="M83.664 97.357C83.6723 97.472 83.6561 97.5874 83.6164 97.6961C83.5768 97.8048 83.5146 97.9044 83.4336 97.9887C83.3527 98.0731 83.2547 98.1403 83.1459 98.1863C83.037 98.2323 82.9196 98.256 82.8009 98.256C82.6822 98.256 82.5648 98.2323 82.4559 98.1863C82.3471 98.1403 82.2491 98.0731 82.1682 97.9887C82.0872 97.9044 82.025 97.8048 81.9854 97.6961C81.9457 97.5874 81.9295 97.472 81.9378 97.357C81.9295 97.242 81.9457 97.1265 81.9854 97.0178C82.025 96.9091 82.0872 96.8095 82.1682 96.7252C82.2491 96.6409 82.3471 96.5736 82.4559 96.5277C82.5648 96.4817 82.6822 96.458 82.8009 96.458C82.9196 96.458 83.037 96.4817 83.1459 96.5277C83.2547 96.5736 83.3527 96.6409 83.4336 96.7252C83.5146 96.8095 83.5768 96.9091 83.6164 97.0178C83.6561 97.1265 83.6723 97.242 83.664 97.357Z" fill="#2B9842"/>
<path d="M86.3436 97.3692C86.3312 97.5333 86.2695 97.6903 86.1661 97.8207C86.0627 97.951 85.9222 98.049 85.762 98.1025C85.6018 98.156 85.429 98.1627 85.2649 98.1216C85.1009 98.0806 84.9529 97.9937 84.8392 97.8717C84.7255 97.7497 84.6512 97.5979 84.6255 97.4353C84.5998 97.2726 84.6238 97.1062 84.6946 96.9567C84.7653 96.8072 84.8797 96.6811 85.0235 96.5942C85.1673 96.5072 85.3342 96.4632 85.5036 96.4675C85.7372 96.4812 85.956 96.5833 86.113 96.7519C86.27 96.9204 86.3528 97.1421 86.3436 97.3692Z" fill="#2B9842"/>
<path d="M89.019 97.3814C89.0066 97.5456 88.9449 97.7025 88.8415 97.8329C88.7381 97.9632 88.5976 98.0613 88.4374 98.1148C88.2772 98.1683 88.1044 98.1749 87.9403 98.1339C87.7763 98.0928 87.6283 98.0059 87.5146 97.8839C87.4009 97.7619 87.3266 97.6102 87.3009 97.4475C87.2752 97.2849 87.2992 97.1184 87.37 96.9689C87.4407 96.8194 87.5551 96.6934 87.6989 96.6064C87.8427 96.5194 88.0096 96.4754 88.179 96.4798C88.4126 96.4935 88.6313 96.5955 88.7884 96.7641C88.9454 96.9327 89.0282 97.1543 89.019 97.3814Z" fill="#2B9842"/>
<path d="M91.6944 97.3896C91.6828 97.554 91.6217 97.7114 91.5188 97.8423C91.4159 97.9732 91.2756 98.0719 91.1154 98.126C90.9552 98.1801 90.7822 98.1873 90.6179 98.1467C90.4535 98.1061 90.3051 98.0195 90.191 97.8976C90.0769 97.7757 90.0022 97.6239 89.9762 97.4611C89.9502 97.2983 89.974 97.1317 90.0447 96.9819C90.1154 96.8322 90.2298 96.7059 90.3738 96.6188C90.5177 96.5317 90.6849 96.4876 90.8544 96.492C91.0872 96.5057 91.3054 96.6072 91.4623 96.7749C91.6192 96.9426 91.7025 97.1631 91.6944 97.3896Z" fill="#2B9842"/>
<path d="M94.374 97.4019C94.3625 97.5654 94.3021 97.722 94.2002 97.8526C94.0982 97.9832 93.9592 98.082 93.8002 98.1368C93.6412 98.1916 93.4692 98.2001 93.3053 98.1612C93.1414 98.1222 92.9928 98.0376 92.8778 97.9177C92.7628 97.7978 92.6864 97.6479 92.658 97.4863C92.6295 97.3248 92.6504 97.1587 92.7179 97.0085C92.7854 96.8583 92.8966 96.7305 93.0379 96.6409C93.1791 96.5513 93.3443 96.5038 93.513 96.5043C93.7496 96.5128 93.973 96.612 94.1344 96.7803C94.2958 96.9485 94.3819 97.172 94.374 97.4019Z" fill="#2B9842"/>
<path d="M97.0494 97.4141C97.0577 97.5291 97.0415 97.6446 97.0018 97.7532C96.9622 97.8619 96.9 97.9615 96.819 98.0459C96.7381 98.1302 96.6401 98.1974 96.5313 98.2434C96.4224 98.2894 96.305 98.3131 96.1863 98.3131C96.0676 98.3131 95.9502 98.2894 95.8413 98.2434C95.7325 98.1974 95.6345 98.1302 95.5536 98.0459C95.4726 97.9615 95.4104 97.8619 95.3708 97.7532C95.3311 97.6446 95.3149 97.5291 95.3232 97.4141C95.3149 97.2991 95.3311 97.1836 95.3708 97.0749C95.4104 96.9662 95.4726 96.8666 95.5536 96.7823C95.6345 96.698 95.7325 96.6308 95.8413 96.5848C95.9502 96.5388 96.0676 96.5151 96.1863 96.5151C96.305 96.5151 96.4224 96.5388 96.5313 96.5848C96.6401 96.6308 96.7381 96.698 96.819 96.7823C96.9 96.8666 96.9622 96.9662 97.0018 97.0749C97.0415 97.1836 97.0577 97.2991 97.0494 97.4141Z" fill="#2B9842"/>
<path d="M99.7248 97.4263C99.7133 97.5898 99.6529 97.7465 99.551 97.8771C99.449 98.0077 99.31 98.1065 99.151 98.1613C98.992 98.2161 98.82 98.2246 98.6561 98.1856C98.4922 98.1467 98.3436 98.0621 98.2286 97.9422C98.1136 97.8223 98.0372 97.6723 98.0088 97.5108C97.9803 97.3492 98.0012 97.1831 98.0687 97.0329C98.1362 96.8827 98.2474 96.755 98.3887 96.6654C98.5299 96.5758 98.6951 96.5283 98.8638 96.5287C99.1004 96.5372 99.3238 96.6365 99.4852 96.8047C99.6466 96.973 99.7327 97.1965 99.7248 97.4263Z" fill="#2B9842"/>
<path d="M102.4 97.4386C102.389 97.6029 102.328 97.7604 102.225 97.8913C102.122 98.0222 101.981 98.1209 101.821 98.175C101.661 98.2291 101.488 98.2363 101.324 98.1957C101.159 98.1551 101.011 98.0684 100.897 97.9465C100.783 97.8246 100.708 97.6728 100.682 97.51C100.656 97.3472 100.68 97.1806 100.751 97.0309C100.821 96.8811 100.936 96.7548 101.08 96.6677C101.224 96.5806 101.391 96.5366 101.56 96.541C101.793 96.5547 102.011 96.6562 102.168 96.8238C102.325 96.9915 102.408 97.2121 102.4 97.4386Z" fill="#2B9842"/>
<g opacity="0.2">
<path d="M80.9886 97.3447C80.9762 97.5088 80.9145 97.6658 80.8111 97.7962C80.7077 97.9265 80.5672 98.0245 80.407 98.078C80.2468 98.1315 80.074 98.1382 79.9099 98.0972C79.7459 98.0561 79.5979 97.9692 79.4842 97.8472C79.3705 97.7252 79.2962 97.5734 79.2705 97.4108C79.2448 97.2481 79.2688 97.0817 79.3396 96.9322C79.4103 96.7827 79.5247 96.6566 79.6685 96.5697C79.8123 96.4827 79.9792 96.4387 80.1486 96.443C80.3826 96.4557 80.602 96.5575 80.7592 96.7263C80.9165 96.8951 80.9989 97.1173 80.9886 97.3447Z" fill="white"/>
<path d="M83.664 97.357C83.6722 97.472 83.656 97.5874 83.6164 97.6961C83.5768 97.8048 83.5146 97.9044 83.4336 97.9887C83.3526 98.0731 83.2547 98.1403 83.1458 98.1863C83.037 98.2322 82.9196 98.256 82.8009 98.256C82.6822 98.256 82.5647 98.2322 82.4559 98.1863C82.347 98.1403 82.2491 98.0731 82.1681 97.9887C82.0872 97.9044 82.025 97.8048 81.9853 97.6961C81.9457 97.5874 81.9295 97.472 81.9378 97.357C81.9295 97.242 81.9457 97.1265 81.9853 97.0178C82.025 96.9091 82.0872 96.8095 82.1681 96.7252C82.2491 96.6409 82.347 96.5736 82.4559 96.5277C82.5647 96.4817 82.6822 96.458 82.8009 96.458C82.9196 96.458 83.037 96.4817 83.1458 96.5277C83.2547 96.5736 83.3526 96.6409 83.4336 96.7252C83.5146 96.8095 83.5768 96.9091 83.6164 97.0178C83.656 97.1265 83.6722 97.242 83.664 97.357Z" fill="white"/>
<path d="M86.3436 97.3692C86.3312 97.5333 86.2695 97.6903 86.1661 97.8206C86.0627 97.951 85.9222 98.049 85.762 98.1025C85.6018 98.156 85.429 98.1627 85.2649 98.1216C85.1009 98.0806 84.9529 97.9937 84.8392 97.8717C84.7255 97.7497 84.6512 97.5979 84.6255 97.4353C84.5998 97.2726 84.6238 97.1062 84.6946 96.9567C84.7653 96.8072 84.8797 96.6811 85.0235 96.5942C85.1673 96.5072 85.3342 96.4632 85.5036 96.4675C85.7372 96.4812 85.956 96.5833 86.113 96.7519C86.27 96.9204 86.3528 97.142 86.3436 97.3692Z" fill="white"/>
<path d="M89.019 97.3814C89.0066 97.5456 88.9449 97.7025 88.8415 97.8329C88.7381 97.9632 88.5976 98.0613 88.4374 98.1148C88.2772 98.1683 88.1044 98.1749 87.9403 98.1339C87.7763 98.0928 87.6283 98.0059 87.5146 97.8839C87.4009 97.7619 87.3266 97.6102 87.3009 97.4475C87.2752 97.2849 87.2992 97.1184 87.37 96.9689C87.4407 96.8194 87.5551 96.6934 87.6989 96.6064C87.8427 96.5194 88.0096 96.4754 88.179 96.4798C88.4126 96.4935 88.6313 96.5955 88.7884 96.7641C88.9454 96.9327 89.0282 97.1543 89.019 97.3814Z" fill="white"/>
<path d="M91.6944 97.3896C91.6828 97.554 91.6217 97.7114 91.5188 97.8423C91.4159 97.9733 91.2756 98.0719 91.1154 98.126C90.9552 98.1801 90.7822 98.1873 90.6179 98.1467C90.4535 98.1061 90.3051 98.0195 90.191 97.8976C90.0769 97.7757 90.0022 97.6239 89.9762 97.4611C89.9502 97.2983 89.974 97.1317 90.0447 96.9819C90.1154 96.8322 90.2298 96.7059 90.3738 96.6188C90.5177 96.5317 90.6849 96.4876 90.8544 96.492C91.0872 96.5057 91.3054 96.6072 91.4623 96.7749C91.6192 96.9426 91.7025 97.1631 91.6944 97.3896Z" fill="white"/>
<path d="M94.374 97.4018C94.3625 97.5654 94.3021 97.722 94.2001 97.8526C94.0982 97.9832 93.9592 98.082 93.8002 98.1368C93.6412 98.1916 93.4692 98.2001 93.3053 98.1612C93.1414 98.1222 92.9928 98.0376 92.8778 97.9177C92.7628 97.7978 92.6863 97.6479 92.6579 97.4863C92.6295 97.3248 92.6503 97.1587 92.7178 97.0085C92.7853 96.8583 92.8966 96.7305 93.0378 96.6409C93.1791 96.5513 93.3443 96.5038 93.513 96.5042C93.7495 96.5128 93.973 96.612 94.1344 96.7802C94.2957 96.9485 94.3819 97.172 94.374 97.4018Z" fill="white"/>
<path d="M97.0494 97.4141C97.0576 97.5291 97.0414 97.6446 97.0018 97.7532C96.9622 97.8619 96.9 97.9615 96.819 98.0459C96.738 98.1302 96.6401 98.1974 96.5312 98.2434C96.4224 98.2894 96.305 98.3131 96.1863 98.3131C96.0676 98.3131 95.9501 98.2894 95.8413 98.2434C95.7324 98.1974 95.6345 98.1302 95.5535 98.0459C95.4726 97.9615 95.4104 97.8619 95.3707 97.7532C95.3311 97.6446 95.3149 97.5291 95.3232 97.4141C95.3149 97.2991 95.3311 97.1836 95.3707 97.0749C95.4104 96.9662 95.4726 96.8666 95.5535 96.7823C95.6345 96.698 95.7324 96.6308 95.8413 96.5848C95.9501 96.5388 96.0676 96.5151 96.1863 96.5151C96.305 96.5151 96.4224 96.5388 96.5312 96.5848C96.6401 96.6308 96.738 96.698 96.819 96.7823C96.9 96.8666 96.9622 96.9662 97.0018 97.0749C97.0414 97.1836 97.0576 97.2991 97.0494 97.4141Z" fill="white"/>
<path d="M99.7248 97.4263C99.7133 97.5898 99.6529 97.7465 99.5509 97.8771C99.449 98.0077 99.3099 98.1065 99.151 98.1613C98.992 98.2161 98.8199 98.2246 98.6561 98.1856C98.4922 98.1467 98.3436 98.0621 98.2286 97.9422C98.1136 97.8223 98.0372 97.6723 98.0087 97.5108C97.9803 97.3492 98.0011 97.1831 98.0686 97.0329C98.1361 96.8827 98.2474 96.755 98.3886 96.6654C98.5299 96.5758 98.6951 96.5283 98.8638 96.5287C99.1003 96.5372 99.3238 96.6365 99.4852 96.8047C99.6466 96.973 99.7327 97.1965 99.7248 97.4263Z" fill="white"/>
<path d="M102.4 97.4386C102.389 97.6029 102.328 97.7604 102.225 97.8913C102.122 98.0222 101.981 98.1209 101.821 98.175C101.661 98.2291 101.488 98.2363 101.324 98.1957C101.159 98.1551 101.011 98.0684 100.897 97.9465C100.783 97.8246 100.708 97.6728 100.682 97.51C100.656 97.3472 100.68 97.1806 100.751 97.0309C100.821 96.8811 100.936 96.7548 101.08 96.6677C101.224 96.5806 101.391 96.5366 101.56 96.541C101.793 96.5547 102.011 96.6562 102.168 96.8238C102.325 96.9915 102.408 97.2121 102.4 97.4386Z" fill="white"/>
</g>
<path d="M98.5992 38.5397C98.8909 38.4149 99.1385 38.2095 99.311 37.949C99.4835 37.6886 99.5733 37.3846 99.5694 37.075C99.5802 36.8737 99.5488 36.6723 99.477 36.4832C99.4052 36.2941 99.2945 36.1211 99.1517 35.9749C99.0088 35.8287 98.8368 35.7122 98.6462 35.6327C98.4555 35.5531 98.2502 35.512 98.0427 35.512C97.8352 35.512 97.6298 35.5531 97.4392 35.6327C97.2485 35.7122 97.0765 35.8287 96.9337 35.9749C96.7909 36.1211 96.6802 36.2941 96.6083 36.4832C96.5365 36.6723 96.5051 36.8737 96.516 37.075C96.5096 37.3877 96.5987 37.6953 96.7721 37.9589C96.9456 38.2225 97.1955 38.4303 97.4904 38.556C95.1384 38.8987 95.2434 41.3794 95.2434 41.3794L100.804 41.4039C100.804 41.4039 100.934 38.8783 98.5992 38.5397Z" fill="#2B9842"/>
<path opacity="0.1" d="M98.5992 38.5397C98.8909 38.4149 99.1385 38.2095 99.311 37.949C99.4835 37.6886 99.5733 37.3846 99.5694 37.075C99.5802 36.8737 99.5488 36.6723 99.477 36.4832C99.4052 36.2941 99.2945 36.1211 99.1517 35.9749C99.0088 35.8287 98.8368 35.7122 98.6462 35.6327C98.4555 35.5531 98.2502 35.512 98.0427 35.512C97.8352 35.512 97.6298 35.5531 97.4392 35.6327C97.2485 35.7122 97.0765 35.8287 96.9337 35.9749C96.7909 36.1211 96.6802 36.2941 96.6083 36.4832C96.5365 36.6723 96.5051 36.8737 96.516 37.075C96.5096 37.3877 96.5987 37.6953 96.7721 37.9589C96.9456 38.2225 97.1955 38.4303 97.4904 38.556C95.1384 38.8987 95.2434 41.3794 95.2434 41.3794L100.804 41.4039C100.804 41.4039 100.934 38.8783 98.5992 38.5397Z" fill="black"/>
<path d="M107.635 43.0038L87.8157 42.9164L87.8049 45.2175L107.625 45.3049L107.635 43.0038Z" fill="#2B9842"/>
<path opacity="0.2" d="M107.635 43.0038L87.8157 42.9164L87.8049 45.2175L107.625 45.3049L107.635 43.0038Z" fill="white"/>
<path d="M34.7718 54.929H34.5744L34.0032 54.9698C33.6941 54.9879 33.3867 55.0274 33.0834 55.0882C32.887 55.115 32.6921 55.1517 32.4996 55.1983L31.8486 55.3738C30.7406 55.704 29.6951 56.2069 28.7532 56.863C27.5087 57.7405 26.4695 58.864 25.704 60.1596C25.2541 60.9065 24.896 61.7021 24.6372 62.5301C24.3652 63.43 24.2087 64.3591 24.171 65.2963C24.146 65.7886 24.1544 66.282 24.1962 66.7733C24.1962 67.0222 24.2676 67.271 24.3012 67.524C24.3295 67.779 24.3786 68.0314 24.4482 68.2788C24.8259 69.916 25.5922 71.4448 26.686 72.7433C27.7798 74.0417 29.1709 75.0739 30.7482 75.7574C31.8898 76.236 33.1134 76.503 34.356 76.5449C35.6394 76.6135 36.9241 76.4346 38.136 76.0186L38.5056 75.8839H38.556L38.598 75.9084L43.8942 78.5196L43.7388 78.6502C43.1718 76.9447 42.6258 75.2923 42.0966 73.7052V73.644L42.1428 73.5991C43.4276 72.342 44.3813 70.8025 44.9232 69.1111C45.414 67.5648 45.5572 65.9341 45.3432 64.3294C45.1528 62.9032 44.6808 61.5262 43.953 60.2738C43.3256 59.1981 42.5163 58.2326 41.559 57.4178C40.7692 56.773 39.895 56.2324 38.9592 55.8103C38.2511 55.5137 37.5137 55.2881 36.7584 55.1371L35.9184 55.0025L35.3094 54.9576L34.9398 54.9331H34.8138C34.8557 54.9286 34.8979 54.9286 34.9398 54.9331H35.3136L35.9226 54.9576L36.7626 55.0759C37.5273 55.2158 38.2748 55.4333 38.9928 55.7246C39.9447 56.1417 40.8346 56.681 41.6388 57.3281C42.6137 58.1392 43.4402 59.1049 44.0832 60.1841C44.8317 61.4499 45.3182 62.8455 45.5154 64.2926C45.7472 65.9222 45.6139 67.5811 45.1248 69.156C44.5794 70.8826 43.6109 72.4548 42.3024 73.7378L42.3276 73.6318C42.8568 75.2189 43.407 76.8713 43.9782 78.5726L44.058 78.8215L43.8186 78.7032L38.5224 76.0961H38.6148L38.2368 76.2307C37.0016 76.653 35.6931 76.8359 34.3854 76.7693C33.116 76.7223 31.8668 76.4456 30.702 75.9533C28.4801 75.0289 26.6315 73.4223 25.4394 71.3796C24.8908 70.4362 24.4902 69.4186 24.2508 68.3604C24.1852 68.1066 24.1361 67.8491 24.1038 67.5893C24.0702 67.3322 24.0156 67.0793 24.003 66.8263C23.8893 65.3746 24.0473 63.9149 24.4692 62.5178C24.7345 61.6784 25.1025 60.873 25.5654 60.1188C26.3492 58.8114 27.41 57.6808 28.6776 56.8018C29.635 56.1441 30.698 55.645 31.8234 55.3248L32.4828 55.1616C32.6769 55.1179 32.8731 55.0838 33.0708 55.0596C33.3772 55.0045 33.6875 54.9718 33.999 54.9617L34.5744 54.9413C34.6398 54.9327 34.7058 54.9286 34.7718 54.929Z" fill="#2B9842"/>
<path d="M30.6253 67.2317L31.1601 62.0801L32.4873 62.0945L32.4324 67.1452L30.6253 67.2317Z" fill="#2B9842"/>
<path d="M32.8514 66.8519L33.6284 66.8603L35.2834 69.1714L35.267 70.6768C35.267 70.6768 36.4673 70.7633 36.3459 68.7912C36.2246 66.8192 36.3619 67.3225 36.3619 67.3225C36.3619 67.3225 38.9111 67.3502 39.1236 67.1281C39.336 66.906 39.3746 64.5154 39.4185 63.1816C39.438 62.8602 39.3465 62.5416 39.1584 62.2764C38.9702 62.0111 38.6963 61.8146 38.3801 61.7178C38.2914 61.6929 38.1998 61.6796 38.1075 61.6781C37.4691 61.6712 34.2173 62.1377 34.2173 62.1377L32.8776 62.1232L32.8514 66.8519Z" fill="#2B9842"/>
<path d="M55.2174 169.03V165.542L48.7788 165.497L48.7242 170.772L49.1232 170.801C50.8998 170.911 58.1616 171.074 59.3544 170.715C60.6816 170.316 55.2174 169.03 55.2174 169.03Z" fill="#2B9842"/>
<path d="M59.5056 170.389C59.5056 170.446 57.0948 170.495 54.1254 170.495C51.156 170.495 48.7452 170.446 48.7452 170.389C48.7452 170.332 51.156 170.283 54.1254 170.283C57.0948 170.283 59.5056 170.332 59.5056 170.389Z" fill="#263238"/>
<path d="M55.3308 169.744C55.2762 169.716 55.3308 169.532 55.461 169.336C55.5912 169.141 55.7676 169.059 55.8096 169.1C55.8516 169.141 55.7634 169.296 55.6374 169.463C55.5114 169.63 55.3854 169.773 55.3308 169.744Z" fill="#263238"/>
<path d="M55.7424 169.973C55.6836 169.973 55.713 169.744 55.839 169.528C55.965 169.312 56.133 169.181 56.1792 169.214C56.2254 169.247 56.1498 169.43 56.0322 169.622C55.9146 169.814 55.797 169.993 55.7424 169.973Z" fill="#263238"/>
<path d="M50.6856 170.373C50.6604 170.373 50.5638 170.299 50.4252 170.144C50.256 169.945 50.0675 169.762 49.8624 169.597C49.6606 169.441 49.4203 169.338 49.1652 169.3C48.9678 169.275 48.8418 169.3 48.8292 169.275C48.8166 169.251 48.9384 169.165 49.1694 169.149C49.4742 169.142 49.7716 169.241 50.0094 169.426C50.2321 169.602 50.42 169.817 50.5638 170.058C50.6604 170.238 50.7108 170.356 50.6856 170.373Z" fill="#263238"/>
<path d="M55.3518 169.087C55.3812 169.136 55.272 169.259 55.0872 169.324C54.9024 169.389 54.7386 169.365 54.7302 169.324C54.7218 169.283 54.852 169.198 55.0116 169.14C55.1712 169.083 55.3182 169.039 55.3518 169.087Z" fill="#263238"/>
<path d="M55.251 168.749C55.251 168.81 55.083 168.859 54.8646 168.863C54.6462 168.867 54.474 168.818 54.4782 168.761C54.4824 168.704 54.6546 168.651 54.8646 168.647C55.0746 168.643 55.2426 168.692 55.251 168.749Z" fill="#263238"/>
<path d="M71.0724 169.03V165.542L64.6338 165.497L64.5792 170.719L64.9782 170.748C66.7548 170.858 74.0208 171.074 75.2094 170.715C76.5366 170.316 71.0724 169.03 71.0724 169.03Z" fill="#2B9842"/>
<path d="M75.3606 170.397C75.3606 170.454 72.954 170.503 69.9804 170.503C67.0068 170.503 64.6044 170.454 64.6044 170.397C64.6044 170.34 67.011 170.291 69.9804 170.291C72.9498 170.291 75.3606 170.34 75.3606 170.397Z" fill="#263238"/>
<path d="M71.1858 169.744C71.1354 169.716 71.1858 169.532 71.316 169.336C71.4462 169.141 71.6226 169.059 71.6646 169.1C71.7066 169.141 71.6184 169.296 71.4924 169.463C71.3664 169.63 71.2404 169.773 71.1858 169.744Z" fill="#263238"/>
<path d="M71.5974 169.973C71.5428 169.973 71.568 169.744 71.6982 169.528C71.8284 169.312 71.9922 169.181 72.0384 169.214C72.0846 169.247 72.0048 169.43 71.8872 169.622C71.7696 169.814 71.6562 169.993 71.5974 169.973Z" fill="#263238"/>
<path d="M66.5406 170.373C66.5154 170.373 66.423 170.299 66.2802 170.144C66.111 169.945 65.9225 169.762 65.7174 169.597C65.5156 169.441 65.2753 169.338 65.0202 169.3C64.827 169.275 64.6968 169.3 64.6842 169.275C64.6716 169.251 64.7934 169.165 65.0244 169.149C65.3292 169.142 65.6266 169.241 65.8644 169.426C66.0883 169.601 66.2763 169.816 66.4188 170.058C66.5154 170.238 66.5658 170.356 66.5406 170.373Z" fill="#263238"/>
<path d="M71.2068 169.087C71.2362 169.136 71.127 169.259 70.9422 169.324C70.7574 169.389 70.5936 169.365 70.5852 169.324C70.5768 169.283 70.707 169.198 70.8666 169.14C71.0262 169.083 71.1732 169.039 71.2068 169.087Z" fill="#263238"/>
<path d="M71.1144 168.749C71.1144 168.81 70.9464 168.859 70.728 168.863C70.5096 168.867 70.3416 168.818 70.3458 168.761C70.35 168.704 70.518 168.651 70.728 168.647C70.938 168.643 71.1144 168.692 71.1144 168.749Z" fill="#263238"/>
<path d="M94.794 65.4391C94.626 65.2719 94.2102 65.3534 94.2102 65.3534C94.2519 65.1185 94.2519 64.8784 94.2102 64.6435C94.1346 64.4151 93.6054 64.4599 93.6054 64.4599C93.581 64.2675 93.581 64.073 93.6054 63.8806C93.6096 63.8379 93.6002 63.7951 93.5784 63.7578C93.5566 63.7206 93.5235 63.6908 93.4836 63.6725C93.2332 63.5733 92.9643 63.5261 92.694 63.5338C92.3706 63.3094 93.681 61.5264 94.1682 60.9552C94.6554 60.384 94.5672 59.9393 94.1346 59.9393C93.8364 59.9393 92.3076 61.6529 91.8372 62.2282C91.3668 62.8035 90.1194 64.4028 90.0774 63.1258C90.0354 61.8487 89.5062 60.8859 89.1744 60.7227C88.8426 60.5595 88.4898 60.943 88.6704 61.2979C88.829 61.7012 88.928 62.1243 88.9644 62.5546C89.01 62.8973 88.9944 63.2451 88.9182 63.5827C88.7789 64.2109 88.5894 64.8275 88.3512 65.4269H88.3176C88.3176 65.4269 79.1532 73.9663 78.4896 74.5743C77.8974 75.121 65.9862 73.9255 63.5964 73.6807C62.7843 73.5653 61.9643 73.5107 61.1436 73.5175C60.1062 73.5624 59.9214 73.7052 58.8882 73.7174C56.2789 73.7456 53.6757 73.9679 51.1014 74.3825C49.9357 74.575 48.8469 75.0748 47.9537 75.8274C47.0605 76.58 46.3972 77.5564 46.0362 78.6502C43.6296 85.9534 38.178 103.24 37.2162 112.951C36.4894 114.231 35.8333 115.548 35.2506 116.896C34.5744 118.683 34.7382 118.744 34.965 118.785C35.5782 118.895 36.2754 115.688 36.5358 116.464C36.7962 117.239 35.2128 120.287 35.8554 120.376C36.6954 120.491 37.3632 117.112 37.443 116.843C37.5228 116.574 37.9386 116.659 37.863 116.912C37.7412 117.271 36.561 121.078 37.3842 121.2C37.8378 121.266 37.8882 120.462 37.8882 120.462C37.8882 120.462 38.7282 116.819 39.1104 116.892C39.4926 116.965 39.0852 119.116 38.892 119.834C38.6988 120.552 38.9676 120.915 39.3624 120.739C39.6312 120.617 40.2738 118.434 40.4502 117.724C40.6266 117.014 41.0676 115.048 41.6598 116.186C42.252 117.324 43.1508 117.985 43.5204 118.002C43.6037 117.992 43.6822 117.959 43.7458 117.906C43.8094 117.853 43.8552 117.783 43.8774 117.704C43.8995 117.626 43.8969 117.542 43.87 117.465C43.843 117.388 43.793 117.321 43.7262 117.271C43.4083 116.97 43.1354 116.627 42.9156 116.251C42.7196 115.959 42.5775 115.636 42.4956 115.297C42.3263 114.62 42.2278 113.928 42.2016 113.232L42.1344 112.824C43.0752 108.3 45.7842 95.0191 49.6944 86.5368L51.2988 89.7437L51.996 92.1182L47.7204 102.371L65.9568 102.139L63.2352 91.9632L66.5406 81.3552C70.1148 81.4327 79.2918 81.5633 80.8206 80.8901C82.7442 80.0741 92.694 67.8667 92.694 67.8667C93.3426 67.3772 93.9636 66.8542 94.5546 66.3C94.5546 66.3 95.1594 65.8063 94.794 65.4391Z" fill="#FFBE9D"/>
<path d="M46.9182 94.7947C47.4474 93.0403 50.1648 84.3663 50.1648 84.3663C50.1648 84.3663 51.5004 91.4369 51.1476 92.2896C50.8231 93.0196 50.4397 93.7236 50.001 94.3949C46.9182 98.9523 47.3214 101.233 47.3214 101.233L65.9484 100.682C65.9904 98.1526 64.449 92.2692 64.1298 91.3308C63.8106 90.3924 64.8732 87.3202 64.8732 87.3202C64.8732 87.3202 66.9732 85.2435 66.8976 84.1745C66.8577 83.2143 66.7355 82.259 66.5322 81.3185L77.8722 81.7265L77.5152 74.2601L61.2276 72.677C60.6606 74.2315 55.5324 73.4686 55.5324 73.4686C49.9968 73.6481 49.6524 74.6355 47.3508 76.3735C45.0492 78.1116 41.2398 93.0281 41.2398 93.0281L46.9182 94.7947Z" fill="#2B9842"/>
<path d="M57.9306 93.0281C57.6078 93.0841 57.279 93.1006 56.952 93.077C56.343 93.077 55.5072 93.0362 54.5874 92.9465C53.6676 92.8567 52.836 92.7302 52.2438 92.616C51.9172 92.5752 51.5971 92.4957 51.2904 92.3794C51.6187 92.3795 51.9464 92.4095 52.269 92.4691C52.8654 92.5426 53.6928 92.6446 54.6084 92.7343C55.524 92.8241 56.3556 92.8853 56.9562 92.9261C57.2836 92.9301 57.6098 92.9643 57.9306 93.0281Z" fill="#263238"/>
<path d="M59.2074 91.4899C58.8845 91.6436 58.543 91.7574 58.191 91.8286C56.5153 92.2563 54.7865 92.4554 53.0544 92.4202C52.6959 92.4315 52.3375 92.3986 51.9876 92.3222C52.3413 92.2788 52.6979 92.2611 53.0544 92.2692C53.7138 92.2488 54.621 92.2039 55.6206 92.0897C56.6202 91.9755 57.5106 91.8123 58.1406 91.6817C58.4905 91.5909 58.8472 91.5268 59.2074 91.4899Z" fill="#263238"/>
<path d="M65.4738 84.6274C65.4653 84.9384 65.4216 85.2477 65.3436 85.5495C65.2344 86.1166 65.0664 86.8918 64.8522 87.7404C64.638 88.5891 64.4322 89.3724 64.2474 89.9028C64.1731 90.2064 64.0631 90.5007 63.9198 90.78C63.9432 90.4699 64.0023 90.1634 64.0962 89.8661C64.2558 89.2296 64.4364 88.4952 64.638 87.6915C64.8396 86.8877 65.0328 86.1533 65.1924 85.5168C65.2492 85.2105 65.3437 84.9119 65.4738 84.6274Z" fill="#263238"/>
<path d="M47.1156 93.7543C46.1439 93.6086 45.185 93.3917 44.247 93.1056C43.2885 92.8879 42.3479 92.6015 41.433 92.2488C42.4042 92.3969 43.3629 92.6138 44.3016 92.8975C45.2603 93.1145 46.2009 93.4009 47.1156 93.7543Z" fill="#263238"/>
<path d="M66.7338 81.2287C66.5754 81.2552 66.4134 81.2552 66.255 81.2287C65.8163 81.185 65.3855 81.0849 64.974 80.9309C64.2869 80.6801 63.6614 80.2924 63.1378 79.7929C62.6141 79.2933 62.2038 78.6928 61.9332 78.03C61.6341 77.3009 61.5064 76.5161 61.5594 75.733C61.5781 75.087 61.777 74.4581 62.1348 73.9133C62.3864 73.5463 62.7624 73.2764 63.1974 73.1503C63.3136 73.1192 63.4338 73.1041 63.5544 73.1054C63.6384 73.1054 63.6804 73.1054 63.6804 73.1054C63.6804 73.1054 63.504 73.1055 63.2226 73.2156C62.8235 73.3588 62.485 73.6273 62.2608 73.9786C61.6896 74.8517 61.53 76.447 62.139 77.9362C62.4224 78.6383 62.8662 79.2689 63.4368 79.7803C63.9043 80.1988 64.4429 80.5356 65.0286 80.7759C65.5782 80.9869 66.1501 81.1387 66.7338 81.2287Z" fill="#263238"/>
<path d="M76.524 81.5796C76.4189 80.3285 76.3853 79.0726 76.4232 77.8178C76.3903 76.5641 76.4295 75.3096 76.5408 74.0602C76.6459 75.31 76.6796 76.5644 76.6416 77.8178C76.6769 79.0729 76.6376 80.3289 76.524 81.5796Z" fill="#263238"/>
<path d="M61.1184 73.134C61.1646 72.2242 61.2612 71.196 61.2612 71.196C61.2612 71.196 63.5796 70.9471 63.7182 68.6215C63.8568 66.2959 63.7182 60.9307 63.7182 60.9307L59.5182 58.8418L54.8562 62.4036L55.5744 74.0316L59.85 74.2968C60.1768 74.3056 60.4939 74.1881 60.7316 73.9701C60.9694 73.7522 61.1085 73.4515 61.1184 73.134Z" fill="#FFBE9D"/>
<path d="M61.5342 66.7815C61.5342 66.7815 61.5342 66.8263 61.4964 66.8794C61.4651 66.9178 61.4247 66.9484 61.3786 66.9683C61.3325 66.9882 61.2821 66.9969 61.2318 66.9936C60.963 66.9936 60.7026 66.6917 60.6102 66.3408C60.5663 66.1707 60.5663 65.9927 60.6102 65.8227C60.6188 65.7484 60.6464 65.6774 60.6904 65.6162C60.7344 65.5549 60.7934 65.5053 60.8622 65.4718C60.9187 65.4491 60.9821 65.4491 61.0386 65.4718C61.0805 65.492 61.1144 65.5249 61.1352 65.5656C61.1646 65.635 61.1352 65.6799 61.1352 65.6758C61.1352 65.6717 61.1352 65.635 61.0932 65.5942C61.0712 65.565 61.0389 65.5446 61.0025 65.5371C60.9661 65.5296 60.9281 65.5354 60.8958 65.5534C60.8443 65.5836 60.8015 65.6261 60.7713 65.6767C60.7412 65.7274 60.7248 65.7846 60.7236 65.843C60.6882 65.9948 60.6882 66.1523 60.7236 66.3041C60.8076 66.6223 61.0344 66.8794 61.236 66.9039C61.2754 66.909 61.3155 66.9063 61.3538 66.8958C61.3921 66.8852 61.4278 66.8672 61.4586 66.8427C61.509 66.81 61.5258 66.7774 61.5342 66.7815Z" fill="#EB996E"/>
<path d="M65.1588 59.6741C64.8354 58.6051 63.6636 58.0747 62.5968 57.781C60.9714 57.3322 59.2158 57.1363 57.6282 57.7034C56.0406 58.2706 54.1338 59.2661 54.1338 60.9674C53.1972 60.894 52.6596 61.6896 52.29 62.677C52.0537 63.2785 51.9121 63.9112 51.87 64.5538C51.7524 66.7815 51.1098 69.8578 49.623 71.4898C48.783 72.3996 47.6196 73.0279 47.1408 74.1622C46.7208 75.1455 46.9392 76.3123 46.5486 77.3079C46.2 78.1851 45.4314 78.8093 44.8686 79.5723C44.2952 80.4378 43.9578 81.4307 43.888 82.4577C43.8182 83.4847 44.0183 84.5121 44.4696 85.4434C44.9241 86.3507 45.564 87.1587 46.3503 87.818C47.1367 88.4774 48.053 88.9743 49.0434 89.2786C51.0052 89.8584 53.0973 89.8782 55.0704 89.3357C56.5512 88.9917 57.9326 88.3264 59.1108 87.3895C60.3163 86.4332 61.1443 85.1013 61.4544 83.6196C61.7526 81.955 61.2738 80.2618 60.9168 78.6053C59.7996 73.3707 60.1188 73.0973 61.53 68.238C61.5636 68.1523 61.5804 68.0626 61.6056 67.9769C61.6308 67.8912 61.6434 67.8504 61.6602 67.7851C61.7003 67.593 61.7214 67.3977 61.7232 67.2017C61.5171 67.2762 61.2933 67.2919 61.0783 67.2471C60.8633 67.2023 60.6659 67.0988 60.5094 66.9487C60.3525 66.7888 60.2431 66.5905 60.1928 66.375C60.1425 66.1595 60.1532 65.9348 60.2238 65.7247C60.3229 65.495 60.4705 65.288 60.6572 65.1172C60.8439 64.9464 61.0654 64.8156 61.3074 64.7333C61.7736 64.5456 62.2734 64.4477 62.7312 64.2396C63.7014 63.7908 64.3734 62.8606 64.8312 61.8854C65.2076 61.2096 65.3237 60.4256 65.1588 59.6741Z" fill="#263238"/>
<path d="M61.7022 66.8916C61.7909 67.019 61.8642 67.1559 61.9206 67.2996C62.0466 67.5566 62.2146 67.9198 62.3994 68.34L62.433 68.4175H62.3448L61.9248 68.4542C61.635 68.4542 61.3914 68.5073 61.1058 68.5032C61.0809 68.4978 61.0578 68.4863 61.0388 68.4699C61.0197 68.4535 61.0051 68.4327 60.9966 68.4094C60.9841 68.3723 60.9841 68.3322 60.9966 68.2951C61.0063 68.2401 61.0189 68.1857 61.0344 68.1319L61.11 67.8422C61.1479 67.649 61.2071 67.4602 61.2864 67.2792C61.2785 67.4762 61.249 67.6718 61.1982 67.8627L61.1394 68.1523C61.1184 68.2502 61.0806 68.4012 61.1394 68.389C61.3494 68.389 61.6476 68.3441 61.9248 68.3278L62.3448 68.291L62.2902 68.3808C62.1096 67.9728 61.9584 67.5893 61.8702 67.3241C61.7928 67.1886 61.7362 67.0429 61.7022 66.8916Z" fill="#2B9842"/>
<path d="M47.3214 101.233L65.9484 100.682L74.0544 131.421L72.5634 166.68H62.7144L63.9198 132.172L56.7168 110.772L57.8256 168.047L47.8716 168.19L46.8258 114.354C46.7796 112.857 46.2756 109.483 46.4646 107.998L47.3214 101.233Z" fill="#263238"/>
<path d="M59.1948 111.209C58.8899 111.227 58.5838 111.209 58.2834 111.156C57.7206 111.09 56.952 110.976 56.1078 110.813C55.2636 110.65 54.5076 110.462 53.9616 110.311C53.6697 110.249 53.3874 110.15 53.1216 110.017C53.1216 109.956 54.4908 110.274 56.1708 110.605C57.8508 110.935 59.2032 111.147 59.1948 111.209Z" fill="#455A64"/>
<path d="M72.4626 164.746C72.4626 164.803 70.2324 164.852 67.4814 164.852C64.7304 164.852 62.496 164.803 62.496 164.746C62.496 164.689 64.7262 164.64 67.4814 164.64C70.2366 164.64 72.4626 164.685 72.4626 164.746Z" fill="#455A64"/>
<path d="M57.7374 166.558C57.7374 166.619 55.5702 166.664 52.899 166.664C50.2278 166.664 48.0648 166.619 48.0648 166.558C48.0648 166.497 50.232 166.452 52.899 166.452C55.566 166.452 57.7374 166.501 57.7374 166.558Z" fill="#455A64"/>
<path d="M56.4522 166.411C56.3934 166.411 56.133 153.898 55.8684 138.463C55.6038 123.028 55.4484 110.507 55.503 110.507C55.5576 110.507 55.8264 123.016 56.0868 138.459C56.3472 153.902 56.5152 166.411 56.4522 166.411Z" fill="#455A64"/>
<path d="M71.1396 164.746C71.135 164.691 71.135 164.635 71.1396 164.579V164.089C71.1396 163.649 71.1732 163.016 71.1984 162.213C71.2572 160.581 71.3412 158.21 71.4462 155.305C71.673 149.463 71.9922 141.409 72.3408 132.518C72.3408 132.433 72.3408 132.351 72.3408 132.278V132.306C70.1358 123.738 68.1408 115.962 66.6918 110.335L65.0118 103.681C64.8186 102.902 64.6716 102.294 64.5666 101.869C64.5162 101.67 64.4826 101.514 64.4532 101.396C64.4368 101.343 64.4269 101.288 64.4238 101.233C64.4456 101.284 64.4625 101.338 64.4742 101.392C64.5078 101.506 64.5498 101.661 64.6086 101.857C64.722 102.265 64.8858 102.885 65.0958 103.661C65.5158 105.235 66.108 107.504 66.8472 110.299C68.3088 115.921 70.3248 123.677 72.5592 132.257V132.286C72.5592 132.359 72.5592 132.445 72.5592 132.527C72.1854 141.417 71.8452 149.467 71.5974 155.309C71.4672 158.218 71.358 160.572 71.2824 162.213C71.2404 163.029 71.2068 163.649 71.1858 164.089C71.1858 164.298 71.1606 164.461 71.1564 164.579C71.157 164.635 71.1514 164.691 71.1396 164.746Z" fill="#455A64"/>
<path d="M67.9266 131.56C67.2192 131.786 66.4904 131.943 65.751 132.029C64.8438 132.18 64.071 132.286 63.7224 132.302V132.221C63.8358 132.253 63.8946 132.274 63.8946 132.29C63.8946 132.306 63.8232 132.29 63.7056 132.29H63.4536L63.7056 132.216C64.0332 132.123 64.806 131.968 65.7132 131.808C66.4408 131.655 67.1822 131.572 67.9266 131.56Z" fill="#455A64"/>
<path d="M67.7544 132.731C67.0992 132.76 66.4428 132.731 65.793 132.645C65.1369 132.632 64.4833 132.562 63.84 132.437C65.1525 132.333 66.4738 132.432 67.7544 132.731Z" fill="#455A64"/>
<path opacity="0.2" d="M47.2416 101.882C47.4622 102.157 47.74 102.384 48.057 102.548C48.374 102.711 48.723 102.808 49.0812 102.832C49.8314 102.919 50.5902 102.905 51.3366 102.792C56.1456 102.273 61.2402 101.796 65.9484 100.682C59.8542 101.013 53.4156 100.902 47.3214 101.233L47.2584 101.739" fill="black"/>
<g opacity="0.2">
<path d="M53.5206 110.225L56.9562 123.175L56.7168 110.772L53.5206 110.225Z" fill="black"/>
</g>
<mask id="mask0_199_2" style="mask-type:alpha" maskUnits="userSpaceOnUse" x="87" y="108" width="20" height="20">
<rect x="87" y="108" width="20" height="20" fill="#D9D9D9"/>
</mask>
<g mask="url(#mask0_199_2)">
<path d="M103.667 122.292L102 120.625V116.333H97.7083L96.0417 114.667H99.5V113C99.5 112.306 99.2604 111.715 98.7813 111.229C98.3021 110.743 97.7153 110.5 97.0208 110.5C96.3264 110.5 95.7431 110.74 95.2708 111.219C94.7986 111.698 94.5625 112.292 94.5625 113V113.188L93.0417 111.667C93.3472 110.819 93.8681 110.135 94.6042 109.615C95.3403 109.094 96.1458 108.833 97.0208 108.833C98.1736 108.833 99.1528 109.24 99.9583 110.052C100.764 110.865 101.167 111.847 101.167 113V114.667H102C102.458 114.667 102.851 114.83 103.177 115.156C103.503 115.483 103.667 115.875 103.667 116.333V122.292ZM104.083 127.417L102.792 126.125C102.639 126.194 102.5 126.247 102.375 126.281C102.25 126.316 102.125 126.333 102 126.333H92C91.5417 126.333 91.1493 126.17 90.8229 125.844C90.4965 125.517 90.3333 125.125 90.3333 124.667V116.333C90.3333 115.986 90.434 115.667 90.6354 115.375C90.8368 115.083 91.0972 114.875 91.4167 114.75L87.5833 110.917L88.75 109.75L105.25 126.25L104.083 127.417ZM101.292 124.667L98.2292 121.563C98.0764 121.715 97.8993 121.833 97.6979 121.917C97.4965 122 97.2778 122.042 97.0417 122.042C96.5833 122.042 96.191 121.878 95.8646 121.552C95.5382 121.226 95.375 120.833 95.375 120.375C95.375 120.139 95.4167 119.92 95.5 119.719C95.5833 119.517 95.7014 119.34 95.8542 119.188L92.9583 116.333H92V124.667H101.292Z" fill="#198754"/>
</g>
</svg>
