<svg width="274" height="209" viewBox="0 0 274 209" fill="none" xmlns="http://www.w3.org/2000/svg">
<path d="M4.74011 34.74C1.83011 29.13 0.610107 25.11 0.610107 24.18C0.610107 22.34 4.61011 21.24 4.61011 21.24C10.8501 17.94 40.2001 22.71 53.4101 24.91C60.805 26.1992 68.2858 26.9346 75.7901 27.11C75.7901 27.11 77.6201 25.65 79.7901 23.81C81.9601 21.97 92.2601 9.87003 96.3001 8.81003C100.34 7.75003 104 10.28 104 10.28C104 10.28 110.61 14.28 109.5 15.05C108.39 15.82 92.2601 29.72 88.2201 32.29C84.1801 34.86 75.7501 33.76 68.4101 35.23C62.0901 36.49 36.4901 38.05 30.6201 38.53C26.2117 39.5756 21.5849 39.1904 17.4101 37.43" fill="white"/>
<mask id="mask0_2338_265" style="mask-type:luminance" maskUnits="userSpaceOnUse" x="0" y="8" width="110" height="32">
<path d="M4.74011 34.74C1.83011 29.13 0.610107 25.11 0.610107 24.18C0.610107 22.34 4.61011 21.24 4.61011 21.24C10.8501 17.94 40.2001 22.71 53.4101 24.91C60.805 26.1992 68.2858 26.9346 75.7901 27.11C75.7901 27.11 77.6201 25.65 79.7901 23.81C81.9601 21.97 92.2601 9.87003 96.3001 8.81003C100.34 7.75003 104 10.28 104 10.28C104 10.28 110.61 14.28 109.5 15.05C108.39 15.82 92.2601 29.72 88.2201 32.29C84.1801 34.86 75.7501 33.76 68.4101 35.23C62.0901 36.49 36.4901 38.05 30.6201 38.53C26.2117 39.5756 21.5849 39.1904 17.4101 37.43" fill="white"/>
</mask>
<g mask="url(#mask0_2338_265)">
<path d="M104.07 10.2401C104.07 10.2401 100.4 7.67005 96.3702 8.77005C92.3402 9.87005 82.0602 21.9801 79.8602 23.7701C77.6602 25.5601 75.8602 27.0701 75.8602 27.0701C68.3558 26.8946 60.875 26.1592 53.4802 24.87C40.2702 22.67 10.9202 17.87 4.68018 21.2C4.68018 21.2 0.680176 22.3 0.680176 24.14C0.819128 25.1687 1.08447 26.1763 1.47018 27.14L2.02019 27.34C2.02019 27.34 9.35018 26.57 25.1702 26.95C40.9902 27.33 77.5802 29.5001 79.9302 30.3501C80.9302 30.7301 88.0202 29.1301 95.8802 26.3501C101.88 21.4601 108.93 15.35 109.64 14.92C110.68 14.27 104.07 10.2401 104.07 10.2401Z" fill="#B0BEC5"/>
<path opacity="0.5" d="M104.07 10.2401C104.07 10.2401 100.4 7.67005 96.3702 8.77005C92.3402 9.87005 82.0602 21.9801 79.8602 23.7701C77.6602 25.5601 75.8602 27.0701 75.8602 27.0701C68.3558 26.8946 60.875 26.1592 53.4802 24.87C40.2702 22.67 10.9202 17.87 4.68018 21.2C4.68018 21.2 0.680176 22.3 0.680176 24.14C0.819128 25.1687 1.08447 26.1763 1.47018 27.14L2.02019 27.34C2.02019 27.34 9.35018 26.57 25.1702 26.95C40.9902 27.33 77.5802 29.5001 79.9302 30.3501C80.9302 30.7301 88.0202 29.1301 95.8802 26.3501C101.88 21.4601 108.93 15.35 109.64 14.92C110.68 14.27 104.07 10.2401 104.07 10.2401Z" fill="white"/>
</g>
<path d="M4.74011 34.74C1.83011 29.13 0.610107 25.11 0.610107 24.18C0.610107 22.34 4.61011 21.24 4.61011 21.24C10.8501 17.94 40.2001 22.71 53.4101 24.91C60.805 26.1992 68.2858 26.9346 75.7901 27.11C75.7901 27.11 77.6201 25.65 79.7901 23.81C81.9601 21.97 92.2601 9.87003 96.3001 8.81003C100.34 7.75003 104 10.28 104 10.28C104 10.28 110.61 14.28 109.5 15.05C108.39 15.82 92.2601 29.72 88.2201 32.29C84.1801 34.86 75.7501 33.76 68.4101 35.23C62.0901 36.49 36.4901 38.05 30.6201 38.53C26.2117 39.5756 21.5849 39.1904 17.4101 37.43" stroke="#263238" stroke-linecap="round" stroke-linejoin="round"/>
<path d="M149.65 67.36C150.314 66.1001 151.309 65.0457 152.529 64.3107C153.749 63.5757 155.146 63.1882 156.57 63.19H223.27C223.27 63.19 228.09 63.19 226.65 72.35C225.21 81.51 205.43 137.44 200.65 154.35C195.87 171.26 194.86 206.9 194.86 206.9H114.86C114.86 206.9 121.2 121.67 149.65 67.36Z" fill="white"/>
<mask id="mask1_2338_265" style="mask-type:luminance" maskUnits="userSpaceOnUse" x="114" y="63" width="113" height="144">
<path d="M149.65 67.36C150.314 66.1001 151.309 65.0457 152.529 64.3107C153.749 63.5757 155.146 63.1882 156.57 63.19H223.27C223.27 63.19 228.09 63.19 226.65 72.35C225.21 81.51 205.43 137.44 200.65 154.35C195.87 171.26 194.86 206.9 194.86 206.9H114.86C114.86 206.9 121.2 121.67 149.65 67.36Z" fill="white"/>
</mask>
<g mask="url(#mask1_2338_265)">
<path opacity="0.16" d="M179.69 63.19H156.57C155.146 63.1882 153.749 63.5757 152.529 64.3107C151.309 65.0457 150.314 66.1001 149.65 67.36C121.2 121.67 114.79 206.87 114.79 206.87H150.67L159.52 173.26L196.42 180.87C196.68 178.05 196.98 175.18 197.33 172.35L196.52 163.35C196.52 163.35 188.96 155.4 186.58 153.41C184.2 151.42 185.78 147.83 185.38 132.32C184.98 116.81 171.06 105.66 165.88 96.11C160.7 86.56 168.67 80.59 175.83 71.04C178.38 67.59 179.42 65.05 179.69 63.19Z" fill="black"/>
</g>
<path d="M149.65 67.36C150.314 66.1001 151.309 65.0457 152.529 64.3107C153.749 63.5757 155.146 63.1882 156.57 63.19H223.27C223.27 63.19 228.09 63.19 226.65 72.35C225.21 81.51 205.43 137.44 200.65 154.35C195.87 171.26 194.86 206.9 194.86 206.9H114.86C114.86 206.9 121.2 121.67 149.65 67.36Z" stroke="#263238" stroke-linecap="round" stroke-linejoin="round"/>
<path d="M211.7 79.1C204.96 94.83 190.7 157.1 188.38 206.87H194.82C194.82 206.87 195.82 171.19 200.61 154.32C205.4 137.45 225.2 81.51 226.61 72.32C228.02 63.13 223.23 63.16 223.23 63.16C223.23 63.16 217.11 66.49 211.7 79.1Z" fill="#263238" stroke="#263238" stroke-linecap="round" stroke-linejoin="round"/>
<path d="M94.5301 47.66C94.5301 47.66 83.8901 41.42 79.8601 30.42C75.8301 19.42 111.41 1.80001 126.86 0.700005C142.31 -0.399995 146.67 3.63001 155.86 19.41C165.05 35.19 171.27 56.83 166.5 67.47C161.73 78.11 153.66 80.68 159.5 89.47C165.34 98.26 181.88 123.22 180.78 134.96C179.68 146.7 168.31 156.96 151.78 158.08C135.25 159.2 113.25 149.27 94.9101 133.08C76.5701 116.89 81.3301 93.08 87.9101 85.38C94.4901 77.68 104.42 74.74 105.15 67.04C105.88 59.34 94.5301 47.66 94.5301 47.66Z" fill="#263238" stroke="#263238" stroke-linecap="round" stroke-linejoin="round"/>
<path d="M139.88 30.25C145.53 40.77 152.6 54.86 154.81 63.37C158.67 78.27 138.81 87.65 144.32 94.82" stroke="white" stroke-linecap="round" stroke-linejoin="round"/>
<path d="M132.18 16.47C132.18 16.47 134.38 20.22 137.42 25.74" stroke="white" stroke-linecap="round" stroke-linejoin="round"/>
<path d="M161.82 42.94C162.472 44.9117 162.895 46.9517 163.08 49.02" stroke="white" stroke-linecap="round" stroke-linejoin="round"/>
<path d="M136 11C136 11 153.38 23.84 160.32 39.21" stroke="white" stroke-linecap="round" stroke-linejoin="round"/>
<path d="M111.88 20.63C99.4701 24.11 81.6201 29.76 83.0701 33.02" stroke="white" stroke-linecap="round" stroke-linejoin="round"/>
<path d="M123.35 17.57C123.35 17.57 120.7 18.23 116.75 19.29" stroke="white" stroke-linecap="round" stroke-linejoin="round"/>
<path d="M108 11.09C115.109 8.84971 122.554 7.8683 130 8.19003" stroke="white" stroke-linecap="round" stroke-linejoin="round"/>
<path d="M102.94 13.16C104.064 12.5744 105.227 12.0665 106.42 11.64" stroke="white" stroke-linecap="round" stroke-linejoin="round"/>
<path d="M4.7401 34.74C3.05585 31.6558 1.71452 28.3963 0.740101 25.02C1.70983 28.398 3.05137 31.6579 4.7401 34.74ZM0.6301 24.45C0.6301 24.51 0.6301 24.58 0.6301 24.67C0.6501 24.58 0.6401 24.51 0.6301 24.45ZM4.7401 34.73C8.48007 41.8138 13.1331 48.3765 18.5801 54.25C31.7901 68.56 69.9501 105.99 73.5801 108.56C77.2101 111.13 76.1501 118.46 73.5801 125.8C71.0101 133.14 61.4701 143.8 61.8401 155.52C62.2101 167.24 65.8401 185.24 65.5101 188.91C65.1801 192.58 56.0001 205.06 56.0001 205.06H150.66C150.66 205.06 138.86 190.06 138.86 184.93C138.86 179.8 155.06 114.07 155.79 109.3C156.52 104.53 153.59 101.23 147.72 100.86C141.85 100.49 119.47 95.72 118.37 92.05C117.27 88.38 124.24 74.44 124.24 74.44L102.24 75.54C102.24 75.54 101.14 85.08 99.6701 86.92C98.2001 88.76 96.0001 85.08 90.8601 82.52C85.7201 79.96 75.8601 77.75 72.1501 74.81C68.4401 71.87 33.2601 38.81 33.2601 38.81" fill="white"/>
<mask id="mask2_2338_265" style="mask-type:luminance" maskUnits="userSpaceOnUse" x="0" y="24" width="156" height="182">
<path d="M4.7401 34.74C3.05585 31.6558 1.71452 28.3963 0.740101 25.02C1.70983 28.398 3.05137 31.6579 4.7401 34.74ZM0.6301 24.45C0.6301 24.51 0.6301 24.58 0.6301 24.67C0.6501 24.58 0.6401 24.51 0.6301 24.45ZM4.7401 34.73C8.48007 41.8138 13.1331 48.3765 18.5801 54.25C31.7901 68.56 69.9501 105.99 73.5801 108.56C77.2101 111.13 76.1501 118.46 73.5801 125.8C71.0101 133.14 61.4701 143.8 61.8401 155.52C62.2101 167.24 65.8401 185.24 65.5101 188.91C65.1801 192.58 56.0001 205.06 56.0001 205.06H150.66C150.66 205.06 138.86 190.06 138.86 184.93C138.86 179.8 155.06 114.07 155.79 109.3C156.52 104.53 153.59 101.23 147.72 100.86C141.85 100.49 119.47 95.72 118.37 92.05C117.27 88.38 124.24 74.44 124.24 74.44L102.24 75.54C102.24 75.54 101.14 85.08 99.6701 86.92C98.2001 88.76 96.0001 85.08 90.8601 82.52C85.7201 79.96 75.8601 77.75 72.1501 74.81C68.4401 71.87 33.2601 38.81 33.2601 38.81" fill="white"/>
</mask>
<g mask="url(#mask2_2338_265)">
<path d="M77.7703 77.64C79.6003 80.84 81.4303 83.73 81.4303 83.73C81.4303 83.73 87.6003 87.2 89.1403 87.2C90.6803 87.2 99.9403 92.2 99.9403 92.2C99.9403 92.2 107.66 90.27 104.94 83.71C104.082 82.0306 102.999 80.4763 101.72 79.09C101.26 82 100.52 85.81 99.6503 86.9C98.1803 88.73 95.9803 85.06 90.8403 82.5C87.5103 80.84 82.1203 79.32 77.7703 77.64Z" fill="#B0BEC5"/>
<path d="M58.9302 62.79C47.6002 52.3 33.2602 38.85 33.2602 38.85L24.9202 37.65L23.9202 38.21C23.9202 38.21 47.4602 59.04 52.4702 61.36C54.497 62.2916 56.6995 62.7792 58.9302 62.79Z" fill="#B0BEC5"/>
<path d="M70.8002 73.65L69.9001 72.85C70.3601 73.61 70.6201 74.09 70.6201 74.09L70.8002 73.65Z" fill="#B0BEC5"/>
<g opacity="0.5">
<path d="M77.7703 77.64C79.6003 80.84 81.4303 83.73 81.4303 83.73C81.4303 83.73 87.6003 87.2 89.1403 87.2C90.6803 87.2 99.9403 92.2 99.9403 92.2C99.9403 92.2 107.66 90.27 104.94 83.71C104.082 82.0306 102.999 80.4763 101.72 79.09C101.26 82 100.52 85.81 99.6503 86.9C98.1803 88.73 95.9803 85.06 90.8403 82.5C87.5103 80.84 82.1203 79.32 77.7703 77.64Z" fill="white"/>
<path d="M58.9302 62.79C47.6002 52.3 33.2602 38.85 33.2602 38.85L24.9202 37.65L23.9202 38.21C23.9202 38.21 47.4602 59.04 52.4702 61.36C54.497 62.2916 56.6995 62.7792 58.9302 62.79Z" fill="white"/>
<path d="M70.8002 73.65L69.9001 72.85C70.3601 73.61 70.6201 74.09 70.6201 74.09L70.8002 73.65Z" fill="white"/>
</g>
</g>
<path d="M0.610096 24.18C0.605554 24.2499 0.605554 24.3201 0.610096 24.39M0.740101 25.02C1.71452 28.3963 3.05585 31.6558 4.7401 34.74C3.05137 31.6579 1.70983 28.398 0.740101 25.02ZM0.740101 25.02C0.712506 24.9251 0.692431 24.8281 0.680088 24.73M4.7401 34.73C8.48007 41.8138 13.1331 48.3765 18.5801 54.25C31.7901 68.56 69.9501 105.99 73.5801 108.56C77.2101 111.13 76.1501 118.46 73.5801 125.8C71.0101 133.14 61.4701 143.8 61.8401 155.52C62.2101 167.24 65.8401 185.24 65.5101 188.91C65.1801 192.58 56.0001 205.06 56.0001 205.06H150.66C150.66 205.06 138.86 190.06 138.86 184.93C138.86 179.8 155.06 114.07 155.79 109.3C156.52 104.53 153.59 101.23 147.72 100.86C141.85 100.49 119.47 95.72 118.37 92.05C117.27 88.38 124.24 74.44 124.24 74.44L102.24 75.54C102.24 75.54 101.14 85.08 99.6701 86.92C98.2001 88.76 96.0001 85.08 90.8601 82.52C85.7201 79.96 75.8601 77.75 72.1501 74.81C68.4401 71.87 33.2601 38.81 33.2601 38.81M0.6301 24.45C0.6301 24.51 0.6301 24.58 0.6301 24.67C0.6501 24.58 0.6401 24.51 0.6301 24.45Z" stroke="#263238" stroke-linecap="round" stroke-linejoin="round"/>
<path d="M33.26 38.85C33.26 38.85 21.54 39.07 15 33.68" stroke="#263238" stroke-linecap="round" stroke-linejoin="round"/>
<path d="M118.38 92.05C117.28 88.39 124.25 74.44 124.25 74.44L102.25 75.54C102.25 75.54 101.15 85.08 99.68 86.92C98.21 88.76 96.01 85.08 90.87 82.52C90.48 82.32 90.05 82.13 89.61 81.94L88.28 102.85C88.28 102.85 90.21 123.1 113.35 119.25C122.72 117.69 132.72 109.33 141.35 99.93C132.47 98.3 119.22 94.86 118.38 92.05Z" fill="white"/>
<mask id="mask3_2338_265" style="mask-type:luminance" maskUnits="userSpaceOnUse" x="88" y="74" width="54" height="46">
<path d="M118.38 92.05C117.28 88.39 124.25 74.44 124.25 74.44L102.25 75.54C102.25 75.54 101.15 85.08 99.68 86.92C98.21 88.76 96.01 85.08 90.87 82.52C90.48 82.32 90.05 82.13 89.61 81.94L88.28 102.85C88.28 102.85 90.21 123.1 113.35 119.25C122.72 117.69 132.72 109.33 141.35 99.93C132.47 98.3 119.22 94.86 118.38 92.05Z" fill="white"/>
</mask>
<g mask="url(#mask3_2338_265)">
<path d="M117.76 77.21C117.76 77.21 116.43 84.67 115.36 92.92C114.29 101.17 113.5 107.31 113.5 107.31L118.38 92.05L123.88 75.88C123.88 75.88 118.56 75.88 117.76 77.21Z" fill="#B0BEC5"/>
<path opacity="0.5" d="M117.76 77.21C117.76 77.21 116.43 84.67 115.36 92.92C114.29 101.17 113.5 107.31 113.5 107.31L118.38 92.05L123.88 75.88C123.88 75.88 118.56 75.88 117.76 77.21Z" fill="white"/>
</g>
<path d="M118.38 92.05C117.28 88.39 124.25 74.44 124.25 74.44L102.25 75.54C102.25 75.54 101.15 85.08 99.68 86.92C98.21 88.76 96.01 85.08 90.87 82.52C90.48 82.32 90.05 82.13 89.61 81.94L88.28 102.85C88.28 102.85 90.21 123.1 113.35 119.25C122.72 117.69 132.72 109.33 141.35 99.93C132.47 98.3 119.22 94.86 118.38 92.05Z" stroke="#263238" stroke-linecap="round" stroke-linejoin="round"/>
<path d="M99.67 86.92C98.2 88.75 96 85.08 90.86 82.52C87.62 80.89 82.46 79.41 78.19 77.81C76.98 74.94 75.38 71.2 74.35 68.94C72.52 64.94 69.58 67.47 69.58 67.47C68.0462 65.7255 66.8067 63.7429 65.91 61.6C64.08 57.6 61.14 57.93 57.11 57.2C53.08 56.47 44.63 48.76 44.63 48.76C44.63 48.76 40.68 45.76 39.05 44.27C37.15 48.01 32.6 54.59 22.76 58.7C38.45 75.09 70.28 106.23 73.62 108.57C77.29 111.13 76.19 118.47 73.62 125.81C71.05 133.15 61.51 143.81 61.88 155.53C62.25 167.25 65.88 185.25 65.55 188.92C65.22 192.19 57.9 202.44 56.31 204.64L60.04 205.06H79.46C79.35 195.22 79.36 155.06 86.09 139.06C93.8 120.67 99.67 86.92 99.67 86.92Z" fill="#B0BEC5"/>
<mask id="mask4_2338_265" style="mask-type:luminance" maskUnits="userSpaceOnUse" x="22" y="44" width="78" height="162">
<path d="M99.67 86.92C98.2 88.75 96 85.08 90.86 82.52C87.62 80.89 82.46 79.41 78.19 77.81C76.98 74.94 75.38 71.2 74.35 68.94C72.52 64.94 69.58 67.47 69.58 67.47C68.0462 65.7255 66.8067 63.7429 65.91 61.6C64.08 57.6 61.14 57.93 57.11 57.2C53.08 56.47 44.63 48.76 44.63 48.76C44.63 48.76 40.68 45.76 39.05 44.27C37.15 48.01 32.6 54.59 22.76 58.7C38.45 75.09 70.28 106.23 73.62 108.57C77.29 111.13 76.19 118.47 73.62 125.81C71.05 133.15 61.51 143.81 61.88 155.53C62.25 167.25 65.88 185.25 65.55 188.92C65.22 192.19 57.9 202.44 56.31 204.64L60.04 205.06H79.46C79.35 195.22 79.36 155.06 86.09 139.06C93.8 120.67 99.67 86.92 99.67 86.92Z" fill="white"/>
</mask>
<g mask="url(#mask4_2338_265)">
<path opacity="0.16" d="M90.8599 82.52C87.6199 80.89 82.4599 79.41 78.1899 77.81C76.9799 74.94 75.3799 71.2 74.3499 68.94C72.5199 64.94 69.5799 67.47 69.5799 67.47C68.0461 65.7255 66.8066 63.7429 65.9099 61.6C64.0799 57.6 61.1399 57.93 57.1099 57.2C53.0799 56.47 44.6299 48.76 44.6299 48.76C44.6299 48.76 40.6799 45.76 39.0499 44.27C38.2366 45.8581 37.2685 47.362 36.1599 48.76C42.7199 54.31 49.9599 60.19 52.4899 61.36C57.4899 63.67 58.6599 61.74 62.4899 64.06C66.3199 66.38 70.5899 74.06 70.5899 74.06C70.5899 74.06 72.9099 67.88 74.8399 72.13C76.7699 76.38 81.3999 83.7 81.3999 83.7C81.3999 83.7 87.5699 87.17 89.1099 87.17C90.3199 87.17 96.2499 90.25 98.7699 91.58C99.3299 88.65 99.6399 86.89 99.6399 86.89C98.1999 88.75 95.9999 85.08 90.8599 82.52Z" fill="black"/>
</g>
<path d="M99.67 86.92C98.2 88.75 96 85.08 90.86 82.52C87.62 80.89 82.46 79.41 78.19 77.81C76.98 74.94 75.38 71.2 74.35 68.94C72.52 64.94 69.58 67.47 69.58 67.47C68.0462 65.7255 66.8067 63.7429 65.91 61.6C64.08 57.6 61.14 57.93 57.11 57.2C53.08 56.47 44.63 48.76 44.63 48.76C44.63 48.76 40.68 45.76 39.05 44.27C37.15 48.01 32.6 54.59 22.76 58.7C38.45 75.09 70.28 106.23 73.62 108.57C77.29 111.13 76.19 118.47 73.62 125.81C71.05 133.15 61.51 143.81 61.88 155.53C62.25 167.25 65.88 185.25 65.55 188.92C65.22 192.19 57.9 202.44 56.31 204.64L60.04 205.06H79.46C79.35 195.22 79.36 155.06 86.09 139.06C93.8 120.67 99.67 86.92 99.67 86.92Z" stroke="#263238" stroke-linecap="round" stroke-linejoin="round"/>
<path d="M99.9302 85.64C99.9302 85.64 95.3702 84.24 92.5602 86.7C89.7502 89.16 85.5602 101.78 83.0902 115.47C81.5678 123.44 82.6184 131.687 86.0902 139.02C86.0902 139.02 91.8602 123.89 93.6102 116.52C95.3602 109.15 99.9302 85.64 99.9302 85.64Z" fill="#B0BEC5"/>
<mask id="mask5_2338_265" style="mask-type:luminance" maskUnits="userSpaceOnUse" x="82" y="85" width="18" height="55">
<path d="M99.9302 85.64C99.9302 85.64 95.3702 84.24 92.5602 86.7C89.7502 89.16 85.5602 101.78 83.0902 115.47C81.5678 123.44 82.6184 131.687 86.0902 139.02C86.0902 139.02 91.8602 123.89 93.6102 116.52C95.3602 109.15 99.9302 85.64 99.9302 85.64Z" fill="white"/>
</mask>
<g mask="url(#mask5_2338_265)">
<path opacity="0.16" d="M91.1802 87.87C91.1802 87.87 94.4802 87.07 95.8402 87.53C96.9854 88.0212 98.0558 88.6709 99.0202 89.46L99.9302 85.64C98.5652 84.9425 97.0168 84.6874 95.5002 84.91C93.2302 85.37 91.1802 87.87 91.1802 87.87Z" fill="black"/>
</g>
<path d="M99.9302 85.64C99.9302 85.64 95.3702 84.24 92.5602 86.7C89.7502 89.16 85.5602 101.78 83.0902 115.47C81.5678 123.44 82.6184 131.687 86.0902 139.02C86.0902 139.02 91.8602 123.89 93.6102 116.52C95.3602 109.15 99.9302 85.64 99.9302 85.64Z" stroke="#263238" stroke-linecap="round" stroke-linejoin="round"/>
<path d="M69.2201 86.84L75.0901 110.69L61.8801 80.6" stroke="#263238" stroke-linecap="round" stroke-linejoin="round"/>
<path d="M107.89 205.06H150.67C150.67 205.06 138.87 190.06 138.87 184.93C138.87 179.8 155.07 114.07 155.8 109.3C156.53 104.53 153.6 101.23 147.73 100.86C141.86 100.49 119.48 95.72 118.38 92.05C118.38 92.05 109.94 121.77 107.01 141.95C104.49 159.26 107.1 195.18 107.89 205.06Z" fill="#B0BEC5"/>
<mask id="mask6_2338_265" style="mask-type:luminance" maskUnits="userSpaceOnUse" x="105" y="92" width="51" height="114">
<path d="M107.89 205.06H150.67C150.67 205.06 138.87 190.06 138.87 184.93C138.87 179.8 155.07 114.07 155.8 109.3C156.53 104.53 153.6 101.23 147.73 100.86C141.86 100.49 119.48 95.72 118.38 92.05C118.38 92.05 109.94 121.77 107.01 141.95C104.49 159.26 107.1 195.18 107.89 205.06Z" fill="white"/>
</mask>
<g mask="url(#mask6_2338_265)">
<path opacity="0.16" d="M147.73 100.86C142.92 100.56 127.03 97.3 120.84 94.12L123.09 99.32C127.167 101.483 131.551 103.007 136.09 103.84C143.54 105.17 150.47 104.91 155 111.57L155.22 111.9C155.5 110.62 155.69 109.72 155.75 109.3C156.54 104.53 153.6 101.23 147.73 100.86Z" fill="black"/>
</g>
<path d="M107.89 205.06H150.67C150.67 205.06 138.87 190.06 138.87 184.93C138.87 179.8 155.07 114.07 155.8 109.3C156.53 104.53 153.6 101.23 147.73 100.86C141.86 100.49 119.48 95.72 118.38 92.05C118.38 92.05 109.94 121.77 107.01 141.95C104.49 159.26 107.1 195.18 107.89 205.06Z" stroke="#263238" stroke-linecap="round" stroke-linejoin="round"/>
<path d="M118.38 92.05C118.38 92.05 107.06 128.05 107.01 141.95C107.01 141.95 123.09 122.48 125.19 108.8C127.29 95.12 118.38 92.05 118.38 92.05Z" fill="#B0BEC5"/>
<mask id="mask7_2338_265" style="mask-type:luminance" maskUnits="userSpaceOnUse" x="107" y="92" width="19" height="50">
<path d="M118.38 92.05C118.38 92.05 107.06 128.05 107.01 141.95C107.01 141.95 123.09 122.48 125.19 108.8C127.29 95.12 118.38 92.05 118.38 92.05Z" fill="white"/>
</mask>
<g mask="url(#mask7_2338_265)">
<path opacity="0.16" d="M116.43 96.65C118.131 96.593 119.82 96.9511 121.352 97.6933C122.883 98.4355 124.211 99.5396 125.22 100.91C125.22 100.91 123 94.38 118.38 92.05L116.43 96.65Z" fill="black"/>
</g>
<path d="M118.38 92.05C118.38 92.05 107.06 128.05 107.01 141.95C107.01 141.95 123.09 122.48 125.19 108.8C127.29 95.12 118.38 92.05 118.38 92.05Z" stroke="#263238" stroke-linecap="round" stroke-linejoin="round"/>
<path d="M239.23 198.29C239.23 198.29 247.52 198.63 252.95 199.41C256.571 199.901 260.217 200.191 263.87 200.28C263.87 200.28 260.87 194.22 257.67 192.51C254.47 190.8 248.67 187.74 243.81 188.42C238.95 189.1 232 194 232.58 195.56C233.16 197.12 235.75 197.82 239.23 198.29Z" fill="white"/>
<mask id="mask8_2338_265" style="mask-type:luminance" maskUnits="userSpaceOnUse" x="232" y="188" width="32" height="13">
<path d="M239.23 198.29C239.23 198.29 247.52 198.63 252.95 199.41C256.571 199.901 260.217 200.191 263.87 200.28C263.87 200.28 260.87 194.22 257.67 192.51C254.47 190.8 248.67 187.74 243.81 188.42C238.95 189.1 232 194 232.58 195.56C233.16 197.12 235.75 197.82 239.23 198.29Z" fill="white"/>
</mask>
<g mask="url(#mask8_2338_265)">
<path d="M239.23 198.29C239.23 198.29 247.52 198.63 252.95 199.41C256.571 199.901 260.217 200.191 263.87 200.28C263.87 200.28 260.87 194.22 257.67 192.51C254.47 190.8 248.67 187.74 243.81 188.42C238.95 189.1 232 194 232.58 195.56C233.16 197.12 235.75 197.82 239.23 198.29Z" fill="#B0BEC5"/>
<path opacity="0.5" d="M239.23 198.29C239.23 198.29 247.52 198.63 252.95 199.41C256.571 199.901 260.217 200.191 263.87 200.28C263.87 200.28 260.87 194.22 257.67 192.51C254.47 190.8 248.67 187.74 243.81 188.42C238.95 189.1 232 194 232.58 195.56C233.16 197.12 235.75 197.82 239.23 198.29Z" fill="white"/>
</g>
<path d="M239.23 198.29C239.23 198.29 247.52 198.63 252.95 199.41C256.571 199.901 260.217 200.191 263.87 200.28C263.87 200.28 260.87 194.22 257.67 192.51C254.47 190.8 248.67 187.74 243.81 188.42C238.95 189.1 232 194 232.58 195.56C233.16 197.12 235.75 197.82 239.23 198.29Z" stroke="#263238" stroke-linecap="round" stroke-linejoin="round"/>
<path d="M253 195.81C253 195.81 259.57 192.4 261.21 192.45C262.85 192.5 273.75 199.87 273.21 201.05C272.843 201.597 272.314 202.015 271.697 202.245C271.079 202.475 270.405 202.504 269.77 202.33C268.56 201.76 261.22 198.64 261.22 198.64L256.42 199.77L253 195.81Z" fill="white"/>
<mask id="mask9_2338_265" style="mask-type:luminance" maskUnits="userSpaceOnUse" x="253" y="192" width="21" height="11">
<path d="M253 195.81C253 195.81 259.57 192.4 261.21 192.45C262.85 192.5 273.75 199.87 273.21 201.05C272.843 201.597 272.314 202.015 271.697 202.245C271.079 202.475 270.405 202.504 269.77 202.33C268.56 201.76 261.22 198.64 261.22 198.64L256.42 199.77L253 195.81Z" fill="white"/>
</mask>
<g mask="url(#mask9_2338_265)">
<path d="M253 195.81C253 195.81 259.57 192.4 261.21 192.45C262.85 192.5 273.75 199.87 273.21 201.05C272.67 202.23 270.09 203.19 269.77 202.33C269.45 201.47 261.22 198.64 261.22 198.64L256.42 199.77L253 195.81Z" fill="#B0BEC5"/>
<path opacity="0.5" d="M253 195.81C253 195.81 259.57 192.4 261.21 192.45C262.85 192.5 273.75 199.87 273.21 201.05C272.67 202.23 270.09 203.19 269.77 202.33C269.45 201.47 261.22 198.64 261.22 198.64L256.42 199.77L253 195.81Z" fill="white"/>
</g>
<path d="M253 195.81C253 195.81 259.57 192.4 261.21 192.45C262.85 192.5 273.75 199.87 273.21 201.05C272.843 201.597 272.314 202.015 271.697 202.245C271.079 202.475 270.405 202.504 269.77 202.33C268.56 201.76 261.22 198.64 261.22 198.64L256.42 199.77L253 195.81Z" stroke="#263238" stroke-linecap="round" stroke-linejoin="round"/>
<path d="M248.31 190.2C248.31 190.2 257.07 189.92 258.81 190.8C260.55 191.68 268.41 205.16 267.23 206.14C266.05 207.12 262.79 206.83 262.89 205.74C262.99 204.65 255.65 197.43 255.65 197.43L249.94 196.18L248.31 190.2Z" fill="white"/>
<mask id="mask10_2338_265" style="mask-type:luminance" maskUnits="userSpaceOnUse" x="248" y="190" width="20" height="17">
<path d="M248.31 190.2C248.31 190.2 257.07 189.92 258.81 190.8C260.55 191.68 268.41 205.16 267.23 206.14C266.05 207.12 262.79 206.83 262.89 205.74C262.99 204.65 255.65 197.43 255.65 197.43L249.94 196.18L248.31 190.2Z" fill="white"/>
</mask>
<g mask="url(#mask10_2338_265)">
<path d="M248.31 190.2C248.31 190.2 257.07 189.92 258.81 190.8C260.55 191.68 268.41 205.16 267.23 206.14C266.05 207.12 262.79 206.83 262.89 205.74C262.99 204.65 255.65 197.43 255.65 197.43L249.94 196.18L248.31 190.2Z" fill="#B0BEC5"/>
<path opacity="0.5" d="M248.31 190.2C248.31 190.2 257.07 189.92 258.81 190.8C260.55 191.68 268.41 205.16 267.23 206.14C266.05 207.12 262.79 206.83 262.89 205.74C262.99 204.65 255.65 197.43 255.65 197.43L249.94 196.18L248.31 190.2Z" fill="white"/>
</g>
<path d="M248.31 190.2C248.31 190.2 257.07 189.92 258.81 190.8C260.55 191.68 268.41 205.16 267.23 206.14C266.05 207.12 262.79 206.83 262.89 205.74C262.99 204.65 255.65 197.43 255.65 197.43L249.94 196.18L248.31 190.2Z" stroke="#263238" stroke-linecap="round" stroke-linejoin="round"/>
<path d="M243.12 188.39C243.12 188.39 251.99 188.1 253.75 189C255.51 189.9 263.47 203.53 262.27 204.53C261.07 205.53 257.79 205.22 257.89 204.12C257.99 203.02 250.56 195.71 250.56 195.71L244.78 194.44L243.12 188.39Z" fill="white"/>
<mask id="mask11_2338_265" style="mask-type:luminance" maskUnits="userSpaceOnUse" x="243" y="188" width="20" height="18">
<path d="M243.12 188.39C243.12 188.39 251.99 188.1 253.75 189C255.51 189.9 263.47 203.53 262.27 204.53C261.07 205.53 257.79 205.22 257.89 204.12C257.99 203.02 250.56 195.71 250.56 195.71L244.78 194.44L243.12 188.39Z" fill="white"/>
</mask>
<g mask="url(#mask11_2338_265)">
<path d="M243.12 188.39C243.12 188.39 251.99 188.1 253.75 189C255.51 189.9 263.47 203.53 262.27 204.53C261.07 205.53 257.79 205.22 257.89 204.12C257.99 203.02 250.56 195.71 250.56 195.71L244.78 194.44L243.12 188.39Z" fill="#B0BEC5"/>
<path opacity="0.5" d="M243.12 188.39C243.12 188.39 251.99 188.1 253.75 189C255.51 189.9 263.47 203.53 262.27 204.53C261.07 205.53 257.79 205.22 257.89 204.12C257.99 203.02 250.56 195.71 250.56 195.71L244.78 194.44L243.12 188.39Z" fill="white"/>
</g>
<path d="M243.12 188.39C243.12 188.39 251.99 188.1 253.75 189C255.51 189.9 263.47 203.53 262.27 204.53C261.07 205.53 257.79 205.22 257.89 204.12C257.99 203.02 250.56 195.71 250.56 195.71L244.78 194.44L243.12 188.39Z" stroke="#263238" stroke-linecap="round" stroke-linejoin="round"/>
<path d="M142.27 137.57C148.69 147.46 161.58 172.52 165.34 175.34C171.21 179.74 210.45 190.42 214.23 193.34C218.01 196.26 217.75 199.19 221.33 200.26C224.91 201.33 238.33 204.4 243.45 204.88C248.57 205.36 246.28 202.19 246.28 202.19L237.55 196.19L245.16 194.31C245.16 194.31 252.79 203.49 254.22 203.99C255.65 204.49 258.17 203.99 258.01 202.86C257.73 201.05 249.59 186.24 246.7 185.61C243.81 184.98 226.27 187.41 226.27 187.41C226.27 187.41 189.48 162.6 188.82 161.72C188.82 161.72 186.62 155.48 184.82 152.91C183.02 150.34 181.88 151.08 181.88 151.08C181.88 151.08 182.62 147.77 181.52 146.67L175.65 140.8L175.44 141.08C174.44 139.08 173.44 136.8 172.34 134.2C169.27 126.97 158.4 106.68 156.57 103.75C155.2 101.56 143.72 99.99 137.9 99.33" fill="#B0BEC5"/>
<mask id="mask12_2338_265" style="mask-type:luminance" maskUnits="userSpaceOnUse" x="137" y="99" width="122" height="106">
<path d="M142.27 137.57C148.69 147.46 161.58 172.52 165.34 175.34C171.21 179.74 210.45 190.42 214.23 193.34C218.01 196.26 217.75 199.19 221.33 200.26C224.91 201.33 238.33 204.4 243.45 204.88C248.57 205.36 246.28 202.19 246.28 202.19L237.55 196.19L245.16 194.31C245.16 194.31 252.79 203.49 254.22 203.99C255.65 204.49 258.17 203.99 258.01 202.86C257.73 201.05 249.59 186.24 246.7 185.61C243.81 184.98 226.27 187.41 226.27 187.41C226.27 187.41 189.48 162.6 188.82 161.72C188.82 161.72 186.62 155.48 184.82 152.91C183.02 150.34 181.88 151.08 181.88 151.08C181.88 151.08 182.62 147.77 181.52 146.67L175.65 140.8L175.44 141.08C174.44 139.08 173.44 136.8 172.34 134.2C169.27 126.97 158.4 106.68 156.57 103.75C155.2 101.56 143.72 99.99 137.9 99.33" fill="white"/>
</mask>
<g mask="url(#mask12_2338_265)">
<path opacity="0.16" d="M167.83 138.2C172.63 142.46 171.03 142.46 169.96 146.2C168.89 149.94 170.76 144.87 175.29 145.14C179.82 145.41 178.49 151.26 177.95 152.33C177.41 153.4 183.55 154.73 182.48 157.12C181.41 159.51 175.29 162.98 171.83 166.45C168.37 169.92 180.88 160.85 185.14 160.59C186.44 160.5 187.51 160.67 188.41 160.65C187.466 157.974 186.253 155.401 184.79 152.97C182.95 150.4 181.85 151.14 181.85 151.14C181.85 151.14 182.59 147.83 181.49 146.73L175.62 140.86L175.41 141.14C174.41 139.14 173.41 136.86 172.31 134.26C169.24 127.03 158.37 106.74 156.54 103.81C155.17 101.62 143.69 100.05 137.87 99.39L138.4 104.02L138.53 104.12C138.53 104.12 145.72 105.45 148.12 105.72C150.52 105.99 153.45 108.11 153.18 109.72C152.91 111.33 145.99 118.51 148.12 119.05C150.25 119.59 152.65 113.72 155.05 114.52C157.45 115.32 163 133.94 167.83 138.2Z" fill="black"/>
</g>
<path d="M142.27 137.57C148.69 147.46 161.58 172.52 165.34 175.34C171.21 179.74 210.45 190.42 214.23 193.34C218.01 196.26 217.75 199.19 221.33 200.26C224.91 201.33 238.33 204.4 243.45 204.88C248.57 205.36 246.28 202.19 246.28 202.19L237.55 196.19L245.16 194.31C245.16 194.31 252.79 203.49 254.22 203.99C255.65 204.49 258.17 203.99 258.01 202.86C257.73 201.05 249.59 186.24 246.7 185.61C243.81 184.98 226.27 187.41 226.27 187.41C226.27 187.41 189.48 162.6 188.82 161.72C188.82 161.72 186.62 155.48 184.82 152.91C183.02 150.34 181.88 151.08 181.88 151.08C181.88 151.08 182.62 147.77 181.52 146.67L175.65 140.8L175.44 141.08C174.44 139.08 173.44 136.8 172.34 134.2C169.27 126.97 158.4 106.68 156.57 103.75C155.2 101.56 143.72 99.99 137.9 99.33" stroke="#263238" stroke-linecap="round" stroke-linejoin="round"/>
<path d="M142.37 124C142.1 124.9 141.87 125.8 141.69 126.72" stroke="#263238" stroke-linecap="round" stroke-linejoin="round"/>
<path d="M152.09 107.45C148.948 111.032 146.298 115.017 144.21 119.3" stroke="#263238" stroke-linecap="round" stroke-linejoin="round"/>
<path d="M166.78 164.23C169.48 160.23 173.78 155.16 178.52 153.71" stroke="#263238" stroke-linecap="round" stroke-linejoin="round"/>
<path d="M163.79 169.15C163.79 169.15 164.27 168.21 165.13 166.79" stroke="#263238" stroke-linecap="round" stroke-linejoin="round"/>
<path d="M163.79 162.83C163.79 162.83 168.7 150.55 173.61 147.39C178.52 144.23 175.71 150.55 175.71 150.55" stroke="#263238" stroke-linecap="round" stroke-linejoin="round"/>
<path d="M214.23 193.35C218.02 196.28 217.75 199.2 221.33 200.27C224.91 201.34 238.33 204.41 243.45 204.89C248.57 205.37 246.28 202.2 246.28 202.2L237.55 196.2L245.16 194.32C245.16 194.32 252.79 203.5 254.22 204C255.65 204.5 258.37 204.68 258.01 202.87C257.31 199.37 249.59 186.25 246.7 185.62C243.81 184.99 226.27 187.42 226.27 187.42C226.27 187.42 192.76 164.42 189.09 161.93C174.86 163.3 168.09 170.75 165.24 175.22L165.34 175.3C171.21 179.74 210.45 190.42 214.23 193.35Z" fill="white"/>
<mask id="mask13_2338_265" style="mask-type:luminance" maskUnits="userSpaceOnUse" x="165" y="161" width="94" height="44">
<path d="M214.23 193.35C218.02 196.28 217.75 199.2 221.33 200.27C224.91 201.34 238.33 204.41 243.45 204.89C248.57 205.37 246.28 202.2 246.28 202.2L237.55 196.2L245.16 194.32C245.16 194.32 252.79 203.5 254.22 204C255.65 204.5 258.37 204.68 258.01 202.87C257.31 199.37 249.59 186.25 246.7 185.62C243.81 184.99 226.27 187.42 226.27 187.42C226.27 187.42 192.76 164.42 189.09 161.93C174.86 163.3 168.09 170.75 165.24 175.22L165.34 175.3C171.21 179.74 210.45 190.42 214.23 193.35Z" fill="white"/>
</mask>
<g mask="url(#mask13_2338_265)">
<path d="M258 202.91C256.18 198.46 249.58 186.29 246.69 185.66C243.8 185.03 226.26 187.46 226.26 187.46C226.26 187.46 192.75 164.46 189.08 161.97C185.345 162.295 181.68 163.181 178.21 164.6C183.5 167.6 218.76 187.6 223.21 188.49C227.93 189.49 243.68 186.9 246.45 188.76C248.21 189.94 253.45 198.25 256.99 204.15C258 204 258.37 203.81 258 202.91Z" fill="#B0BEC5"/>
<path opacity="0.5" d="M258 202.91C255.16 196.54 249.58 186.29 246.69 185.66C243.8 185.03 226.26 187.46 226.26 187.46C226.26 187.46 192.75 164.46 189.08 161.97C185.345 162.295 181.68 163.181 178.21 164.6C183.5 167.6 218.76 187.6 223.21 188.49C227.93 189.49 243.68 186.9 246.45 188.76C248.21 189.94 253.45 198.25 256.99 204.15C258 204 258.4 203.8 258 202.91Z" fill="white"/>
</g>
<path d="M214.23 193.35C218.02 196.28 217.75 199.2 221.33 200.27C224.91 201.34 238.33 204.41 243.45 204.89C248.57 205.37 246.28 202.2 246.28 202.2L237.55 196.2L245.16 194.32C245.16 194.32 252.79 203.5 254.22 204C255.65 204.5 258.37 204.68 258.01 202.87C257.31 199.37 249.59 186.25 246.7 185.62C243.81 184.99 226.27 187.42 226.27 187.42C226.27 187.42 192.76 164.42 189.09 161.93C174.86 163.3 168.09 170.75 165.24 175.22L165.34 175.3C171.21 179.74 210.45 190.42 214.23 193.35Z" stroke="#263238" stroke-linecap="round" stroke-linejoin="round"/>
<path d="M125.85 18.73L95.73 31.3C95.365 36.5936 94.0543 41.7788 91.86 46.61C88.3 54.14 90.38 68.39 93.8 76.08C97.22 83.77 112.29 80.76 117.8 79.8C121.537 79.0891 125.197 78.0209 128.73 76.61C130.339 77.23 132.078 77.4304 133.786 77.1925C135.493 76.9546 137.112 76.2861 138.49 75.25C138.49 75.25 122.37 30 125.85 18.73Z" fill="white"/>
<mask id="mask14_2338_265" style="mask-type:luminance" maskUnits="userSpaceOnUse" x="90" y="18" width="49" height="64">
<path d="M125.85 18.73L95.73 31.3C95.365 36.5936 94.0543 41.7788 91.86 46.61C88.3 54.14 90.38 68.39 93.8 76.08C97.22 83.77 112.29 80.76 117.8 79.8C121.537 79.0891 125.197 78.0209 128.73 76.61C130.339 77.23 132.078 77.4304 133.786 77.1925C135.493 76.9546 137.112 76.2861 138.49 75.25C138.49 75.25 122.37 30 125.85 18.73Z" fill="white"/>
</mask>
<g mask="url(#mask14_2338_265)">
<path d="M125.85 18.73L95.73 31.3C95.365 36.5936 94.0543 41.7788 91.86 46.61C88.3 54.14 90.38 68.39 93.8 76.08C94.3725 77.3166 95.2935 78.3593 96.45 79.08V78.5C96.45 78.5 90.86 64.65 91.92 56.66C92.98 48.67 97.52 44.66 98.05 39.61C98.58 34.56 98.31 32.16 108.44 28.43C118.57 24.7 122.82 21.24 123.88 24.96C124.94 28.68 129.21 53.2 132.14 59.06C135.07 64.92 134.8 71.06 130.28 73.71C125.712 76.4523 120.817 78.6093 115.71 80.13L117.84 79.76C121.577 79.0491 125.237 77.9809 128.77 76.57C130.379 77.19 132.119 77.3904 133.826 77.1525C135.533 76.9146 137.152 76.2461 138.53 75.21C138.53 75.21 122.37 30 125.85 18.73Z" fill="#B0BEC5"/>
<path opacity="0.5" d="M125.85 18.73L95.73 31.3C95.365 36.5936 94.0543 41.7788 91.86 46.61C88.3 54.14 90.38 68.39 93.8 76.08C94.3725 77.3166 95.2935 78.3593 96.45 79.08V78.5C96.45 78.5 90.86 64.65 91.92 56.66C92.98 48.67 97.52 44.66 98.05 39.61C98.58 34.56 98.31 32.16 108.44 28.43C118.57 24.7 122.82 21.24 123.88 24.96C124.94 28.68 129.21 53.2 132.14 59.06C135.07 64.92 134.8 71.06 130.28 73.71C125.712 76.4523 120.817 78.6093 115.71 80.13L117.84 79.76C121.577 79.0491 125.237 77.9809 128.77 76.57C130.379 77.19 132.119 77.3904 133.826 77.1525C135.533 76.9146 137.152 76.2461 138.53 75.21C138.53 75.21 122.37 30 125.85 18.73Z" fill="white"/>
</g>
<path d="M125.85 18.73L95.73 31.3C95.365 36.5936 94.0543 41.7788 91.86 46.61C88.3 54.14 90.38 68.39 93.8 76.08C97.22 83.77 112.29 80.76 117.8 79.8C121.537 79.0891 125.197 78.0209 128.73 76.61C130.339 77.23 132.078 77.4304 133.786 77.1925C135.493 76.9546 137.112 76.2861 138.49 75.25C138.49 75.25 122.37 30 125.85 18.73Z" stroke="#263238" stroke-linecap="round" stroke-linejoin="round"/>
<path d="M110.63 38.44C110.712 40.2109 110.492 41.9827 109.98 43.68C109.18 45.68 101.63 53.54 101.86 54.39C102.09 55.24 102.77 57.97 104.11 58.23" stroke="#263238" stroke-linecap="round" stroke-linejoin="round"/>
<path d="M119 45.47C120.05 43.37 123.5 45.42 123.45 50.15" stroke="#263238" stroke-linecap="round" stroke-linejoin="round"/>
<path d="M101.9 39.29C101.9 39.29 104.84 38 107.47 42.76" stroke="#263238" stroke-linecap="round" stroke-linejoin="round"/>
<path d="M114.82 52.4C118.217 52.571 121.448 53.9261 123.95 56.23" stroke="#263238" stroke-width="0.5" stroke-linecap="round" stroke-linejoin="round"/>
<path d="M98.3501 46.15C100.107 46.3845 101.823 46.859 103.45 47.56" stroke="#263238" stroke-width="0.5" stroke-linecap="round" stroke-linejoin="round"/>
<path d="M110.3 34C109.524 33.5894 108.662 33.3649 107.784 33.3441C106.906 33.3232 106.035 33.5067 105.24 33.88C102.55 35.17 100.9 36.59 101.08 34.94C101.26 33.29 104.42 31.47 105.37 31.23C106.32 30.99 110.57 30.33 110.3 34Z" fill="#263238"/>
<path d="M117.84 30.27C120.643 32.5381 122.871 35.437 124.34 38.73C126.34 43.73 127.92 38.27 126.34 35C124.76 31.73 120.19 28.25 117.84 30.27Z" fill="#263238"/>
<path d="M138.93 83.8C138.93 86.13 137.61 88.02 135.99 88.02C134.37 88.02 133.06 86.13 133.06 83.8C133.06 81.47 134.37 75.54 135.99 75.54C137.61 75.54 138.93 81.47 138.93 83.8Z" fill="#B0BEC5" stroke="#263238" stroke-linecap="round" stroke-linejoin="round"/>
<path d="M119.26 44.56C119.145 44.8656 119.055 45.18 118.99 45.5C118.7 46.98 118.41 50.07 118.99 50.2C119.57 50.33 120.99 47.44 121.24 45.96C121.296 45.6697 121.33 45.3755 121.34 45.08C120.658 44.866 119.963 44.6924 119.26 44.56Z" fill="#263238"/>
<path d="M102.2 39C102.111 39.2614 102.041 39.5287 101.99 39.8C101.69 41.28 101.7 44.53 102.33 44.65C102.96 44.77 103.99 41.73 104.28 40.25C104.353 39.891 104.393 39.5262 104.4 39.16C103.684 38.9632 102.937 38.9088 102.2 39Z" fill="#263238"/>
<path d="M119 45.52L120 43.66C121.585 43.9689 123.022 44.7997 124.08 46.02" stroke="#263238" stroke-width="0.75" stroke-linecap="round" stroke-linejoin="round"/>
<path d="M102.2 39L103.2 37.83C103.2 37.83 103.63 37.62 105.99 38.69" stroke="#263238" stroke-width="0.75" stroke-linecap="round" stroke-linejoin="round"/>
<path d="M98.4102 66.12C98.4102 66.12 100.09 63.03 102.34 63.03C104.59 63.03 106.27 68.08 106.27 68.08" stroke="#263238" stroke-linecap="round" stroke-linejoin="round"/>
<path d="M154.34 208.06H51.6L48.25 151.58C48.1574 151.032 48.1847 150.471 48.33 149.935C48.4754 149.399 48.7352 148.901 49.0917 148.475C49.4482 148.049 49.8928 147.706 50.3949 147.468C50.897 147.231 51.4447 147.105 52 147.1H153.9C154.459 147.099 155.011 147.221 155.518 147.456C156.025 147.691 156.475 148.033 156.835 148.46C157.196 148.886 157.46 149.387 157.607 149.926C157.755 150.464 157.783 151.029 157.69 151.58L154.34 208.06Z" fill="#263238" stroke="#263238" stroke-linecap="round" stroke-linejoin="round"/>
<path d="M56.6602 148.45H153.16C153.705 148.444 154.245 148.558 154.742 148.783C155.238 149.008 155.68 149.339 156.035 149.752C156.39 150.166 156.651 150.652 156.799 151.176C156.946 151.701 156.978 152.252 156.89 152.79" stroke="white" stroke-linecap="round" stroke-linejoin="round"/>
<path d="M49 151.9C49.0805 150.955 49.5143 150.075 50.2149 149.435C50.9156 148.796 51.8315 148.444 52.78 148.45" stroke="white" stroke-linecap="round" stroke-linejoin="round"/>
<path d="M154.77 202.56H51.1699V208.06H154.77V202.56Z" fill="white" stroke="#263238" stroke-linecap="round" stroke-linejoin="round"/>
<path d="M102.6 182.2C106.654 182.2 109.94 180.23 109.94 177.8C109.94 175.37 106.654 173.4 102.6 173.4C98.5463 173.4 95.26 175.37 95.26 177.8C95.26 180.23 98.5463 182.2 102.6 182.2Z" fill="white" stroke="#263238" stroke-linecap="round" stroke-linejoin="round"/>
</svg>
