<svg width="1280" height="389" viewBox="0 0 1280 389" fill="none" xmlns="http://www.w3.org/2000/svg">
<path d="M1279.32 341.548C1277.7 341.548 1281.69 340.174 1274.01 340.564C1271.51 340.69 1270.09 340.659 1270.09 340.476C1270.09 339.912 1271.65 339.257 1273.46 339.063C1278.35 338.537 1271.72 337.151 1270.37 338.058C1269.12 338.901 1269.16 337.847 1270.42 336.859C1271.46 336.039 1269.13 335.823 1267.1 336.551C1265.07 337.279 1265.4 337.462 1265.79 336.026C1266.15 334.692 1264.42 333.84 1263.92 335.11C1263.81 335.388 1263.7 335.132 1263.68 334.54C1263.64 333.751 1263.47 333.505 1263.03 333.618C1261.82 333.93 1256.73 331.672 1256.73 330.822C1256.73 330 1257.59 330.482 1257.59 329.838C1257.59 329.165 1256.46 330 1256.04 329.281C1255.66 328.616 1254.54 328.707 1252.86 329.54C1251.22 330.351 1249.84 330.484 1249.84 329.829C1249.84 329.215 1250.69 329.552 1250.72 329.034C1250.73 328.835 1251.31 328.221 1252.01 327.67C1254.04 326.074 1253.19 325.413 1250.1 326.201C1249.06 326.467 1249.03 326.447 1249.43 325.694C1249.8 325.002 1249.78 324.97 1249.26 325.416C1248.46 326.106 1247.99 325.763 1247.26 326.357C1246.35 327.089 1245.91 326.845 1246.21 325.778C1246.5 324.727 1244.25 324.151 1243.66 325.127C1243.46 325.466 1243.4 325.321 1243.22 324.115C1243.15 323.637 1240.21 323.486 1239.06 323.901C1237.36 324.512 1237.83 323.381 1236.04 323.695C1234.13 324.03 1235.68 321.168 1232.85 322.606C1231.18 323.454 1231.17 322.039 1229.53 323.815C1228.19 325.267 1228.6 325.323 1228.22 323.315C1227.84 321.251 1227.19 320.136 1226.38 320.136C1225.86 320.136 1225.78 320.392 1226 321.438C1226.31 322.964 1225.73 323.151 1224.8 321.827C1224.28 321.096 1223.88 320.908 1222.78 320.887C1220.27 320.837 1221.94 321.845 1222.4 323.505C1222.73 324.662 1221.28 324.556 1220.35 323.354C1219.6 322.381 1217.62 321.135 1217.24 321.392C1216.56 321.849 1220.23 323.802 1217.98 323.405C1216.71 323.183 1213.95 324.501 1211.95 324.539C1209.18 324.592 1211.76 325.763 1209.25 325.792C1207.94 325.806 1207.22 326.141 1207.85 326.445C1208.84 326.922 1207.36 327.213 1209.78 327.773C1215.66 329.14 1210.48 328.514 1207.41 329.259C1205.26 329.778 1205.04 329.781 1205.04 329.288C1205.04 328.812 1203.24 328.815 1202.78 329.293C1202.16 329.939 1199.62 328.766 1198.74 329.548C1198.1 330.123 1197.65 330.085 1197.8 329.467C1197.89 329.126 1197.67 328.975 1197.14 329.005C1195.64 329.089 1197.44 327.828 1196.11 328.004C1195.54 328.079 1195.23 328.323 1194.4 329.356C1194.11 329.708 1188.35 326.764 1189.26 329.219C1189.57 330.053 1189.07 330.212 1188.24 329.539C1187.12 328.637 1185.45 329.821 1185.96 331.147C1186.19 331.718 1186.13 331.725 1184.74 331.33C1183.94 331.103 1183.32 330.783 1183.38 330.617C1183.61 329.866 1180.59 328.187 1179.12 328.254C1176.57 328.37 1175.64 327.405 1174.62 327.973C1173.46 328.619 1174.03 326.734 1172.2 326.865C1170.35 326.998 1171.31 325.817 1174.34 324.229C1176.26 323.223 1176.79 322.161 1175.37 322.161C1174.76 322.161 1174.62 321.999 1174.77 321.462C1174.99 320.685 1172.66 320.782 1171.17 321.611C1170.6 321.93 1170.52 321.904 1170.64 321.433C1170.85 320.631 1169.4 320.537 1168.23 321.277C1167.4 321.797 1167.07 321.844 1166.04 321.58C1164.07 321.078 1163.69 321.921 1163.67 320.778C1163.65 319.712 1162.7 318.882 1162.03 319.336C1161.64 319.592 1161.4 319.59 1161.01 319.326C1160.08 318.704 1159.76 318.957 1160.06 320.063C1160.35 321.126 1160.34 321.138 1159.51 320.642C1158.25 319.891 1157.95 320.019 1158.27 321.174C1158.8 323.069 1157.74 321.264 1156.15 322.447C1155.29 323.08 1154.2 323.2 1153.5 322.735C1152.62 322.141 1150.4 321.894 1149.86 322.33C1148.86 323.14 1144.6 322.231 1148.6 324.008C1149.55 324.429 1150.32 324.9 1150.32 325.055C1150.32 325.587 1148.88 326.485 1148.41 326.242C1147.2 325.609 1145.21 325.641 1145.07 326.295C1144.86 327.313 1143 326.9 1143 327.39C1143 328.132 1141.24 327.605 1141 326.791C1140.67 325.707 1140.13 325.674 1139.79 326.718C1139.43 327.819 1136.97 327.972 1136.97 326.894C1136.97 326.36 1136.74 326.212 1135.89 326.212C1134.77 326.212 1134.28 327.404 1135.25 327.803C1135.48 327.902 1135.67 328.202 1135.66 328.472C1135.65 328.987 1135.52 328.905 1133.73 327.225C1132.13 325.722 1135.31 330.75 1131.16 328.709C1130.47 328.372 1130.13 328.372 1128.93 328.709C1125.98 329.538 1124.88 328.929 1126.51 327.366C1127.28 326.631 1127.62 324.765 1126.99 324.765C1126.79 324.765 1126.61 324.538 1126.6 324.259C1126.55 323.543 1126.45 324.468 1125.41 324.494C1124.29 324.521 1121.95 327.031 1121.34 327.063C1120.94 327.084 1121.42 325.596 1121.95 325.214C1123.31 324.217 1122.18 323.692 1120.69 324.627C1119.17 325.576 1119.58 325.639 1119.31 324.265C1119.1 323.221 1117.15 322.371 1117.15 323.326C1117.15 323.563 1116.52 323.604 1115.01 323.464C1113.24 323.301 1112.66 323.368 1111.62 323.863C1110.31 324.49 1109.83 324.417 1109.83 323.591C1109.83 322.81 1107.67 322.386 1107.67 323.48C1107.67 323.946 1106.38 324.292 1106.38 322.991C1106.38 321.952 1106.39 322.085 1103.37 322.414C1103.21 317.009 1103.25 317.052 1103.44 314.929C1097.15 314.929 1096.18 314.895 1092.77 315.274C1093.19 327.11 1093.62 325.55 1091.93 325.683C1090.31 325.811 1090.07 326.435 1091.6 326.553C1093.3 326.684 1093.53 330.339 1091.84 330.5C1090.33 330.644 1091.47 329.998 1089.93 329.275C1088.85 328.763 1087.86 329.113 1087.86 330.009C1087.86 330.619 1086.14 330.799 1086.12 330.19C1086.08 329.137 1084.11 328.781 1082.04 329.455C1079.81 330.184 1078.49 329.944 1078.73 328.854C1078.95 327.847 1077.52 328.536 1077.52 327.835C1077.52 327.257 1074.5 327.144 1074.5 327.476C1074.5 327.924 1074.21 327.152 1073.34 327.88C1072.02 328.973 1073.74 326.138 1072.37 326.285C1071.37 326.392 1071.68 325.055 1071 325.055C1070.76 325.055 1070.68 324.805 1070.83 324.5C1071.11 323.897 1070.43 323.411 1069.98 323.897C1069.83 324.061 1069.53 324.122 1069.31 324.032C1068.31 323.616 1065.89 324.247 1065.89 324.925C1065.89 325.966 1065.13 326.036 1064.39 325.064C1063.23 323.569 1062.29 324.232 1063.41 325.039C1063.85 325.358 1063.81 325.396 1063.19 325.251C1062.27 325.033 1062.24 325.315 1063.08 326.396C1064.31 327.972 1063.55 328.59 1061.33 327.816C1058.09 326.678 1060.63 327.939 1058.9 328.559C1057.99 328.888 1057.21 328.528 1056.71 327.545C1056.62 327.369 1056 327.659 1055.33 328.19C1053.28 329.818 1054.6 328.237 1052.06 328.237C1050.61 328.237 1049.98 327.572 1050.7 326.8C1051.08 326.389 1050.93 326.252 1049.77 325.971C1047.6 325.445 1047.03 325.545 1046.71 326.501C1046.39 327.504 1045.51 327.691 1045.7 326.718C1045.97 325.299 1044.07 324.875 1044.56 325.922C1044.96 326.777 1043.48 326.6 1043.48 326.036C1043.48 325.277 1042.46 326.191 1041.8 325.404C1041.41 324.94 1041.37 324.941 1041.1 325.416C1040.52 326.425 1037.45 325.68 1034.24 323.75C1031.98 322.395 1031.3 323.108 1031.64 322.736C1031.95 322.394 1030.72 322.228 1030.34 323.029C1030.01 323.741 1029.47 323.76 1028.26 323.101C1027.34 322.601 1027.33 322.485 1027.42 314.204C1027.57 299.554 1026.97 303.915 1025.65 302.729C1024.92 302.078 1023.67 302.126 1023.67 301.44C1023.67 300.657 1021.35 301.281 1016.56 301.433C1014.64 301.493 1014.46 302.037 1013.69 301.547C1012.91 301.053 1010.18 301.276 1003.8 301.378C1004.45 320.265 1004.72 321.467 1002.6 321.154C1001.79 321.035 1001.22 321.122 1000.85 321.424C1000.18 321.966 998.091 322.038 998.366 321.51C998.789 320.697 1000.5 321.973 999.707 320.585C999.161 319.63 998.25 321.468 998.25 320.026C998.25 319.45 998.466 319.267 999.147 319.267C1000.39 319.267 999.854 318.533 998.957 318.584C997.565 318.663 998.837 310.958 997.711 309.677C997.28 309.187 997.28 309.038 997.711 308.933C999.774 308.432 998.146 307.649 995.233 307.742C993.474 307.798 992.156 307.717 992.072 307.549C991.884 307.171 984.055 307.259 982.525 307.259L982.292 296.184C945.62 295.819 956.254 296.528 950.088 297.414C943.811 298.316 959.101 298.823 913.165 298.823L913.264 296.698H898.733C898.733 271.562 898.196 274.928 900.062 274.409C901.926 273.89 903.476 268.053 901.749 268.053C901.512 268.053 901.318 268.262 901.318 268.518C901.318 268.904 899.387 268.917 898.887 268.536C898.521 268.257 898.53 258.757 898.896 258.511C899.225 258.29 899.191 258.021 898.776 257.574C895.793 254.367 897.182 226.67 897.021 226.541C895.96 225.679 898.067 224.665 897.073 223.998C896.426 223.563 896.58 217.986 896.58 215.164C898.561 211.848 901.132 207.056 904.841 204.499C907.372 202.754 906.168 203.338 905.979 199.104C905.924 197.877 905.196 196.729 905.196 197.87C905.196 198.465 904.335 198.455 904.335 197.912C904.335 197.432 902.951 197.493 902.707 197.984C902.407 198.589 901.342 198.338 901.065 197.597C900.775 196.822 900.178 196.635 899.951 197.249C899.724 197.861 896.105 197.256 895.834 196.561C895.584 195.92 893.995 195.8 893.995 196.423C893.995 196.652 893.806 196.919 893.574 197.015C893.3 197.128 893.142 191.077 893.135 179.818C893.135 159.626 892.474 163.386 895.12 159.622C896.214 158.07 897.572 156.385 898.137 155.878C899.196 154.93 899.548 153.086 898.734 152.749C898.498 152.65 898.304 151.726 898.304 150.695C898.304 148.833 898.296 148.821 897.148 148.904C894.949 149.062 896.16 147.065 894.903 148.082C894.106 148.727 891.778 148.597 891.504 147.893C891.389 147.597 891.043 147.428 890.722 147.511C890.067 147.68 890.19 145.437 890.389 135.388C894.004 129.775 894.532 129.18 894.175 127.865C893.307 124.668 894.337 122.765 892.811 122.85C890.428 122.985 889.215 122.776 888.885 122.176C888.254 121.031 888.802 122.512 886.879 122.512C884.785 122.512 883.88 119.833 885.217 117.589C885.862 116.506 885.862 116.375 885.217 115.896C884.326 115.234 884.326 114.146 885.217 113.291C886.738 111.833 883.928 111.982 886.008 110.322C890.464 106.765 885.083 104.573 886.866 104.573C887.268 104.573 887.413 104.405 887.253 104.126C887.025 103.727 886.917 103.728 886.234 104.144C884.33 105.301 881.759 97.1593 883.307 94.877C883.727 94.2578 883.674 93.8358 883.015 92.5318C882.049 90.6234 881.904 91.1321 883.389 90.2072C885.587 88.8386 883.689 86.2323 881.183 87.1772C880.367 87.4849 880.707 87.6481 882.581 87.8488C884.123 88.0139 884.195 90.3365 881.02 89.9101C878.843 89.6175 879.901 90.1297 881.863 90.8288C878.474 97.7469 882.044 91.9246 880.662 99.9431C880.015 103.695 880.012 103.702 878.819 104.375C875.774 106.095 875.5 108.885 878.183 110.863C880.044 112.235 877.096 112.196 878.938 113.769C879.9 114.59 879.797 115.619 878.668 116.46C878.134 116.859 878.149 117.048 878.789 117.907C880.44 120.123 879.112 122.797 876.203 123.115C873.526 123.408 873.642 124.295 873.002 123.527C872.276 122.655 872.12 124.537 871.174 124.537C870.556 124.537 870.915 126.408 870.284 128.245C869.616 130.19 870.867 131.88 873.946 136.545C874.572 153.187 873.926 146.393 873.085 148.643C872.796 149.417 870.298 149.88 869.457 149.316C868.551 148.708 868.684 151.401 866.943 150.231C865.987 149.589 866.816 153.565 865.995 153.906C865.339 154.178 865.482 156.403 866.189 156.928C866.977 157.513 870.718 162.713 871.595 163.908C871.648 199.375 872.101 197.453 870.734 197.453C870.26 197.453 869.872 197.622 869.872 197.829C869.872 198.501 865.628 198.912 865.325 198.27C864.518 196.563 863.506 199.7 863.439 198.538C863.388 197.641 862.548 198 862.548 198.919C862.548 200.617 861.05 198.745 860.74 200.116C860.53 201.044 859.533 200.478 859.533 200.974C859.533 201.161 859.22 201.546 858.837 201.83C858.195 202.306 858.199 202.385 858.889 202.848C860.255 203.766 858.615 206.302 859.739 206.478C861.406 206.739 867.054 212.913 867.96 215.465C868.115 215.902 868.398 216.26 868.587 216.26C869.201 216.26 869.111 225.126 868.489 225.832C868.047 226.334 868.044 226.49 868.472 226.594C869.149 226.758 869.175 227.897 868.512 228.343C868.141 228.592 868.137 228.778 868.499 229.071C869.194 229.633 869.253 245.662 868.562 246.221C868.177 246.533 868.215 246.728 868.731 247.074C869.491 247.584 869.246 250.375 868.406 250.77C868.078 250.925 868.131 251.102 868.58 251.35C870.637 252.487 867.656 253.636 868.568 254.015C869.015 254.201 869.075 256.734 868.643 257.202C868.497 257.362 868.354 258.058 868.327 258.75C868.256 260.537 867.079 260.203 867.442 261C869.368 265.239 867.199 270.771 864.358 268.863C863.956 268.593 863.841 268.971 863.841 270.563C863.841 274.471 864.207 274.244 867.991 275.431C867.991 303.626 868.845 303.077 865.132 300.996C863.099 299.855 863.15 300.426 861.453 299.529C858.167 297.793 857.094 298.763 856.993 294.907C856.943 292.982 856.25 292.434 855.864 294.013C854.851 298.158 854.613 298.598 853.288 298.765C851.94 298.935 852.58 300.093 851.453 300.383C850.539 300.619 844.026 304.973 844.026 305.349C844.026 305.51 843.578 305.942 843.032 306.309C839.438 308.723 840.597 315.607 839.999 316.319C839.907 316.428 839.819 316.94 839.804 317.455C839.753 319.156 838.278 319.635 837.78 318.113C837.308 316.669 836.702 316.82 836.702 318.382C836.702 319.187 836.508 319.845 836.271 319.845C835.531 319.845 836.293 321.003 835.061 321.003C833.291 321.003 832.901 320.393 832.278 316.645C831.672 312.994 829.905 309.455 828.219 308.515C827.514 308.122 827.657 306.14 827.75 301.347C830.786 300.144 830.671 300.497 830.671 298.096C830.671 295.181 830.542 296.697 828.538 296.698H827.44C828.146 283.665 827.131 291.144 826.951 282.953C826.536 264.007 827.311 265.722 826.801 265.309C825.86 264.548 827.638 264.193 826.809 263.152C824.705 260.512 828.092 251.867 832.431 248.802C833.828 247.815 833.931 243.88 832.55 244.236C831.485 244.511 832.568 243.494 831.075 244.106C830.324 244.414 830.099 244.39 829.611 243.949C829.237 243.61 828.975 243.547 828.865 243.769C828.537 244.431 825.759 244.239 825.289 243.523C823.901 241.408 824.081 248.858 824.081 217.438C824.853 216.353 827.263 212.837 827.941 212.458C828.613 212.084 828.714 210.589 828.086 210.328C827.849 210.229 827.655 209.557 827.655 208.833C827.655 206.652 827.007 208.298 825.682 207.56C825.11 207.241 823.328 207.44 823.407 207.814C823.531 208.398 823.299 209.026 822.96 209.026C821.284 209.026 821.666 198.081 823.445 195.137C825.355 191.978 825.407 188.052 823.536 188.368C821.839 188.654 820.105 187.415 819.734 188.005C818.772 189.534 817.25 185.636 818.172 184.007C818.472 183.477 818.445 183.091 818.08 182.698C817.142 181.69 818.883 180.619 818.376 179.732C817.926 178.945 820.6 177.59 820.109 176.332C819.441 174.622 820.014 173.839 818.694 173.936C815.886 174.142 817.227 165.83 816.288 164.81C816.109 164.614 816.358 164.127 816.857 163.702C818.349 162.428 816.702 160.423 815.067 161.521C814.151 162.136 816.305 161.554 816.731 162.3C817.066 162.886 816.131 163.599 815.027 163.599C814.16 163.599 814.158 163.61 814.955 164.001C816.437 164.729 814.594 164.207 815.025 168.313C815.187 169.859 815.082 171.31 814.733 172.306C814.044 174.279 813.927 174.408 813.19 173.997C812.517 173.622 811.285 173.826 811.285 174.313C811.285 174.946 812.333 173.451 811.911 175.954C811.648 177.52 811.717 177.734 812.765 178.57C814.899 180.274 811.999 180.034 813.579 181.095C815.652 182.488 812.355 182.659 813.654 184.332C815.14 186.246 813.717 188.483 811.013 188.483C810.12 188.483 809.617 188.6 809.775 188.772C810.117 189.143 809.129 189.233 809.129 188.588C809.129 187.623 805.181 190.612 808.619 196.006C810.489 198.941 811.269 207.579 809.664 207.579C809.172 207.579 808.695 207.731 808.603 207.917C808.266 208.595 805.683 207.208 805.683 208.029C805.683 208.259 805.419 208.448 805.098 208.448C803.258 208.448 803.838 212.444 806.11 215.414C809.028 219.191 808.299 216.327 808.299 230.057C808.351 243.681 808.378 243.538 807.924 243.35C807.328 243.102 806.504 243.629 806.428 244.308C806.346 245.042 803.776 245.01 802.993 244.264C802.682 243.968 802.557 243.967 802.383 244.256C802.074 244.767 801.375 244.181 801.375 244.534C801.375 244.988 798.536 246.509 799.143 247.033C799.354 247.215 799.483 247.853 799.43 248.449C799.35 249.342 799.603 249.725 800.861 250.619C802.256 251.61 805.683 255.966 805.683 256.748C805.683 256.928 805.974 257.151 806.329 257.243C807.021 257.421 807.335 264.002 806.652 264.002C806.29 264.002 806.38 280.192 806.744 280.436C807.174 280.724 806.98 282.402 806.477 282.739C806.099 282.993 806.107 283.179 806.511 283.506C807.344 284.179 806.115 284.014 806.44 286.727C806.806 289.788 805.01 289.9 805.732 290.665C807.566 292.608 805.719 297.213 803.351 296.603C802.323 296.338 801.711 298.471 802.697 298.88C802.95 298.985 803.053 299.254 802.926 299.476C802.6 300.046 803.078 300.749 803.791 300.749C804.709 300.749 804.004 301.206 805.145 301.45C805.782 301.586 805.915 302.035 806.007 304.363C806.131 307.484 805.908 307.675 804.39 305.748C803.193 304.229 799.108 301.328 798.165 301.328C797.325 301.328 794.553 299.306 793.883 299.293C792.196 299.26 791.036 297.671 791.036 295.394C791.036 293.988 790.233 292.754 790.132 294.005C789.935 296.426 789.752 297.102 788.865 297.817C787.747 298.719 788.48 298.757 786.08 297.436C784.903 296.788 784.143 296.131 784.143 295.762C784.143 295.128 783.606 295.271 783.459 295.946C783.296 296.688 781.853 297.887 780.598 298.323C778.463 299.065 776.879 303.642 778.758 303.642C779.903 303.642 779.509 305.314 777.547 304.984C775.704 304.673 776.6 305.914 775.028 304.318C773.428 302.694 770.821 302.012 770.732 301.183C770.65 300.41 770.734 300.412 770.479 301.183C770.067 302.422 766.708 303.714 766.276 302.8C765.867 301.933 762.172 300.298 762.172 299.662C762.172 299.375 761.864 299.487 761.279 299.986C759.355 301.629 758.966 299.691 760.465 295.932C761.29 293.866 761.299 293.697 760.62 293.193C759.941 292.689 759.946 292.552 760.702 290.987C762.628 287.003 761.911 281.772 760.154 277.806C758.987 275.174 757.123 272.68 754.663 270.487C752.486 268.545 749.777 267.125 747.154 265.492C745.717 264.598 739.624 262.266 738.723 262.266C738.384 262.266 738.044 261.973 737.969 261.615C737.849 261.047 737.54 260.952 735.55 260.876C732.494 260.758 732.26 260.385 731.795 254.887C731.478 251.148 730.87 249.535 731.501 249.535C731.752 249.535 732.085 249.265 732.24 248.935C732.544 248.292 731.336 247.11 730.662 247.39C729.937 247.691 732.871 248.784 730.83 249.142C729.214 249.426 731.153 251.693 728.326 260.646C723.658 261.247 723.593 261.128 723.761 262.09C723.873 262.73 723.759 262.888 723.275 262.763C722.293 262.511 719.94 263.808 719.208 264.135C717.554 264.874 715.953 265.67 714.443 266.538C706.539 271.082 700.566 277.577 700.566 284.734C700.566 288.308 700.586 288.296 697.225 286.631C694.746 285.402 694.535 285.211 694.535 284.198C694.535 282.739 693.673 282.714 693.673 284.263C693.673 285.247 693.501 285.472 692.57 285.71C690.993 286.112 692.243 286.571 691.611 286.571C690.441 286.571 686.375 289.978 685.741 291.49C684.114 295.37 683.025 293.365 682.732 297.361C682.68 298.073 682.448 298.31 681.735 298.379C680.698 298.48 680.098 299.663 680.278 301.255C680.539 303.567 677.633 300.209 677.433 305.31C677.321 308.171 677.596 307.867 673.879 306.824L674.141 304.141C674.802 297.392 667.825 298.269 667.825 295.617C667.825 294.378 666.963 294.34 666.963 295.637C666.963 298.072 661.464 297.416 660.633 302.702C660.333 304.609 659.405 305.023 659.799 302.171C660.712 295.571 653.177 295.768 653.177 293.354C653.177 291.779 651.223 292.495 653.927 288.047C655.278 285.824 655.359 286.372 653.874 285.515C653.227 285.14 652.829 284.689 652.992 284.512C654.442 282.936 654.584 280.589 654.865 278.804C655.275 276.208 655.502 273.535 655.188 270.928C654.492 265.133 650.964 259.398 645.849 254.743C643.383 252.498 640.644 250.807 637.453 249.105C630.856 245.589 624.313 243.989 624.313 243.302C624.313 242.714 623.14 242.393 620.156 242.165C617.225 241.94 617.461 242.146 616.497 238.974C615.654 236.198 615.976 233.148 615.146 229.934C614.71 228.247 614.741 228.084 615.619 227.456C617.239 226.298 616.075 224.35 614.071 224.867C613.539 225.004 613.594 225.085 614.346 225.272C615.775 225.627 616.002 226.39 614.863 227.01C613.51 227.745 613.113 227.09 613.113 227.528C613.113 228.147 614.247 227.118 613.742 229.353C613.279 231.407 613.27 232.973 612.914 235.791C612.205 241.403 611.934 241.905 609.473 242.164C601.048 243.051 607.28 243.437 602.123 244.933C597.909 246.155 594.099 248.265 590.763 250.334C587.621 252.284 584.306 254.467 582.319 257.046C581.416 258.218 578.648 260.681 578.648 261.366C578.648 262.424 571.319 269.902 575.895 282.595L576.945 285.507L575.1 286.826C577.875 290.688 578.414 294.673 577.746 294.673C577.185 294.673 577.544 293.049 576.925 292.792C576.67 292.686 576.494 293.02 576.494 293.614C576.494 295.101 574.619 295.695 571.435 298.24C569.356 299.903 563.536 298.482 563.016 296.185C562.651 294.573 563.247 297.063 561.835 297.571C560.59 298.018 561.699 298.666 561.217 298.375C559.235 297.174 556.051 301.528 556.389 304.977C556.638 307.522 556.602 307.693 555.83 307.693C554.273 307.693 556.336 308.272 550.219 308.272C545.476 308.272 545.497 308.282 545.411 306.068C545.345 304.378 544.334 303.115 542.962 303.008C540.938 302.851 542.199 301.401 540.614 299.881C539.157 298.484 540.905 295.573 537.091 293.226C535.481 292.236 532.544 288.041 530.488 287.603C529.267 287.343 530.477 286.851 529.345 282.649C528.962 281.225 528.571 279.735 528.477 279.338C526.809 272.315 516.112 266.107 507.105 263.189C506.081 262.75 505.204 262.436 503.966 262.343C499.153 261.978 500.596 257.206 499.536 252.633C499.349 251.824 499.475 251.391 500.016 250.99C500.829 250.386 500.6 249.4 499.586 249.138C499.066 249.004 499.05 249.075 499.494 249.565C500.57 250.751 498.351 249.968 498.243 252.573L498.078 256.413C497.94 259.598 497.089 258.874 497.439 259.943C497.854 261.215 496.376 261.277 496.689 261.907C496.999 262.532 492.959 262.014 491.983 262.625C490.462 263.579 488.059 264.071 486.308 264.828C484.065 265.798 481.968 266.92 480.051 268.166C475.624 271.045 472.45 274.5 470.171 278.325C467.778 282.354 468.114 291.25 470.768 294.134C471.324 294.738 468.359 294.814 470.544 298.29C471.022 299.051 471.138 302.146 470.699 302.454C470.423 302.648 469.146 301.812 468.772 301.193C468.417 300.605 468.417 300.605 468.39 301.202C468.35 302.083 464.054 304.119 464.054 304.708C464.054 305.314 463.599 305.164 461.901 304.001C459.911 302.638 460.532 302.719 459.599 303.549C458.641 304.402 459.015 304.888 458.501 304.675C457.978 304.458 457.161 305.627 456.183 306.283C454.76 307.239 456.191 307.421 451.561 306.791V304.503C451.561 299.069 447.18 299.87 446.345 297.853C445.995 297.009 445.945 297.329 445.768 297.783C445.48 298.522 444.453 299.592 444.031 299.592C442.597 299.592 440.431 302.114 440.739 303.426C440.859 303.936 439.145 303.583 438.286 302.919C436.952 301.888 435.978 302.371 436.306 301.797C436.462 301.524 436.066 301.34 435.042 301.211C433.354 300.998 433.167 300.784 432.814 298.655C432.313 295.634 432.131 295.12 431.716 295.561C430.826 296.505 432.203 300.863 429.233 301.094C428.418 301.157 428.041 301.373 427.944 301.834C427.555 303.671 426.358 302.481 426.505 300.404C426.631 298.598 426.567 298.367 426.019 298.673C423.806 299.906 422.107 295.908 423.502 292.749C423.756 292.171 423.751 291.735 423.485 291.557C421.983 290.548 422.437 266.86 422.098 261.398C421.965 259.252 424.963 254.405 427.479 252.698C432.413 249.352 424.258 245.21 424.705 246.822C424.863 247.391 421.465 247.119 421.242 246.545C421.101 246.183 420.789 246.049 420.353 246.161C419.303 246.431 419.696 247.482 419.207 220.854C424.154 213.493 423.865 216.136 422.857 212.137C422.454 210.54 421.404 211.302 421.404 210.725C421.404 210.514 420.881 210.455 419.938 210.558C418.718 210.69 418.433 210.619 418.243 210.132C417.664 208.643 417.12 211.922 417.048 205.933C416.986 200.736 416.943 200.955 418.62 198.003C420.872 194.039 419.277 195.355 419.236 192.681C419.221 191.726 418.202 190.588 417.777 191.05C417.324 191.542 415.082 190.827 415.615 191.406C415.973 191.795 411.434 190.3 413.044 187.153C413.546 186.172 413.526 185.978 412.877 185.496C412.473 185.196 412.182 184.896 412.231 184.829C413.081 183.679 414.046 183.221 413.249 182.577C411.924 181.504 416.496 180.926 414.285 178.053C413.398 176.902 414.531 177.185 413.219 176.94C412.609 176.826 412.093 176.494 412.029 176.173C411.206 172.065 411.094 170.636 411.55 170.053C412.573 168.745 409.396 167.083 411.264 166.602C412.76 166.216 412.304 164.168 410.727 164.187C410.038 164.195 410.039 164.216 410.742 164.491C412.013 164.988 411.681 165.904 410.155 166.109C407.404 166.478 411.468 166.049 409.704 168.649C408.795 169.989 410.352 169.307 409.775 173.034C409.283 176.214 409.183 176.429 408.011 176.833C406.71 177.281 407.79 176.853 406.951 178.202C406.138 179.508 406.144 179.541 407.386 180.771C409.47 182.833 407.943 184.13 408.739 187.841C409.035 189.222 408.295 190.798 407.351 190.798C407.024 190.798 406.755 190.635 406.75 190.436C406.741 189.926 405.859 190.745 406.169 191.575C406.584 192.684 405.83 192.981 405.191 191.961C404.247 190.452 403.456 191.714 402.872 191.079C401.489 189.576 402.174 195.613 403.637 197.811C405.62 200.822 405.212 199.276 405.212 204.831C405.181 209.374 404.978 210.99 404.407 211.609C404.017 212.034 403.402 212.002 403.426 211.558C403.479 210.596 403.24 210.239 402.449 210.1C401.147 209.872 402.05 210.473 400.726 210.473C400.045 210.473 399.864 210.666 399.864 211.393C399.864 213.487 398.258 213.677 399.586 215.04C400.273 215.745 401.415 217.352 403.737 220.456C403.737 241.993 404.04 245.721 403.401 245.557C402.51 245.327 402.659 246.627 401.86 246.664C400.859 246.709 399.803 247.049 399.11 246.432C397.756 245.226 399.668 248.238 397.214 246.747C396.511 246.32 396.41 246.318 396.175 246.729C396.032 246.979 395.689 247.127 395.413 247.057C394.187 246.749 394.632 250.474 395.932 251.412C397.45 252.507 399.663 255.185 400.957 257.494C402.199 259.709 402.834 288.141 401.691 290.355C401.234 291.24 401.716 297.469 401.802 298.902C401.031 298.942 399.354 299.105 398.934 298.66C398.735 298.449 398.585 299.097 398.585 300.171C398.585 302.233 398.696 302.421 400.334 303.12C402.023 303.84 402.542 312.066 401.038 314.259C399.392 316.657 400.457 322.74 399.696 322.74C399.485 322.74 399.098 322.937 398.835 323.178C397.049 324.816 393.412 322.891 393.404 320.304C393.402 319.264 392.885 319.359 392.885 320.912C392.886 322.661 391.006 323.92 390.264 322.667C390.147 322.468 389.302 322.063 388.387 321.767C386.074 321.019 385.439 321.045 385.405 319.812C385.287 315.614 383.074 319.471 383.052 315.296C383.029 311.093 375.324 302.129 372.679 303.227C372.051 303.488 371.218 301.624 369.923 301.615C368.165 301.602 367.123 300.249 367.123 297.981C367.123 295.402 365.83 294.926 365.83 298.216C365.83 302.445 363.19 300.972 362.053 302.196C361.271 303.037 360.903 302.48 359.233 303.363C357.958 304.036 357.289 303.81 355.913 303.58C355.913 302.05 355.984 280.792 355.658 279.282C355.44 278.273 355.521 278.182 357.127 277.631C358.108 277.295 358.938 276.768 359.091 276.385C359.506 275.345 359.4 272.006 358.937 271.525C358.583 271.157 358.518 271.171 358.513 271.616C358.505 272.225 357.83 272.097 355.706 271.959C355.611 269.145 355.327 264.894 355.972 264.084C356.344 263.617 356.354 263.34 356.009 263.06C355.301 262.487 354.091 258.215 354.371 257.275C354.83 255.734 353.141 255.926 354.156 254.652C354.577 254.123 354.599 253.799 354.243 253.352C353.618 252.568 353.633 250.32 354.267 249.894C354.644 249.641 354.64 249.458 354.25 249.143C353.875 248.839 353.739 246.377 353.75 240.088C353.768 229.703 353.132 229.94 353.747 229.442C354.092 229.163 354.125 228.858 353.846 228.504C350.751 224.562 357.614 209.316 362.483 209.316C363.207 209.316 361.932 206.702 362.832 205.974C363.788 205.2 361.964 205.005 361.946 204.085C361.941 203.745 361.869 203.749 361.531 204.108C361.204 204.454 361.023 204.35 360.629 203.592C359.676 201.756 359.309 204.167 358.714 202.347C358.493 201.671 358.313 201.533 358.035 201.827C357.694 202.189 357.464 201.984 357.594 201.431C357.644 201.216 355.922 200.931 355.922 201.793C355.922 202.579 354.484 202.474 354.886 202.037C355.107 201.797 354.762 201.75 353.673 201.868C352.369 202.01 352.071 201.933 351.586 201.324C350.076 199.429 349.585 206.49 349.5 190.688C349.353 163.274 347.593 169.413 351.389 164.009C352.716 162.118 354.085 160.465 354.431 160.335C355.218 160.039 355.289 157.65 354.522 157.32C353.014 156.673 354.765 153.641 352.881 153.972C352.229 154.086 351.93 153.964 351.753 153.51C351.621 153.171 351.486 152.894 351.453 152.894C351.135 152.894 348.428 153.602 348.859 153.133C349.349 152.601 346.975 153.487 347.493 152.925C347.655 152.748 347.629 152.604 347.436 152.604C345.642 152.604 345.417 141.229 347.163 138.716C348.65 136.573 350.379 132.935 350.069 132.599C349.91 132.427 349.704 131.551 349.61 130.654C349.083 125.582 347.748 130.916 347.73 128.427C347.723 127.54 346.892 125.898 346.882 128.227C346.872 130.337 346.191 129.902 346.212 128.952C346.225 128.339 346.018 128.151 345.299 128.125C344.539 128.097 344.404 128.22 344.56 128.797C344.835 129.816 343.859 129.216 343.859 128.699C343.859 127.927 341.37 126.737 341.103 124.96C340.789 122.87 340.034 122.51 341.045 121.473C341.715 120.786 341.718 120.686 341.079 120.212C340.367 119.683 340.529 117.469 341.303 117.148C341.493 117.069 341.545 116.576 341.419 116.052C340.882 113.832 345.118 113.428 342.567 110.07C341.539 108.716 341.48 108.294 342.352 108.519C343.548 108.827 342.962 107.465 341.88 108.068C341.195 108.449 339.408 107.886 339.683 107.374C339.783 107.186 339.663 106.772 339.414 106.454C338.728 105.575 338.243 99.7054 338.79 98.8992C339.15 98.368 339.049 97.9063 338.315 96.7185C337.195 94.909 337.1 95.4093 338.467 94.4513C339.636 93.6321 339.921 92.2052 339.035 91.6104C338.39 91.1774 336.256 91.1552 335.867 91.5775C335.678 91.7823 335.996 91.8579 336.778 91.7945C339.421 91.5803 338.523 94.5534 335.843 94.0022C335.18 93.866 335.209 93.9251 335.998 94.3203C337.145 94.8951 337.221 95.5916 336.27 96.8272C335.706 97.5595 335.652 98.0138 335.99 99.1999C337.176 103.367 335.7 108.512 333.432 108.113C332.696 107.984 332.57 108.051 332.798 108.451C333.33 109.382 329.899 111.73 333.792 114.345C334.53 114.841 334.563 116.048 333.843 116.249C333.463 116.356 333.552 116.533 334.15 116.856C335.094 117.366 335.233 119.364 334.373 120.06C334.016 120.349 334.029 120.623 334.424 121.119C335.545 122.526 334.775 126.94 333.501 126.411C333.307 126.33 333.011 126.415 332.842 126.598C332.444 127.03 331.566 126.085 330.954 125.551C330.949 125.919 331.022 126.923 330.504 126.708C330.267 126.61 330.074 126.645 330.074 126.787C330.074 127.16 327.334 127.115 326.957 126.737C326.525 126.302 326.766 129.427 326.171 131.158C325.161 134.1 328.781 136.849 328.781 137.832C328.781 138.016 329.046 138.517 329.369 138.947C330.42 140.344 330.67 151.81 329.644 151.592C327.899 151.22 330.098 156.253 327.678 154.904C326.262 154.115 328.135 152.315 326.402 152.315C324.887 152.315 324.3 151.21 324.545 152.132C324.745 152.885 323.313 153.481 322.714 152.894C321.899 152.094 323.007 155.862 322.02 156.413C321.155 156.895 321.33 158.578 322.309 159.191C323.384 159.864 326.99 165.177 327.841 166.389C327.856 167.317 328.333 200.093 328.617 200.402C328.884 200.692 327.489 200.791 327.489 200.219C327.489 199.291 325.586 199.382 325.218 200.327C324.982 200.932 321.8 201.471 321.542 200.95C321.292 200.447 320.678 200.587 320.381 201.214C320.163 201.676 319.946 201.735 319.303 201.504C316.448 200.477 318.028 203.289 316.585 201.963C315.904 201.338 315.938 202.002 315.469 207.146C321.164 210.888 325.453 215.545 325.315 223.462C325.203 229.931 326.143 229.718 325.144 230.201C324.896 230.32 324.949 230.708 325.278 231.194C326.161 232.495 325.625 253.616 325.693 253.672C326.051 253.962 326.1 255.177 325.753 255.177C325.6 255.177 325.569 260.141 323.872 260.883C323.53 261.033 323.547 261.255 323.935 261.675C324.31 262.082 324.473 263.747 324.473 267.181C324.473 272.905 324.826 272.104 323.418 272.104C321.649 272.104 321.487 270.121 321.477 273.551C321.468 276.654 321.689 277.187 323.159 277.595C324.887 278.076 324.909 280.621 324.909 299.881H309.395V302.11C295.79 302.822 276.181 302.459 275.95 302.054C275.154 300.662 241.688 298.926 241.14 300.248C241.125 300.285 241.21 306.76 241.328 314.638C241.543 328.954 241.484 329.793 240.307 329.137C239.39 328.625 239.095 329.328 239.601 329.538C242.055 330.556 240.501 332.577 237.264 332.577C236.624 332.577 235.71 332.718 235.231 332.89C233.94 333.354 233.633 332.902 234.806 332.263C236.27 331.466 234.866 331.97 234.866 331.275C234.866 330.703 233.177 330.713 231.946 331.292C230.782 331.839 230.767 331.672 231.792 329.584C232.671 327.795 232.299 327.396 231.143 328.888C230.194 330.112 230.583 330.092 229.762 328.816C228.908 327.488 229.512 327.306 228.184 327.712C226.837 328.125 227.299 328.16 226.646 329.304C226.04 330.363 226.343 330.325 225.555 329.322C224.643 328.162 223.344 328.767 222.959 328.093C222.822 327.854 222.441 327.659 222.11 327.659C221.349 327.659 221.346 327.644 222.372 329.25C224.424 332.466 221.92 330.217 221.054 331.159C220.302 331.976 218.526 330.909 218.957 329.899C219.479 328.676 218.859 328.263 217.414 328.87C216.145 329.404 213.699 329.453 213.157 328.955C212.455 328.311 211.85 329.077 212.262 330.087C212.724 331.215 210.309 328.827 210.309 329.332C210.309 330.299 207.504 330.224 207.231 329.25C206.978 328.349 199.318 328.207 198.898 329.095C198.543 329.847 198.633 329.67 195.622 329.997L196.288 329.131C197.407 327.677 195.959 327.173 194.663 328.566C194.102 329.169 193.45 329.291 193.615 328.761C193.944 327.711 192.121 328.279 191.444 329.438C190.524 331.011 190.803 330.967 190.438 329.824C189.79 327.788 190.526 326.031 189.38 326.326C188.362 326.588 187.907 326.37 187.907 326.935C187.907 327.509 186.615 327.509 186.615 326.935C186.615 326.335 185.753 326.686 184.475 326.15C183.411 325.704 183.218 325.849 182.811 327.402C182.496 328.604 182.45 328.637 181.947 328.02C181.24 327.155 180.691 327.196 180.691 328.114C180.691 329.418 178.22 330.094 176.159 329.353C174.602 328.793 175.447 329.785 174.309 329.492C173.489 329.281 173.473 329.973 174.337 329.973C175.201 329.973 175.197 330.589 174.337 330.367C173.92 330.26 173.691 330.374 173.691 330.689C173.691 331.084 173.424 331.142 172.291 330.995C170.984 330.826 171.362 331.374 172.826 331.771C173.201 331.873 173.708 334.313 173.354 334.313C173.215 334.313 172.653 334.032 172.107 333.687C171.036 333.011 168.677 333.326 169.058 334.094C169.554 335.092 166.81 335.984 163.674 335.845C161.658 335.755 161.197 335.818 161.197 336.181C161.197 336.643 159.905 337.129 159.905 335.596C159.905 333.49 158.182 335.949 158.182 334.044C158.182 333.247 157.398 332.735 157.266 333.446C157.236 333.605 157.164 333.865 157.105 334.024C156.792 334.863 157.175 335.412 156.237 334.889C154.476 333.907 158.094 333.294 151.72 333.941C149.818 334.134 149.375 334.28 149.477 334.682C149.562 335.02 149.319 335.182 148.723 335.182C147.378 335.182 148.3 335.76 146.981 335.76C145.168 335.76 147.157 332.154 144.595 333.282C143.633 333.705 143.598 333.687 143.334 332.635C142.679 330.031 141.998 330.959 141.41 335.254C141.28 336.208 140.519 335.158 140.519 334.024C140.519 331.682 139.514 333.128 138.951 332.144C138.579 331.491 137.503 331.622 137.503 332.32C137.503 332.84 137.329 332.901 136.318 332.733C134.441 332.422 134.426 332.373 134.447 326.263C134.473 318.906 135.744 320.052 123.933 319.788C124.166 330.358 124.463 332.92 121.911 330.625C120.53 329.383 118.847 329.996 120.103 331.284C120.532 331.724 120.67 332.188 120.465 332.503C120.082 333.092 120.081 333.101 120.454 333.928C120.846 334.798 119.279 334.517 118.094 333.505C116.589 332.22 115.24 332.477 115.461 331.444C115.595 330.815 115.499 330.782 114.06 330.963C112.557 331.152 112.516 331.134 112.516 330.255C112.516 328.778 111.071 329.217 110.11 330.986C109.835 331.493 109.763 331.457 109.534 330.697C109.073 329.164 107.807 330.336 106.887 329.388C106.18 328.658 106.885 330.959 106.356 331.314C106.19 331.426 106.054 331.261 106.054 330.948C106.054 330.411 105.316 329.685 104.772 329.685C104.299 329.685 105.51 333.786 103.302 330.794C102.803 330.118 99.5919 329.601 99.5919 330.196C99.5919 330.337 98.9893 330.393 98.2528 330.32C96.7976 330.177 96.7442 330.955 98.1361 332.023C99.0234 332.704 98.544 332.808 95.9189 332.504C93.5026 332.224 92.0223 332.366 92.4541 332.835C92.5862 332.978 92.3812 333.177 91.9986 333.275C91.2867 333.459 91.2856 333.475 92.085 331.757C92.4808 330.906 89.7525 331.292 89.1561 332.171C88.0759 333.763 87.9604 331.713 87.9604 329.96C87.5173 330.155 85.7549 330.841 86.0508 331.163C86.3133 331.448 85.2906 331.726 84.6428 330.625C84.0187 329.564 84.1898 329.516 84.1288 330.769C84.077 331.83 83.0965 332.056 82.39 331.169C82.0892 330.792 81.636 330.67 80.8875 330.766C79.8753 330.896 79.8516 330.941 80.4647 331.569C81.4395 332.568 80.438 332.761 78.8713 331.875C77.1635 330.91 74.7087 330.892 75.8967 331.854C76.3621 332.23 73.1034 332.015 72.1121 331.603C71.3105 331.271 71.4913 330.516 72.4113 330.354C73.8608 330.099 73.8712 329.106 72.4242 329.106C71.5004 329.106 71.2486 328.995 71.4335 328.672C71.8466 327.949 69.7809 328.151 68.4803 328.961C64.2519 331.594 69.631 326.201 69.3403 325.006C69.1986 324.423 69.0362 324.518 68.1399 325.71C66.8759 327.391 66.1808 327.324 66.2738 325.531C66.372 323.637 65.5577 324.117 65.5577 324.742C65.5577 326.139 64.1602 326.779 63.617 325.629C63.2447 324.842 62.9414 325.702 61.7121 324.302C60.8499 323.321 60.7431 323.286 59.8391 323.682C58.1166 324.437 56.9418 323.484 56.9418 324.487C56.9418 325.18 56.9651 325.084 54.4355 323.828C53.9074 324.098 51.3412 325.338 51.3412 325.699C51.3412 326.125 50.0488 325.506 50.0488 325.951C50.0488 326.119 49.671 326.171 49.1938 326.069C46.1636 325.423 42.9933 326.122 44.7986 327.039C45.7689 327.531 45.7777 327.578 45.1384 328.825C44.5107 330.048 44.5223 330.134 45.4002 330.762C47.3188 332.133 44.7011 331.987 43.4336 330.545C42.2799 329.234 41.9786 329.996 37.9879 329.526C35.4676 329.23 35.7324 329.018 37.2776 330.378C40.3335 333.069 35.3752 330.397 35.9638 331.039C36.5351 331.661 35.5684 331.693 33.8093 331.108C31.2568 330.26 26.3547 331.273 26.3547 332.649C26.3547 333.217 23.7686 334.518 24.4536 333.084C25.5161 330.859 25.8915 327.37 25.0681 327.37C24.5095 327.37 23.339 329.271 23.339 330.178C23.339 331.053 22.2514 331.172 22.2891 329.294C22.3208 327.722 20.9365 327.252 20.6685 328.744L20.5257 329.54C18.5032 328.107 15.5985 325.901 16.1547 328.626C16.6035 330.825 14.9135 330.053 15.9185 331.134C16.6784 331.952 16.6101 332.451 15.7999 331.999C15.3536 331.75 15.1538 331.739 15.1538 331.964C15.1538 332.53 14.4592 332.315 13.8612 331.565C13.3223 330.888 10.4151 329.477 10.4151 329.892C10.4151 330.407 14.4702 332.246 9.73315 331.445C5.90347 330.797 7.29076 332.522 5.07732 331.727C2.8083 330.911 1.91968 332.695 2.341 330.585C2.69987 328.789 1.79914 329.767 1.79914 328.961C1.79914 328.722 1.42459 328.527 0.96666 328.527C0.151245 328.527 0.00153351 328.708 -0.542816 330.347C-0.845535 331.259 -1.64719 331.139 -1.64719 330.182V329.556C-2.9453 330.8 -3.4192 331.416 -4.18426 329.941C-4.96335 328.44 -5.694 329.808 -6.08781 328.796C-6.56061 327.582 -7.2475 328.279 -7.2475 329.974C-7.2475 331.868 -7.26869 331.888 -8.66286 331.324C-10.1737 330.713 -11.3403 330.87 -11.3403 331.684C-11.3403 332.599 -12.0701 332.736 -13.0539 332.006C-14.9325 330.612 -16.8145 331.469 -15.0018 332.892C-13.1588 334.34 -13.3129 334.608 -15.8731 334.404C-19.2721 334.133 -25.7723 334.848 -25.7723 335.492C-25.7723 335.776 -26.0847 336.05 -26.4666 336.101C-27.3404 336.219 -27.653 338.654 -26.7941 338.654C-26.0291 338.654 -24.835 339.876 -25.297 340.187C-26.0847 340.715 -29.9765 337.671 -30.7636 339.048C-31.1186 339.67 -36.0898 339.609 -36.5918 340.154C-37.0318 340.633 -37.3723 338.381 -37.7771 337.931C-38.0352 337.643 -38.1084 337.473 -38.2116 336.918C-38.3101 336.389 -39.4954 336.619 -39.7805 337.222C-40.2844 338.289 -40.5054 336.908 -42.1109 337.485C-43.1333 337.853 -43.578 337.547 -45.2997 336.789C-44.7914 339.694 -44.2663 341.024 -48.2655 339.635C-50.559 338.838 -50.7131 339.811 -54.7696 339.811C-58.4982 339.811 -56.8539 341.626 -59.5897 341.537C-63.9428 341.395 -62.2663 342.994 -64.4046 342.994C-66.6607 342.994 -63.6505 343.969 -66.6166 343.648C-69.9152 343.292 -65.6356 344.255 -68.3691 344.622C-70.145 344.86 -70.025 344.63 -67.9695 347.089C-71.4566 346.345 -72.114 347.624 -70.1199 347.624C-69.1311 347.624 -69.007 348.069 -69.93 348.307C-70.9062 348.559 -70.3153 349.507 -71.0102 349.795C-72.3078 350.334 -72.7858 351.679 -71.7764 351.951C-70.9381 352.177 -71.06 352.219 -72.5959 352.235C-74.9893 352.259 -78.4123 350.927 -78.0473 350.113C-77.8324 349.633 -77.9695 349.586 -79.1264 349.741C-80.7443 349.959 -81.3968 349.452 -79.8375 349.189C-78.8812 349.028 -78.4277 348.409 -79.3111 348.47C-80.8604 348.577 -82.8468 348.289 -82.4968 348.902C-82.0853 349.622 -85.0958 350.018 -84.6425 349.224C-84.2718 348.575 -85.0768 348.414 -86.7913 348.794C-91.3329 349.801 -86.4489 345.822 -92.2881 347.485C-92.9973 347.687 -93.0766 347.616 -92.8864 346.948C-92.475 345.502 -94.7016 346.771 -94.7016 345.598C-94.7016 345.277 -94.9889 345.019 -95.3478 345.019C-96.085 345.019 -95.9967 349.551 -95.9967 389H1280C1280 345.397 1280.09 341.548 1279.32 341.548Z" fill="#00704A"/>
</svg>
