<svg width="287" height="255" viewBox="0 0 287 255" fill="none" xmlns="http://www.w3.org/2000/svg">
<path d="M109.667 217.833C109.667 217.833 107.917 227.5 107.5 229.167C107.167 230.5 106.167 231.5 105.167 232.5C104.833 232.833 104.583 233.5 104.417 234C104.25 234.417 104.333 234.917 104.583 235.333C109 242.417 118.25 243.75 118.333 243.167C118.5 242.083 116.75 240.25 114.75 239.5C112.75 238.833 111.25 237 110.75 234.917C110.333 233.25 110.333 231.5 110.833 229.833L113 222.417L109.667 217.833Z" fill="#B97A59"/>
<path d="M104.25 218.917L106.417 228.667C107.083 231.667 106.667 234.75 105.25 237.5C104.417 239 105.167 240.917 106.75 241.5C112 243.333 122.083 246.917 122.5 246.5C124.833 244.583 118.75 241.333 114.25 238C111.25 235.75 110.083 225.083 109.833 217L105 218.25C104.667 218.25 104.333 218.5 104.25 218.917Z" fill="#B97A59"/>
<path d="M113.25 240.75C115.417 241.5 117.75 241.667 119.917 242C120.167 242 120.417 242.167 120.583 242.25C122.667 243.833 123.75 245.5 122.5 246.5C122 246.917 110.083 242.667 105.5 241.083C104.5 240.75 104.083 239.583 104.583 238.667L105.5 237C107.917 238.5 110.5 239.833 113.25 240.75Z" fill="#0B4870"/>
<path d="M106.5 119.083C101 121 97.5832 128.5 100.083 135.5C101.5 139.583 108.417 153.667 115.167 164.583C117.75 168.75 118.083 174 115.833 178.333C115.5 179 115.167 179.75 114.917 180.5C113.833 184.167 111 204.833 109.583 218.583C110.25 220.167 111.667 222.167 113.083 222.583C117.917 210.167 125.25 187.833 126.417 183.917C127.083 181.75 127.75 179.333 128.167 177C131.5 170 123.667 136.417 121.333 129.833C118.833 122.917 111.917 117.167 106.5 119.083Z" fill="#0B4870"/>
<path d="M109.917 80.1667C114.795 80.1667 118.75 75.0553 118.75 68.75C118.75 62.4448 114.795 57.3334 109.917 57.3334C105.038 57.3334 101.083 62.4448 101.083 68.75C101.083 75.0553 105.038 80.1667 109.917 80.1667Z" fill="#0B4870"/>
<path d="M107.833 69.9167C107.667 63.5834 102.583 58.25 96.2499 57.9167C90.6666 57.5834 85.8333 61 83.9999 65.9167C83.3333 67.6667 81.6666 68.75 79.8333 68.75C79.0833 68.75 78.3333 68.8334 77.4999 69.0001C72.9166 69.9167 69.2499 73.8334 68.8333 78.5834C68.4166 82.8334 70.4166 86.5834 73.5833 88.75C74.9166 89.6667 75.7499 91.1667 75.9166 92.8334C76.9999 100.333 83.8333 105.917 91.6666 105C98.3333 104.25 103.75 98.75 104.333 92C104.667 87.9167 103.25 84.0834 100.75 81.25C105 79.3334 107.917 74.9167 107.833 69.9167Z" fill="#0B4870"/>
<path d="M109.917 53.5833C109.917 53.5833 114.917 56.75 114.25 60.9167C114.25 60.9167 116.917 59 117.5 52.5834C118 48.0834 109.917 53.5833 109.917 53.5833Z" fill="#0B4870"/>
<path d="M118 75.8333C120.667 77.1666 123.333 78.25 126.083 78.9167C128.833 79.5833 131.667 79.5833 134.583 79.1666C137.583 78.75 140.667 77.9167 144 77.3334C147.333 76.75 150.833 76.5833 154.083 77.0833C154.667 77.1666 155.083 77.75 155 78.3333C154.917 78.8333 154.5 79.25 154 79.25C150.833 79.4167 147.917 80 144.917 81.0834C142 82.0834 139 83.4167 135.667 84.4167C132.333 85.4167 128.583 85.8333 125 85.4166C121.417 85 118 84 114.75 82.6667C112.833 81.9167 111.833 79.6667 112.583 77.75C113.333 75.8334 115.583 74.8333 117.5 75.5833C117.583 75.5833 117.667 75.6667 117.75 75.6667L118 75.8333Z" fill="#B97A59"/>
<path d="M115.5 101.167C117.5 95.1667 121.5 82.4167 121.167 78.3333C120.917 75.6667 118.75 73.6667 116.083 73.6667H98.6665C95.8332 73.6667 93.4165 75.9167 93.3332 78.8334C93.1665 83.8334 95.4998 95.25 96.8332 101.25H115.5V101.167Z" fill="#EAEAEA"/>
<path d="M109.75 219C110 218.833 110.166 218.5 110.166 218.167C109.833 205.417 109 189.167 108.75 186.083C108.75 185.75 108.666 185.417 108.583 185C111.333 169.917 111.75 137.583 112 131.917C112.333 124.5 107.833 116.083 102.083 115.75C96.2498 115.5 89.9998 121.5 88.1665 128.333C86.9165 132.833 91.6665 156.833 96.8331 174.25C97.9165 177.917 98.0832 181.75 97.4998 185.5C97.0832 188.083 96.9998 190.833 97.1665 192.833C97.4165 195.917 100.833 208.333 104.083 219.083C104.166 219.417 104.416 219.667 104.75 219.667C106.5 220.083 108.166 220 109.75 219Z" fill="#0B4870"/>
<path d="M94.9167 108.75C95.8333 106.25 96.0833 103.5 95.6667 100.917C94.8333 94.75 93.25 83.25 93.4167 78.3333C93.5 75.6667 95.6667 73.6667 98.25 73.6667H100.833C101.833 75.9167 103.917 77.6667 107.083 77.6667C110.333 77.6667 112.333 75.9167 113.333 73.6667H115.75C113.167 79.25 114.083 86.6667 118.583 91C117.75 94 117 96.9167 116.5 99.3334C115.75 102.583 116.083 106 117.417 109.083C119.667 114.417 121.417 122.917 120.833 126.333C102.583 131.5 90 122.333 90 122.333L94.9167 108.75Z" fill="#EAEAEA"/>
<path d="M109.917 74.8334L102.083 74.0001L104.583 65.4167L109.667 66L109.917 74.8334Z" fill="#B97A59"/>
<path d="M109.667 66L104.583 65.3334L103.833 68.0001C105 69.2501 106.417 72.0834 108.25 72.0834C108.833 72.0834 109.333 71.9167 109.833 71.5834L109.667 66Z" fill="#AA6B4F"/>
<path d="M109.833 70.1667C108.083 70.1667 106.25 69.3334 103.667 67.0834C102.167 65.8334 101.083 63.5834 101.083 62V53.5834H114C114 53.5834 115 58.0834 114 62.5C113.333 65.8334 111.167 70.1667 109.833 70.1667Z" fill="#B97A59"/>
<path d="M103.25 60.4167C103.25 62.0834 102.5 63.4167 101.5 63.4167C100.5 63.4167 99.5 61.25 99.5 59.6667C99.5 58 100.583 57.5 101.5 57.5C102.5 57.4167 103.25 58.75 103.25 60.4167Z" fill="#B97A59"/>
<path d="M99.4998 54.5834C99.4998 52 101.667 49.8334 104.25 49.8334H108.583C109.833 49.8334 111.083 49.5 112.083 48.9167C113.583 48.0833 115.583 48.3333 116.583 49.75C117.75 51.25 118.25 53.3334 115.333 55.25C113.917 56.1667 111.833 55.1667 110.417 55.5833C110.333 55.5833 110.25 55.5833 110.166 55.5833H106.333C105 55.5833 104 56.6667 103.916 58C103.916 58.8334 103.167 59.5 102.333 59.5H102.167L101.583 57.5L99.4165 60.4167V54.5834H99.4998Z" fill="#0B4870"/>
<path d="M158.667 76.1667C158.667 76.1667 156.583 80.25 155.167 80C153.75 79.75 152.75 79.4167 153 77.25C153.25 75.1667 154.583 72.3333 155.667 70.8333C156.75 69.3333 159.75 67.5834 160.25 67.5834C161.833 67.6667 159.5 70.1667 158.417 71.5001C157.333 72.7501 156.25 74.3334 157 74.6667C157.75 75 159.667 72.4167 160.667 72.5C161.667 72.5833 158.667 76.1667 158.667 76.1667Z" fill="#B97A59"/>
<path d="M113.083 53.4167C112.667 55.3334 113.25 56.4167 107 59.4167C100.667 62.4167 98.75 61.1667 96.75 64.3333C96.75 64.3333 97.5833 59 101.083 57.1667C104.583 55.3334 110.583 54.1667 112.5 49.9167C112.5 49.9167 113.333 52.1667 113.083 53.4167Z" fill="#0B4870"/>
<path d="M98.6667 81.5C98.3333 81.75 98.0833 81.9167 97.8333 82.1667C97.5833 82.3334 97.3333 82.5 97.0833 82.6667C96.5833 83 96.0833 83.3334 95.5833 83.5834C94.5833 84.1667 93.5 84.6667 92.4167 85.1667C90.25 86.0833 87.9166 86.6667 85.5833 87.0833C80.8333 87.75 76 87.0833 71.6667 85.4167C69.5 84.5833 67.5 83.5 65.5833 82.25C63.6666 81 61.9167 79.5833 60.25 78.0833C57 75.0833 54.1667 71.5834 51.75 68C51.5 67.5834 51.5833 67.0833 52 66.8333C52.3333 66.5833 52.8333 66.6667 53.0833 67C56 70.1667 59 73.0833 62.3333 75.5833C65.6667 78 69.25 80.0834 73.0833 81.1667C75 81.6667 76.9167 82.0834 78.8333 82.1667C80.75 82.25 82.6667 82.0834 84.5833 81.75C86.5 81.4167 88.3333 80.75 90.0833 80C90.9167 79.5833 91.8333 79.1667 92.6666 78.6667C93.0833 78.4167 93.5 78.1667 93.8333 77.9167C94 77.75 94.25 77.6667 94.4167 77.5L94.9167 77.1667L95.0833 77C96.3333 76 98.1667 76.25 99.1667 77.5C100.083 78.75 99.9167 80.5 98.6667 81.5Z" fill="#B97A59"/>
<path d="M111.833 53.8334C111.833 53.8334 112.083 60.3334 117.75 63.4167C117.75 63.4167 115.25 58.5 115.417 55.3334C115.583 52.0834 111.5 51.5834 111.833 53.8334Z" fill="#0B4870"/>
<path d="M103 238C102.583 237.667 102.417 237 102.667 236.5C102.917 236.083 103.5 235 103.917 234.167C104.083 233.833 104.583 233.75 104.833 234.083C107.667 237.833 111.583 240.333 116 240C117.583 240.667 118.917 242.583 118.75 243.5C118.75 243.667 116.833 244.167 114.583 243.417C104.75 240.167 103 238 103 238Z" fill="#0B4870"/>
<path d="M53.4166 64.1667C53.4166 64.1667 56.1666 67.8334 55.3333 69.0834C54.4999 70.3334 53.6666 71 51.9166 69.8334C50.0833 68.6667 48.1666 66.25 47.2499 64.5C46.3333 62.75 46.1666 59.3333 46.3333 58.9167C47.1666 57.5 48.4166 60.75 49.0833 62.3334C49.7499 63.9167 50.6666 65.5833 51.3333 65C52 64.5 50.4166 61.5834 50.9999 60.75C51.5833 59.8334 53.4166 64.1667 53.4166 64.1667Z" fill="#B97A59"/>
<path d="M269.417 254.667H175C165.25 254.667 157.417 246.75 157.417 237.083V18.1667C157.417 8.41671 165.333 0.583374 175 0.583374H269.333C279.083 0.583374 286.917 8.50005 286.917 18.1667V237.083C287 246.75 279.083 254.667 269.417 254.667Z" fill="#0B4870"/>
<path d="M268.667 245.667H175.75C168.917 245.667 163.417 240.167 163.417 233.333V20.3334C163.417 13.5 168.917 8.00003 175.75 8.00003H268.667C275.5 8.00003 281 13.5 281 20.3334V233.333C281 240.167 275.5 245.667 268.667 245.667Z" fill="#F7F7F7"/>
<path d="M257.417 8.00002H249.75C247.417 8.00002 245.5 9.91669 245.5 12.25V15.25C245.5 17.5834 243.583 19.5 241.25 19.5H207.167C204.833 19.5 202.917 17.5834 202.917 15.25V12.25C202.917 9.91669 201 8.00002 198.667 8.00002H176.917V5.83337H257.417V8.00002Z" fill="#0B4870"/>
<path opacity="0.17" d="M220.583 108.167C229.972 108.167 237.583 100.556 237.583 91.1667C237.583 81.7778 229.972 74.1667 220.583 74.1667C211.195 74.1667 203.583 81.7778 203.583 91.1667C203.583 100.556 211.195 108.167 220.583 108.167Z" fill="#2A94F4"/>
<mask id="mask0_2331_75" style="mask-type:luminance" maskUnits="userSpaceOnUse" x="203" y="74" width="35" height="35">
<path d="M220.583 108.167C229.972 108.167 237.583 100.556 237.583 91.1667C237.583 81.7778 229.972 74.1667 220.583 74.1667C211.195 74.1667 203.583 81.7778 203.583 91.1667C203.583 100.556 211.195 108.167 220.583 108.167Z" fill="white"/>
</mask>
<g mask="url(#mask0_2331_75)">
<path d="M227.167 87.2501C227.167 90.9167 224.25 93.8334 220.583 93.8334C216.917 93.8334 214 90.9167 214 87.2501C214 83.5834 216.917 80.6667 220.583 80.6667C224.25 80.6667 227.167 83.5834 227.167 87.2501ZM230.5 114.333V104.917C230.5 99.6667 226.25 95.3333 220.917 95.3333H220.167C214.917 95.3333 210.583 99.5833 210.583 104.917V114.333C210.583 115.833 211.75 117 213.25 117H227.833C229.333 117 230.5 115.833 230.5 114.333Z" fill="#2A94F4"/>
</g>
<path opacity="0.17" d="M261.333 127.583H179.833C176.083 127.583 173.083 124.583 173.083 120.833C173.083 117.083 176.083 114.083 179.833 114.083H261.333C265.083 114.083 268.083 117.083 268.083 120.833C268.083 124.5 265.083 127.583 261.333 127.583Z" fill="#2A94F4"/>
<path d="M258.5 122.583H182.667C181.667 122.583 180.917 121.833 180.917 120.833C180.917 119.833 181.667 119.083 182.667 119.083H258.5C259.5 119.083 260.25 119.833 260.25 120.833C260.25 121.75 259.5 122.583 258.5 122.583Z" fill="#2A94F4"/>
<path opacity="0.17" d="M261.417 151.75H179.917C176.167 151.75 173.167 148.75 173.167 145C173.167 141.25 176.167 138.25 179.917 138.25H261.417C265.167 138.25 268.167 141.25 268.167 145C268.167 148.75 265.083 151.75 261.417 151.75Z" fill="#2A94F4"/>
<path d="M182 146.917C181 146.917 180.25 146.167 180.25 145.167C180.25 144.167 181 143.417 182 143.417C183 143.417 183.75 144.167 183.75 145.167C183.75 146.167 182.917 146.917 182 146.917ZM189 145.167C189 144.167 188.25 143.417 187.25 143.417C186.25 143.417 185.5 144.167 185.5 145.167C185.5 146.167 186.25 146.917 187.25 146.917C188.167 146.917 189 146.167 189 145.167ZM194.167 145.167C194.167 144.167 193.417 143.417 192.417 143.417C191.417 143.417 190.667 144.167 190.667 145.167C190.667 146.167 191.417 146.917 192.417 146.917C193.417 146.917 194.167 146.167 194.167 145.167ZM199.417 145.167C199.417 144.167 198.667 143.417 197.667 143.417C196.667 143.417 195.917 144.167 195.917 145.167C195.917 146.167 196.667 146.917 197.667 146.917C198.667 146.917 199.417 146.167 199.417 145.167ZM204.667 145.167C204.667 144.167 203.917 143.417 202.917 143.417C201.917 143.417 201.167 144.167 201.167 145.167C201.167 146.167 201.917 146.917 202.917 146.917C203.917 146.917 204.667 146.167 204.667 145.167ZM209.917 145.167C209.917 144.167 209.167 143.417 208.167 143.417C207.167 143.417 206.417 144.167 206.417 145.167C206.417 146.167 207.167 146.917 208.167 146.917C209.083 146.917 209.917 146.167 209.917 145.167ZM215.167 145.167C215.167 144.167 214.417 143.417 213.417 143.417C212.417 143.417 211.667 144.167 211.667 145.167C211.667 146.167 212.417 146.917 213.417 146.917C214.333 146.917 215.167 146.167 215.167 145.167Z" fill="#2A94F4"/>
<path d="M99.3334 19.25L93.9168 13.3333L27.5835 74C23.0001 71.0833 17.1668 70.3333 11.6668 72.4167C2.50011 75.9167 -2.08323 86.1667 1.5001 95.3333C5.08344 104.5 15.2501 109.083 24.4168 105.5C33.5834 102 38.1668 91.75 34.5834 82.5833C34.3334 81.9167 34.0001 81.25 33.6668 80.5833L83.9168 33.6667L89.9168 39.5833L95.9168 33.5L91.1668 28.75L93.0001 26.5833L97.9168 31L102.083 26.25L96.9168 21.5L99.3334 19.25ZM22.1668 99.6667C16.2501 101.917 9.5001 99 7.2501 93C5.0001 87.0833 7.91676 80.3333 13.9168 78.0833C19.8334 75.8333 26.5835 78.75 28.8335 84.75C31.0835 90.75 28.0835 97.4167 22.1668 99.6667Z" fill="#EAEAEA"/>
</svg>
