<svg width="224" height="222" viewBox="0 0 224 222" fill="none" xmlns="http://www.w3.org/2000/svg">
<g opacity="0.6">
<path d="M119.312 118.026L119.243 113.915L122.142 110.945L119.147 108.096L119.08 103.985L114.915 104.069L111.921 101.22L109.022 104.189L104.853 104.274L104.921 108.385L102.022 111.355L105.017 114.205L105.085 118.316L109.254 118.23L112.249 121.08L115.148 118.111L119.312 118.026ZM110.635 114.769L108.505 114.811L108.471 112.709L106.942 111.255L108.422 109.739L108.387 107.636L110.517 107.593L111.996 106.078L113.524 107.532L115.654 107.489L115.689 109.591L117.218 111.046L115.739 112.561L115.773 114.664L113.643 114.707L112.164 116.222L110.635 114.769Z" fill="#FFB4CB"/>
<path d="M145.51 187.171L191.007 186.246L190.264 141.332L221.909 108.917L189.214 77.81L188.47 32.8957L142.973 33.8208L110.278 2.70972L78.633 35.1249L33.1359 36.0501L33.8788 80.9686L2.234 113.384L34.9294 144.49L35.6723 189.409L81.1695 188.483L113.864 219.591L145.51 187.171ZM82.5513 185.017L39.0929 185.901L38.3833 143L7.15015 113.284L37.3797 82.3184L36.6702 39.4168L80.1287 38.533L110.359 7.56764L141.592 37.2832L185.05 36.3995L185.759 79.3054L216.993 109.021L186.763 139.986L187.473 182.893L144.014 183.776L113.785 214.741L82.5513 185.017Z" fill="#FFB4CB"/>
<path d="M140.092 174.824L178.196 174.049L177.574 136.43L204.079 109.279L176.693 83.2246L176.071 45.6058L137.968 46.3806L110.583 20.3259L84.0771 47.4765L45.9737 48.2513L46.5959 85.87L20.0905 113.021L47.4759 139.075L48.0981 176.694L86.2014 175.92L113.587 201.974L140.092 174.824ZM80.3605 165.585L97.2411 148.294L97.6374 172.257L87.5835 172.461L80.3605 165.585ZM85.5727 50.8803L95.6266 50.6759L96.023 74.6394L78.5818 58.0413L85.5727 50.8803ZM143.809 56.7151L126.928 74.0067L126.532 50.0432L136.582 49.8389L143.809 56.7151ZM148.736 162.478L137.056 151.364L136.78 134.645L153.71 134.301L165.39 145.413L165.667 162.129L148.736 162.473V162.478ZM100.786 152.287L100.661 144.789L112.437 132.727L124.607 144.302L124.731 151.8L112.566 140.225L100.786 152.287ZM74.6689 132.474L79.9494 127.061L96.8799 126.716L97.1563 143.432L91.8759 148.844L91.5994 132.13L74.6689 132.474ZM70.8601 123.811L82.6398 111.748L70.4736 100.174L78.0673 100.019L90.2336 111.595L78.4538 123.656L70.8601 123.811ZM90.6474 74.3022L96.1033 79.4973L96.3798 96.2125L79.4492 96.5567L73.989 91.3618L90.9195 91.0175L90.643 74.3023L90.6474 74.3022ZM123.379 70.0134L123.503 77.5105L111.723 89.5727L99.5571 77.9975L99.4332 70.5004L111.6 82.0756L123.379 70.0134ZM149.496 89.8264L144.215 95.2398L127.285 95.5841L127.008 78.8645L132.289 73.4511L132.565 90.1664L149.496 89.8221V89.8264ZM153.305 98.4892L141.529 110.552L153.696 122.126L146.102 122.281L133.935 110.705L145.715 98.6436L153.305 98.4892ZM109.941 130.344L100.581 139.931L100.362 126.65L105.934 126.537L109.941 130.344ZM114.861 130.244L118.74 126.272L124.312 126.159L124.532 139.44L114.861 130.244ZM112.361 127.865L107.321 123.069L100.304 123.212L100.19 116.286L95.1497 111.495L100.029 106.497L99.9139 99.5706L106.929 99.428L111.808 94.4306L116.849 99.2263L123.864 99.0837L123.979 106.01L129.015 110.805L124.137 115.803L124.251 122.73L117.235 122.873L112.361 127.865ZM114.228 91.9559L123.588 82.3684L123.808 95.6505L118.235 95.7638L114.228 91.9559ZM109.308 92.0559L105.43 96.0284L99.8574 96.1417L99.6374 82.8555L109.308 92.0559ZM96.4366 99.6456L96.5275 105.147L92.6494 109.12L82.9791 99.9192L96.4366 99.6456ZM127.637 117.153L131.516 113.18L141.185 122.381L127.733 122.655L127.641 117.153H127.637ZM131.435 108.327L127.428 104.515L127.337 99.013L140.79 98.7394L131.435 108.327ZM92.734 113.973L96.7408 117.785L96.8319 123.287L83.3787 123.561L92.734 113.973ZM127.785 126.087L144.716 125.743L150.176 130.938L133.245 131.282L133.522 147.998L128.066 142.803L127.789 126.087H127.785ZM149.636 125.643L173.908 125.15L174.073 135.076L167.077 142.242L149.636 125.643ZM174.869 121.696L158.612 122.026L146.445 110.452L158.221 98.3893L174.477 98.0587L186.649 109.634L174.869 121.696ZM149.131 95.1397L166.012 77.8483L173.239 84.7201L173.404 94.6462L149.131 95.1397ZM152.917 86.3225L135.986 86.6668L135.709 69.9515L147.014 58.3713L163.945 58.0271L164.222 74.7422L152.917 86.3225ZM123.033 49.1098L123.299 65.1555L111.523 77.2218L99.3569 65.6466L99.0917 49.5967L110.867 37.5346L123.033 49.1098ZM75.4328 59.8226L87.1132 70.9355L87.3896 87.6507L70.4591 87.9949L58.7787 76.882L58.5023 60.1668L75.4328 59.8226ZM74.5331 96.6567L50.261 97.1503L50.0969 87.2241L57.0919 80.0587L74.5331 96.6567ZM49.2964 100.604L65.5531 100.274L77.7194 111.848L65.944 123.911L49.6873 124.242L37.5209 112.666L49.2964 100.604ZM75.0333 127.161L58.1526 144.452L50.9253 137.58L50.7612 127.654L75.0333 127.161ZM71.2484 135.977L88.1788 135.633L88.4553 152.348L77.1502 163.928L60.2197 164.273L59.9433 147.557L71.2484 135.977ZM101.131 173.191L100.866 157.144L112.645 145.078L124.812 156.654L125.077 172.704L113.302 184.766L101.131 173.191ZM128.538 171.625L128.142 147.661L145.583 164.255L138.588 171.416L128.538 171.62V171.625ZM174.662 170.686L143.513 171.32L148.793 165.911L169.201 165.495L168.868 145.347L174.153 139.934L174.662 170.686ZM199.163 109.379L177.497 131.572L177.373 124.075L191.565 109.534L176.898 95.5797L176.774 88.0826L199.163 109.379ZM172.65 49.1097L173.159 79.8622L167.699 74.6672L167.366 54.5189L146.958 54.9339L141.502 49.7431L172.65 49.1097ZM110.663 25.1795L133.047 46.4764L125.454 46.6308L110.787 32.6766L96.5913 47.2177L88.9976 47.3722L110.663 25.1795ZM49.5079 51.6137L80.6566 50.9803L75.376 56.3894L54.9681 56.8044L55.3013 76.9528L50.0165 82.3662L49.5079 51.6137ZM25.0067 112.921L46.6719 90.7281L46.7959 98.2252L32.6004 112.766L47.2672 126.72L47.3912 134.218L25.0067 112.921ZM51.5186 173.191L51.0101 142.438L56.4703 147.633L56.8035 167.781L77.2114 167.366L82.6673 172.557L51.5186 173.191ZM91.1176 175.82L98.7112 175.665L113.378 189.619L127.574 175.078L135.171 174.924L113.507 197.116L91.1176 175.82Z" fill="#FFB4CB"/>
</g>
</svg>
