<svg width="226" height="202" viewBox="0 0 226 202" fill="none" xmlns="http://www.w3.org/2000/svg">
<g opacity="0.6">
<path d="M120.377 107.393L120.308 103.652L123.233 100.95L120.211 98.3575L120.143 94.6167L115.941 94.6937L112.92 92.1008L109.995 94.8028L105.789 94.8799L105.858 98.6207L102.933 101.323L105.955 103.916L106.023 107.657L110.229 107.579L113.251 110.172L116.176 107.47L120.377 107.393ZM111.623 104.429L109.474 104.468L109.439 102.555L107.897 101.232L109.39 99.8528L109.355 97.9394L111.504 97.9L112.996 96.5211L114.538 97.8444L116.687 97.805L116.722 99.7183L118.265 101.042L116.772 102.42L116.807 104.334L114.658 104.373L113.165 105.752L111.623 104.429Z" fill="#348547"/>
<path d="M146.809 170.309L192.712 169.467L191.963 128.599L223.89 99.1045L190.903 70.8001L190.153 29.9321L144.25 30.7739L111.263 2.4656L79.3351 31.9605L33.4318 32.8023L34.1813 73.6741L2.25395 103.169L35.2413 131.473L35.9908 172.345L81.8942 171.503L114.881 199.808L146.809 170.309ZM83.2884 168.349L39.4419 169.153L38.726 130.117L7.21399 103.078L37.7134 74.9023L36.9976 35.8657L80.8441 35.0616L111.344 6.88587L142.856 33.9244L186.702 33.1203L187.418 72.1608L218.93 99.1994L188.431 127.375L189.147 166.416L145.3 167.22L114.801 195.395L83.2884 168.349Z" fill="#348547"/>
<path d="M141.343 159.074L179.787 158.369L179.159 124.139L205.901 99.4344L178.271 75.7269L177.643 41.4972L139.2 42.2022L111.57 18.4947L84.8278 43.1993L46.3842 43.9043L47.0119 78.134L20.2699 102.839L47.8998 126.546L48.5275 160.776L86.9711 160.071L114.601 183.778L141.343 159.074ZM81.078 150.667L98.1093 134.934L98.5092 156.738L88.3655 156.924L81.078 150.667ZM86.3367 46.2965L96.4804 46.1105L96.8803 67.9151L79.2834 52.8124L86.3367 46.2965ZM145.093 51.6056L128.061 67.3394L127.662 45.5348L137.801 45.3489L145.093 51.6056ZM150.064 147.84L138.28 137.728L138.001 122.515L155.082 122.202L166.867 132.313L167.146 147.523L150.064 147.836L150.064 147.84ZM101.686 138.567L101.56 131.745L113.441 120.77L125.72 131.302L125.845 138.124L113.571 127.592L101.686 138.567ZM75.3356 120.539L80.6632 115.614L97.7449 115.3L98.0238 130.51L92.6962 135.435L92.4173 120.226L75.3356 120.539ZM71.4928 112.657L83.3777 101.681L71.1028 91.1489L78.7643 91.0084L91.0393 101.541L79.1543 112.516L71.4928 112.657ZM91.4567 67.6083L96.9614 72.3354L97.2403 87.5447L80.1586 87.8579L74.6496 83.131L91.7313 82.8177L91.4523 67.6084L91.4567 67.6083ZM124.481 63.7059L124.606 70.5276L112.721 81.5031L100.446 70.9707L100.321 64.149L112.596 74.6814L124.481 63.7059ZM150.831 81.7339L145.503 86.6596L128.421 86.9729L128.142 71.7596L133.47 66.8339L133.749 82.0433L150.831 81.73L150.831 81.7339ZM154.674 89.6163L142.793 100.592L155.068 111.124L147.406 111.265L135.131 100.732L147.016 89.7568L154.674 89.6163ZM110.923 118.601L101.479 127.325L101.258 115.24L106.88 115.137L110.923 118.601ZM115.887 118.51L119.8 114.896L125.422 114.793L125.644 126.878L115.887 118.51ZM113.364 116.346L108.279 111.982L101.2 112.112L101.085 105.81L95.9993 101.45L100.922 96.9027L100.806 90.6003L107.884 90.4705L112.806 85.9233L117.892 90.287L124.97 90.1572L125.086 96.4595L130.167 100.823L125.245 105.37L125.36 111.673L118.282 111.803L113.364 116.346ZM115.248 83.6716L124.691 74.9478L124.913 87.0333L119.291 87.1364L115.248 83.6716ZM110.284 83.7626L106.371 87.3772L100.749 87.4803L100.527 75.391L110.284 83.7626ZM97.2976 90.6685L97.3894 95.6745L93.4766 99.2892L83.72 90.9175L97.2976 90.6685ZM128.777 106.599L132.69 102.984L142.446 111.356L128.873 111.605L128.781 106.599L128.777 106.599ZM132.609 98.5676L128.566 95.0989L128.474 90.0929L142.047 89.844L132.609 98.5676ZM93.562 103.705L97.6046 107.174L97.6965 112.18L84.1232 112.429L93.562 103.705ZM128.926 114.728L146.008 114.415L151.517 119.142L134.435 119.455L134.714 134.665L129.209 129.938L128.93 114.728L128.926 114.728ZM150.972 114.324L175.461 113.875L175.627 122.907L168.569 129.427L150.972 114.324ZM176.43 110.732L160.028 111.033L147.753 100.501L159.634 89.5254L176.035 89.2246L188.315 99.7569L176.43 110.732ZM150.463 86.5686L167.494 70.8349L174.786 77.0877L174.952 86.1195L150.463 86.5686ZM154.282 78.5457L137.2 78.859L136.921 63.6496L148.327 53.1126L165.409 52.7994L165.688 68.0087L154.282 78.5457ZM124.132 44.6855L124.4 59.2856L112.519 70.2649L100.244 59.7325L99.9764 45.1285L111.857 34.1531L124.132 44.6855ZM76.1063 54.4332L87.891 64.5449L88.1699 79.7542L71.0882 80.0674L59.3035 69.9557L59.0246 54.7464L76.1063 54.4332ZM75.1986 87.9489L50.7098 88.398L50.5442 79.3661L57.6017 72.8462L75.1986 87.9489ZM49.7365 91.5407L66.1384 91.24L78.4133 101.772L66.5328 112.748L50.1309 113.049L37.8559 102.516L49.7365 91.5407ZM75.7032 115.705L58.6718 131.438L51.38 125.185L51.2144 116.154L75.7032 115.705ZM71.8845 123.727L88.9661 123.414L89.2451 138.623L77.839 149.16L60.7574 149.474L60.4785 134.264L71.8845 123.727ZM102.034 157.588L101.767 142.987L113.651 132.008L125.926 142.541L126.194 157.145L114.314 168.12L102.034 157.588ZM129.686 156.163L129.286 134.358L146.883 149.457L139.825 155.973L129.686 156.159L129.686 156.163ZM176.221 155.309L144.794 155.886L150.122 150.964L170.712 150.586L170.376 132.253L175.708 127.327L176.221 155.309ZM200.941 99.5254L179.082 119.719L178.957 112.897L193.275 99.666L178.477 86.9689L178.352 80.1472L200.941 99.5254ZM174.192 44.6854L174.705 72.6674L169.196 67.9404L168.86 49.6073L148.27 49.9849L142.765 45.2617L174.192 44.6854ZM111.651 22.9111L134.235 42.2893L126.574 42.4298L111.776 29.7328L97.4537 42.9639L89.7922 43.1044L111.651 22.9111ZM49.9499 46.9638L81.3767 46.3875L76.049 51.3093L55.4589 51.6869L55.7951 70.0201L50.4631 74.9458L49.9499 46.9638ZM25.23 102.748L47.0886 82.5544L47.2137 89.3761L32.8915 102.607L47.6892 115.304L47.8143 122.126L25.23 102.748ZM51.9786 157.588L51.4655 129.606L56.9745 134.333L57.3107 152.666L77.9008 152.288L83.4054 157.011L51.9786 157.588ZM91.9311 159.98L99.5926 159.839L114.39 172.536L128.713 159.305L136.378 159.165L114.52 179.358L91.9311 159.98Z" fill="#348547"/>
</g>
</svg>
