<svg width="189" height="170" viewBox="0 0 189 170" fill="none" xmlns="http://www.w3.org/2000/svg">
<path opacity="0.25" d="M96.0431 169.551C131.965 169.551 161.086 163.16 161.086 155.276C161.086 147.391 131.965 141 96.0431 141C60.1208 141 31 147.391 31 155.276C31 163.16 60.1208 169.551 96.0431 169.551Z" fill="#6BABB6"/>
<path d="M8.52246 85.5868C8.51416 19.8085 80.1529 -21.3119 137.472 11.57C175.77 33.54 191.054 80.8008 172.808 120.834H16.1826C11.1258 109.764 8.51378 97.745 8.52246 85.5868Z" fill="#DAEDF7"/>
<path d="M178.319 120.834H10.6721" stroke="#45413C" stroke-linecap="round" stroke-linejoin="round"/>
<path d="M187.991 120.834H182.618" stroke="#45413C" stroke-linecap="round" stroke-linejoin="round"/>
<path d="M6.37329 120.834H0.999986" stroke="#45413C" stroke-linecap="round" stroke-linejoin="round"/>
<path d="M147.207 97.0369C147.208 97.7914 147.51 98.5148 148.048 99.0471L149.236 100.224C149.771 100.754 150.495 101.052 151.25 101.053H157.445C158.203 101.054 158.93 100.754 159.465 100.22L160.645 99.0471C161.179 98.5142 161.479 97.7931 161.479 97.0412V85.2066C161.479 84.4547 161.179 83.7336 160.645 83.2007L159.465 82.0279C158.93 81.4943 158.203 81.1944 157.445 81.1948H151.25C150.495 81.1946 149.771 81.4929 149.236 82.0237L148.048 83.2007C147.51 83.7323 147.208 84.4549 147.207 85.2087V97.0369Z" fill="#FF6242"/>
<path d="M152.916 81.1948C152.916 81.1948 157.198 86.8686 155.77 91.124C154.343 95.3794 154.343 98.2161 157.198 101.053" fill="#FF6242"/>
<path d="M152.916 81.1948C152.916 81.1948 157.198 86.8686 155.77 91.124C154.343 95.3794 154.343 98.2161 157.198 101.053" stroke="white" stroke-linecap="round" stroke-linejoin="round"/>
<path d="M73.0021 41.4805C73.0162 39.8151 74.2109 38.391 75.8564 38.0775V35.8131C75.7097 22.7108 89.8884 14.3639 101.378 20.7887C106.83 23.837 110.175 29.5966 110.106 35.8131V38.0773C112.752 38.5623 113.877 41.712 112.132 43.7467C111.53 44.4486 110.672 44.8836 109.747 44.9561C107.054 57.7828 91.4004 62.9022 81.5703 54.1709C78.8411 51.7469 76.9652 48.5173 76.2175 44.9561C74.4056 44.7923 73.0147 43.2886 73.0021 41.4805Z" fill="#FFDB94" stroke="#45413C" stroke-linecap="round" stroke-linejoin="round"/>
<path d="M104.395 43.6082C104.395 45.246 102.611 46.2697 101.184 45.4507C100.522 45.0707 100.114 44.3682 100.114 43.6082C100.114 41.9702 101.898 40.9466 103.325 41.7655C103.987 42.1455 104.395 42.848 104.395 43.6082Z" fill="#FFBE3D"/>
<path d="M85.8442 43.6082C85.8442 45.246 84.0603 46.2697 82.6331 45.4507C81.9709 45.0707 81.5629 44.3682 81.5629 43.6082C81.5629 41.9702 83.3468 40.9466 84.7739 41.7655C85.4362 42.1455 85.8442 42.848 85.8442 43.6082Z" fill="#FFBE3D"/>
<path d="M85.2533 38.6436C86.2022 37.6981 87.7432 37.6981 88.6921 38.6436" stroke="#45413C" stroke-linecap="round" stroke-linejoin="round"/>
<path d="M100.694 38.6436C99.7449 37.6981 98.204 37.6981 97.255 38.6436" stroke="#45413C" stroke-linecap="round" stroke-linejoin="round"/>
<path d="M88.6923 48.5726C91.2295 50.464 94.7179 50.464 97.2551 48.5726" stroke="#45413C" stroke-linecap="round" stroke-linejoin="round"/>
<path d="M74.4273 26.7684C74.4273 19.2269 80.5781 13.1133 88.1657 13.1137H105.62C107.817 13.115 109.189 15.48 108.09 17.3706C107.912 17.6748 107.68 17.9438 107.404 18.1636L105.926 19.3385C109.287 20.5622 111.524 23.7384 111.531 27.2959V35.8131C111.531 36.5965 110.892 37.2314 110.104 37.2314C107.095 35.435 102.291 31.0514 101.62 27.5695C101.509 27.1035 101.038 26.8162 100.569 26.9286C98.5274 27.2459 96.934 28.853 96.6447 30.8871C96.5442 31.4011 96.0059 31.7052 95.5099 31.5277C93.1806 30.9686 91.1649 29.5236 89.8959 27.5033C89.7699 27.107 89.3567 26.8755 88.9502 26.9735C81.5544 29.2848 84.0777 36.1591 75.9812 36.9347C75.1436 37.0126 74.4192 36.3588 74.4165 35.5227L74.4273 26.7684Z" fill="#614B44"/>
<path d="M88.1655 13.1137H105.62C107.816 13.1202 109.181 15.4865 108.077 17.3731C107.9 17.6766 107.667 17.9447 107.391 18.1636L106.456 18.9092C106.182 18.8266 105.896 18.7847 105.609 18.7853H88.1549C80.5663 18.7849 74.4152 24.8999 74.4164 32.4422V26.7684C74.4164 19.2229 80.5739 13.1077 88.1655 13.1137Z" fill="#947063"/>
<path d="M74.4273 26.7684C74.4273 19.2269 80.5781 13.1133 88.1657 13.1137H105.62C107.817 13.115 109.189 15.48 108.09 17.3706C107.912 17.6748 107.68 17.9438 107.404 18.1636L105.926 19.3385C109.287 20.5622 111.524 23.7384 111.531 27.2959V35.8131C111.531 36.5965 110.892 37.2314 110.104 37.2314C107.095 35.435 102.291 31.0514 101.62 27.5695C101.509 27.1035 101.038 26.8162 100.569 26.9286C98.5274 27.2459 96.934 28.853 96.6447 30.8871C96.5442 31.4011 96.0059 31.7052 95.5099 31.5277C93.1806 30.9686 91.1649 29.5236 89.8959 27.5033C89.7699 27.107 89.3567 26.8755 88.9502 26.9735C81.5544 29.2848 84.0777 36.1591 75.9812 36.9347C75.1436 37.0126 74.4192 36.3588 74.4165 35.5227L74.4273 26.7684Z" stroke="#45413C" stroke-linecap="round" stroke-linejoin="round"/>
<path d="M172.896 101.053H25.9062V108.145H172.896V101.053Z" fill="#DEBB7E" stroke="#45413C" stroke-linecap="round" stroke-linejoin="round"/>
<path d="M97.2593 58.5017H88.6964V101.053H97.2593V58.5017Z" fill="#9F5AE5" stroke="#45413C" stroke-linecap="round" stroke-linejoin="round"/>
<path d="M136.818 51.4801C137.08 51.9176 137.218 52.4173 137.218 52.9262V91.5919C137.217 92.9655 136.227 94.1418 134.866 94.3838L97.253 101.059V58.5017L136.818 51.4801Z" fill="#BF8DF2" stroke="#45413C" stroke-linecap="round" stroke-linejoin="round"/>
<path d="M108.681 73.4895C108.685 75.2742 110.326 76.612 112.088 76.2665L122.933 74.1432C124.268 73.8806 125.231 72.7185 125.235 71.3662V66.2071C125.233 64.4218 123.59 63.0829 121.828 63.4301L110.983 65.5534C109.648 65.816 108.685 66.978 108.681 68.3306V73.4895Z" fill="#9F5AE5" stroke="#45413C" stroke-linecap="round" stroke-linejoin="round"/>
<path d="M134.623 55.5688C130.784 55.7851 128.621 60.0509 130.728 63.2471C131.739 64.7792 133.516 65.6335 135.352 65.4701L137.482 65.3163C139.055 65.2025 140.238 63.8442 140.125 62.2807L139.812 58.036C139.697 56.4734 138.33 55.2989 136.757 55.4128L134.623 55.5688Z" fill="#FFDB94" stroke="#45413C" stroke-linecap="round" stroke-linejoin="round"/>
<path d="M136.818 51.48L97.2702 58.5017H92.9887C95.7096 53.9949 100.252 50.871 105.455 49.9292L127.522 45.9408C128.248 45.8076 128.998 45.9609 129.613 46.3681L135.947 50.5658C136.303 50.802 136.6 51.1144 136.818 51.48Z" fill="white" stroke="#45413C" stroke-linecap="round" stroke-linejoin="round"/>
<path d="M49.1447 51.4801C48.8822 51.9174 48.7435 52.4171 48.7427 52.9262V91.5919C48.7431 92.9663 49.7349 94.1427 51.0961 94.3838L88.6921 101.053V58.5018L49.1447 51.4801Z" fill="#BF8DF2" stroke="#45413C" stroke-linecap="round" stroke-linejoin="round"/>
<path d="M51.3349 55.5688C55.1739 55.7852 57.3376 60.0509 55.2295 63.2471C54.2191 64.7792 52.442 65.6336 50.6062 65.4701L48.472 65.3163C46.901 65.2002 45.7206 63.8427 45.8327 62.2807L46.1357 58.0297C46.2525 56.4673 47.6197 55.2937 49.1921 55.4065L51.3349 55.5688Z" fill="#FFDB94" stroke="#45413C" stroke-linecap="round" stroke-linejoin="round"/>
<path d="M49.1448 51.48L88.6923 58.5017H92.978C90.2575 53.9945 85.7149 50.8706 80.512 49.9292L58.4384 45.9408C57.7119 45.8074 56.9617 45.9607 56.3472 46.3681L50.0045 50.5679C49.6534 50.8048 49.3596 51.1163 49.1448 51.48Z" fill="white" stroke="#45413C" stroke-linecap="round" stroke-linejoin="round"/>
<path d="M36.6098 101.053H72.2886V94.6787C72.2886 93.4988 71.3263 92.5423 70.1393 92.5423H36.6098V101.053Z" fill="#FFE500" stroke="#45413C" stroke-linecap="round" stroke-linejoin="round"/>
<path d="M34.4778 92.5423H68.0071V86.1678C68.0071 84.9881 67.045 84.0317 65.8578 84.0317H34.4778C33.2908 84.0317 32.3285 84.9881 32.3285 86.1678V90.4062C32.3285 91.5859 33.2908 92.5423 34.4778 92.5423Z" fill="#00DBA8" stroke="#45413C" stroke-linecap="round" stroke-linejoin="round"/>
<path d="M164.333 108.145H34.4693V153.534H164.333V108.145Z" fill="#DEBB7E"/>
<path d="M164.333 108.145H34.4693V115.238H164.333V108.145Z" fill="#B89558"/>
<path d="M164.333 108.145H34.4693V153.534H164.333V108.145Z" stroke="#45413C" stroke-linecap="round" stroke-linejoin="round"/>
<path d="M147.207 97.0369C147.208 97.7914 147.51 98.5148 148.048 99.0471L149.236 100.224C149.771 100.754 150.495 101.052 151.25 101.053H157.445C158.203 101.054 158.93 100.754 159.465 100.22L160.645 99.0471C161.179 98.5142 161.479 97.7931 161.479 97.0412V85.2066C161.479 84.4547 161.179 83.7336 160.645 83.2007L159.465 82.0279C158.93 81.4943 158.203 81.1944 157.445 81.1948H151.25C150.495 81.1946 149.771 81.4929 149.236 82.0237L148.048 83.2007C147.51 83.7323 147.208 84.4549 147.207 85.2087V97.0369Z" stroke="#45413C" stroke-linecap="round" stroke-linejoin="round"/>
<path d="M157.197 81.1948L158.625 76.9394" stroke="#45413C" stroke-linecap="round" stroke-linejoin="round"/>
<path d="M22.3472 153.534H53.727C54.9142 153.534 55.8765 152.577 55.8765 151.397V147.159C55.8765 145.979 54.9142 145.023 53.727 145.023H20.1977V151.397C20.1977 152.577 21.16 153.534 22.3472 153.534Z" fill="#FF8A14" stroke="#45413C" stroke-linecap="round" stroke-linejoin="round"/>
<path d="M115.812 153.534H149.342C150.529 153.534 151.491 152.577 151.491 151.397V145.023H117.962C116.775 145.023 115.812 145.979 115.812 147.159V153.534Z" fill="#BF8256" stroke="#45413C" stroke-linecap="round" stroke-linejoin="round"/>
<path d="M158.625 136.512H122.948V145.023H158.625V136.512Z" fill="#FF6242" stroke="#45413C" stroke-linecap="round" stroke-linejoin="round"/>
<path d="M124.371 136.512H158.625V128.001H126.52C125.333 128.001 124.371 128.958 124.371 130.138V136.512Z" fill="#00DBA8" stroke="#45413C" stroke-linecap="round" stroke-linejoin="round"/>
<path d="M15.2114 145.023H48.7407V136.512H15.2114C14.0243 136.512 13.062 137.469 13.062 138.648V142.887C13.062 144.066 14.0243 145.023 15.2114 145.023Z" fill="#FFE500" stroke="#45413C" stroke-linecap="round" stroke-linejoin="round"/>
<path d="M17.3349 136.512H53.0134V130.138C53.0134 128.958 52.0511 128.001 50.8642 128.001H17.3347L17.3349 136.512Z" fill="#6DD627" stroke="#45413C" stroke-linecap="round" stroke-linejoin="round"/>
<path d="M9.50268 128.001H43.032V121.627C43.032 120.447 42.0697 119.491 40.8827 119.491H9.50268C8.31554 119.491 7.35324 120.447 7.35324 121.627V125.865C7.35324 127.045 8.31554 128.001 9.50268 128.001Z" fill="#BF8256" stroke="#45413C" stroke-linecap="round" stroke-linejoin="round"/>
<path d="M51.5434 133.934C50.7884 135.304 51.29 137.023 52.6653 137.779L78.9127 152.164C80.2921 152.913 82.0208 152.414 82.7816 151.047L84.1592 148.562C84.9156 147.192 84.4138 145.473 83.0373 144.717L56.7899 130.341C55.4113 129.59 53.6818 130.089 52.921 131.456L51.5434 133.934Z" fill="#BF8256" stroke="#45413C" stroke-linecap="round" stroke-linejoin="round"/>
<path d="M167.188 118.072H158.625V153.531H167.188V118.072Z" fill="#6DD627" stroke="#45413C" stroke-linecap="round" stroke-linejoin="round"/>
</svg>
