<svg width="349" height="255" viewBox="0 0 349 255" fill="none" xmlns="http://www.w3.org/2000/svg">
<path d="M244.806 86.4025L240.915 99.9175C199.802 104.312 174.5 131.249 174.5 131.249C174.5 131.249 147.583 102.603 104.194 99.5775V86.4025L97.2139 102.909V184.076C97.2139 184.076 143.962 176.511 174.5 202.232C205.037 176.511 251.786 184.076 251.786 184.076V102.909L244.806 86.4025Z" fill="#50D5B7"/>
<path d="M174.5 203.082C174.291 203.08 174.09 203.004 173.933 202.869C144.006 177.701 97.8247 184.841 97.3535 184.918C97.2282 184.937 97.1001 184.93 96.978 184.896C96.856 184.862 96.7429 184.803 96.6468 184.722C96.551 184.642 96.4742 184.543 96.4214 184.432C96.3687 184.32 96.3414 184.199 96.3414 184.076V102.91C96.34 102.799 96.3608 102.689 96.4025 102.587L103.383 86.0795C103.459 85.8973 103.599 85.7469 103.777 85.6539C103.956 85.5608 104.161 85.531 104.36 85.5695C104.561 85.6075 104.743 85.7136 104.872 85.869C105.001 86.0245 105.07 86.2194 105.066 86.4195V98.804C144.189 101.822 170.137 125.8 174.5 130.05C178.705 125.911 203.179 103.318 240.234 99.1525L243.968 86.19C244.017 86.0186 244.12 85.8666 244.263 85.7553C244.405 85.644 244.58 85.579 244.762 85.5695C244.946 85.5562 245.13 85.6001 245.287 85.6948C245.443 85.7894 245.565 85.9301 245.635 86.0965L252.615 102.604C252.66 102.706 252.683 102.815 252.685 102.927V184.093C252.685 184.216 252.657 184.337 252.605 184.449C252.552 184.56 252.475 184.659 252.379 184.739C252.283 184.82 252.17 184.879 252.048 184.913C251.926 184.947 251.798 184.954 251.673 184.935C251.201 184.858 205.003 177.735 175.093 202.886C174.927 203.021 174.716 203.091 174.5 203.082ZM112.98 182.232C129.348 182.232 155.122 185.173 174.5 201.11C202.525 178.066 243.925 182.206 250.914 183.099V103.08L244.963 89.0035L241.752 100.147C241.705 100.309 241.609 100.454 241.477 100.563C241.345 100.672 241.183 100.74 241.011 100.759C200.727 105.069 175.399 131.563 175.146 131.826C175.064 131.914 174.964 131.984 174.853 132.032C174.742 132.08 174.622 132.105 174.5 132.105C174.378 132.105 174.258 132.08 174.147 132.032C174.036 131.984 173.936 131.914 173.854 131.826C173.593 131.546 146.659 103.394 104.133 100.428C103.912 100.412 103.706 100.316 103.555 100.158C103.404 100.001 103.321 99.793 103.321 99.5775V90.695L98.0864 103.08V183.099C103.027 182.5 108.002 182.211 112.98 182.232Z" fill="#093F68"/>
<path d="M174.5 193.536V118.226C174.5 118.226 147.217 84.0735 104.194 86.4025V174.123C104.194 174.123 146.685 166.022 174.5 193.536Z" fill="white"/>
<path d="M174.5 194.387C174.385 194.386 174.27 194.363 174.164 194.319C174.058 194.276 173.961 194.212 173.881 194.132C146.728 167.271 104.779 174.871 104.36 174.956C104.232 174.98 104.101 174.976 103.975 174.944C103.849 174.912 103.732 174.853 103.632 174.772C103.533 174.69 103.453 174.588 103.4 174.473C103.346 174.358 103.319 174.232 103.321 174.106V86.4025C103.321 86.1856 103.406 85.9768 103.558 85.8188C103.711 85.6608 103.919 85.5655 104.142 85.5525C147.138 83.198 174.91 117.36 175.189 117.7C175.309 117.85 175.374 118.036 175.372 118.227V193.537C175.372 193.762 175.281 193.978 175.117 194.138C174.953 194.297 174.731 194.387 174.5 194.387ZM118.538 172.21C133.187 172.21 156.055 175.245 173.627 191.505V118.524C171.184 115.617 144.835 85.4675 105.066 87.21V173.119C109.528 172.493 114.03 172.189 118.538 172.21Z" fill="#093F68"/>
<path d="M174.5 193.536V118.226C174.5 118.226 201.783 84.0735 244.806 86.4025V174.123C244.806 174.123 202.315 166.022 174.5 193.536Z" fill="white"/>
<path d="M174.5 194.386C174.269 194.386 174.047 194.297 173.883 194.138C173.719 193.978 173.627 193.762 173.627 193.536V118.226C173.626 118.036 173.691 117.85 173.811 117.699C174.09 117.359 201.844 83.2065 244.858 85.5525C245.081 85.5655 245.289 85.6608 245.442 85.8188C245.594 85.9768 245.679 86.1856 245.679 86.4025V174.122C245.679 174.247 245.651 174.371 245.596 174.484C245.542 174.597 245.463 174.697 245.364 174.777C245.265 174.857 245.148 174.915 245.023 174.946C244.898 174.976 244.767 174.98 244.64 174.955C244.221 174.87 202.272 167.305 175.119 194.131C175.039 194.212 174.942 194.276 174.836 194.319C174.73 194.363 174.615 194.386 174.5 194.386ZM175.372 118.524V191.505C200.736 167.985 237.32 172.133 243.934 173.119V87.21C204.165 85.476 177.815 115.6 175.372 118.524Z" fill="#093F68"/>
<path d="M164.902 124.95C164.682 124.949 164.47 124.867 164.309 124.72C140.752 103.258 116.871 104.745 116.636 104.762C116.521 104.771 116.406 104.757 116.297 104.722C116.188 104.687 116.087 104.632 116 104.559C115.824 104.411 115.715 104.202 115.698 103.976C115.681 103.751 115.756 103.528 115.907 103.357C116.058 103.185 116.274 103.079 116.505 103.062C116.749 103.062 141.328 101.473 165.505 123.462C165.673 123.616 165.772 123.828 165.78 124.053C165.788 124.278 165.705 124.496 165.548 124.661C165.467 124.751 165.368 124.823 165.257 124.872C165.146 124.922 165.025 124.949 164.902 124.95Z" fill="#DFEAEF"/>
<path d="M164.902 139.944C164.682 139.943 164.47 139.861 164.309 139.714C140.752 118.252 116.871 119.74 116.636 119.757C116.521 119.765 116.406 119.751 116.297 119.716C116.188 119.681 116.087 119.626 116 119.553C115.824 119.405 115.715 119.196 115.698 118.97C115.681 118.745 115.756 118.522 115.907 118.351C116.058 118.179 116.274 118.073 116.505 118.057C116.749 118.057 141.336 116.467 165.505 138.457C165.673 138.61 165.772 138.822 165.78 139.047C165.788 139.272 165.705 139.49 165.548 139.655C165.467 139.745 165.368 139.817 165.257 139.866C165.146 139.916 165.025 139.943 164.902 139.944Z" fill="#DFEAEF"/>
<path d="M164.902 154.938C164.682 154.937 164.47 154.855 164.309 154.709C140.752 133.255 116.871 134.734 116.636 134.751C116.521 134.759 116.406 134.745 116.297 134.71C116.188 134.675 116.087 134.62 116 134.547C115.824 134.399 115.715 134.19 115.698 133.964C115.681 133.739 115.756 133.516 115.907 133.345C116.058 133.173 116.274 133.067 116.505 133.051C116.749 133.051 141.336 131.461 165.505 153.451C165.673 153.604 165.772 153.816 165.78 154.041C165.788 154.266 165.705 154.484 165.548 154.649C165.467 154.739 165.368 154.811 165.257 154.86C165.146 154.91 165.025 154.937 164.902 154.938Z" fill="#DFEAEF"/>
<path d="M164.902 169.932C164.682 169.931 164.47 169.849 164.309 169.702C140.752 148.248 116.871 149.728 116.636 149.745C116.521 149.753 116.406 149.739 116.297 149.704C116.188 149.669 116.087 149.614 116 149.541C115.824 149.393 115.715 149.184 115.698 148.958C115.681 148.733 115.756 148.51 115.907 148.339C116.058 148.167 116.274 148.061 116.505 148.045C116.749 148.045 141.336 146.455 165.505 168.444C165.673 168.598 165.772 168.81 165.78 169.035C165.788 169.26 165.705 169.478 165.548 169.643C165.467 169.733 165.368 169.805 165.257 169.854C165.146 169.904 165.025 169.931 164.902 169.932Z" fill="#DFEAEF"/>
<path d="M184.097 124.95C183.978 124.95 183.86 124.925 183.75 124.878C183.64 124.832 183.542 124.763 183.461 124.678C183.298 124.519 183.207 124.303 183.207 124.079C183.207 123.854 183.298 123.639 183.461 123.48C196.077 111.996 208.702 107.057 217.069 104.932C226.169 102.629 232.207 103.046 232.46 103.071C232.69 103.088 232.904 103.194 233.054 103.364C233.205 103.535 233.28 103.756 233.263 103.981C233.245 104.205 233.137 104.413 232.962 104.559C232.787 104.706 232.559 104.779 232.329 104.762C232.094 104.762 208.24 103.258 184.656 124.72C184.504 124.86 184.306 124.941 184.097 124.95Z" fill="#DFEAEF"/>
<path d="M184.097 139.944C183.978 139.944 183.86 139.919 183.75 139.872C183.64 139.826 183.542 139.757 183.461 139.672C183.298 139.513 183.207 139.297 183.207 139.073C183.207 138.848 183.298 138.633 183.461 138.473C196.077 126.99 208.702 122.052 217.069 119.935C226.169 117.623 232.207 118.048 232.46 118.065C232.69 118.082 232.904 118.188 233.054 118.358C233.205 118.529 233.28 118.75 233.263 118.974C233.245 119.199 233.137 119.407 232.962 119.553C232.787 119.7 232.559 119.773 232.329 119.756C232.094 119.756 208.24 118.252 184.656 139.714C184.504 139.854 184.306 139.935 184.097 139.944Z" fill="#DFEAEF"/>
<path d="M184.097 154.938C183.978 154.938 183.86 154.913 183.75 154.866C183.64 154.82 183.542 154.751 183.461 154.666C183.298 154.507 183.207 154.291 183.207 154.067C183.207 153.842 183.298 153.627 183.461 153.468C196.077 141.984 208.702 137.046 217.069 134.929C226.169 132.617 232.207 133.042 232.46 133.059C232.69 133.076 232.904 133.182 233.054 133.352C233.205 133.523 233.28 133.744 233.263 133.969C233.245 134.193 233.137 134.401 232.962 134.547C232.787 134.694 232.559 134.767 232.329 134.75C232.094 134.75 208.231 133.254 184.656 154.708C184.504 154.848 184.306 154.929 184.097 154.938Z" fill="#DFEAEF"/>
<path d="M184.097 169.932C183.978 169.932 183.86 169.907 183.75 169.86C183.64 169.814 183.542 169.745 183.461 169.66C183.298 169.501 183.207 169.285 183.207 169.061C183.207 168.836 183.298 168.621 183.461 168.461C196.077 156.978 208.702 152.04 217.069 149.923C226.169 147.611 232.207 148.036 232.46 148.053C232.69 148.07 232.904 148.176 233.054 148.346C233.205 148.517 233.28 148.738 233.263 148.962C233.245 149.187 233.137 149.395 232.962 149.541C232.787 149.688 232.559 149.761 232.329 149.744C232.094 149.744 208.231 148.248 184.656 169.702C184.504 169.842 184.306 169.923 184.097 169.932Z" fill="#DFEAEF"/>
<path d="M174.5 203.082C174.269 203.082 174.047 202.992 173.883 202.833C173.719 202.674 173.628 202.457 173.628 202.232V193.537C173.628 193.311 173.719 193.095 173.883 192.935C174.047 192.776 174.269 192.687 174.5 192.687C174.731 192.687 174.953 192.776 175.117 192.935C175.281 193.095 175.373 193.311 175.373 193.537V202.232C175.373 202.457 175.281 202.674 175.117 202.833C174.953 202.992 174.731 203.082 174.5 203.082Z" fill="#093F68"/>
<path d="M251.786 184.926C251.643 184.926 251.502 184.892 251.376 184.827C251.25 184.762 251.142 184.667 251.062 184.552L244.082 174.599C244.015 174.506 243.968 174.403 243.944 174.293C243.919 174.183 243.917 174.069 243.937 173.959C243.958 173.848 244 173.742 244.063 173.648C244.126 173.553 244.207 173.472 244.303 173.408C244.398 173.345 244.505 173.3 244.618 173.277C244.731 173.255 244.848 173.254 244.961 173.275C245.075 173.296 245.183 173.34 245.279 173.402C245.375 173.464 245.457 173.544 245.522 173.638L252.502 183.6C252.566 183.693 252.611 183.797 252.634 183.906C252.657 184.016 252.657 184.129 252.635 184.238C252.613 184.348 252.57 184.453 252.506 184.546C252.443 184.639 252.361 184.719 252.266 184.782C252.124 184.874 251.957 184.925 251.786 184.926Z" fill="#093F68"/>
<path d="M97.2139 184.926C97.0399 184.926 96.8698 184.876 96.7253 184.782C96.6301 184.719 96.5485 184.639 96.4851 184.546C96.4217 184.453 96.3778 184.348 96.3559 184.238C96.3341 184.129 96.3346 184.016 96.3576 183.906C96.3805 183.797 96.4255 183.693 96.4898 183.6L103.47 173.638C103.534 173.544 103.616 173.464 103.713 173.402C103.809 173.34 103.917 173.296 104.03 173.275C104.143 173.254 104.26 173.255 104.373 173.277C104.486 173.3 104.593 173.345 104.689 173.408C104.784 173.472 104.865 173.553 104.928 173.648C104.991 173.742 105.034 173.848 105.054 173.959C105.075 174.069 105.073 174.183 105.048 174.293C105.023 174.403 104.976 174.506 104.909 174.599L97.9294 184.552C97.8502 184.666 97.7437 184.76 97.619 184.825C97.4944 184.89 97.3554 184.925 97.2139 184.926Z" fill="#093F68"/>
<path d="M175.05 157.505C180.5 157.505 184.918 154.487 184.918 150.764C184.918 147.042 180.5 144.024 175.05 144.024C169.6 144.024 165.182 147.042 165.182 150.764C165.182 154.487 169.6 157.505 175.05 157.505Z" fill="#093F68"/>
<path d="M175.05 158.363C169.134 158.363 164.318 154.964 164.318 150.773C164.318 146.583 169.134 143.174 175.05 143.174C180.965 143.174 185.79 146.574 185.79 150.773C185.79 154.972 180.974 158.363 175.05 158.363ZM175.05 144.874C170.094 144.874 166.063 147.518 166.063 150.773C166.063 154.029 170.094 156.663 175.05 156.663C180.005 156.663 184.045 154.02 184.045 150.773C184.045 147.526 180.014 144.874 175.05 144.874Z" fill="#093F68"/>
<path d="M204.095 95.7695C204.096 91.164 202.947 86.6275 200.748 82.5506C198.549 78.4736 195.366 74.9784 191.473 72.366C187.58 69.7536 183.093 68.1021 178.399 67.554C173.706 67.0058 168.945 67.5773 164.529 69.2192C160.112 70.8612 156.171 73.5243 153.045 76.9794C149.92 80.4345 147.703 84.578 146.586 89.0531C145.469 93.5281 145.485 98.2006 146.633 102.668C147.781 107.136 150.027 111.265 153.176 114.699C157.975 119.824 160.941 126.325 161.631 133.229H188.207C188.751 126.494 191.582 120.127 196.251 115.132C201.299 109.885 204.105 102.961 204.095 95.7695Z" fill="white"/>
<path d="M188.216 134.104H161.639C161.421 134.105 161.21 134.026 161.049 133.883C160.887 133.74 160.787 133.543 160.767 133.331C160.111 126.598 157.219 120.256 152.53 115.268C148.649 111.038 146.114 105.798 145.234 100.189C144.354 94.5799 145.166 88.8424 147.573 83.675C149.98 78.5076 153.876 74.1332 158.789 71.0844C163.702 68.0356 169.418 66.4439 175.242 66.503C181.066 66.5622 186.748 68.2696 191.594 71.4174C196.44 74.5653 200.242 79.0178 202.538 84.233C204.833 89.4481 205.523 95.2009 204.523 100.791C203.523 106.381 200.877 111.568 196.906 115.719C192.358 120.57 189.596 126.757 189.053 133.305C189.04 133.516 188.948 133.715 188.793 133.862C188.638 134.01 188.432 134.096 188.216 134.104ZM162.425 132.405H187.43C188.133 125.754 191.005 119.499 195.623 114.555C199.364 110.645 201.858 105.76 202.801 100.494C203.743 95.2283 203.094 89.8092 200.932 84.8966C198.77 79.9839 195.189 75.7896 190.624 72.8242C186.059 69.8588 180.708 68.2503 175.221 68.1945C169.735 68.1387 164.35 69.6381 159.723 72.51C155.096 75.3819 151.425 79.5025 149.158 84.3701C146.892 89.2377 146.127 94.6424 146.956 99.926C147.786 105.21 150.174 110.144 153.83 114.13C158.584 119.197 161.589 125.588 162.425 132.405Z" fill="#093F68"/>
<path d="M172.162 134.104C171.93 134.104 171.708 134.015 171.545 133.856C171.381 133.696 171.289 133.48 171.289 133.254C171.289 133.076 171.289 119.96 169.544 110.891C166.592 110.322 163.783 109.189 161.282 107.559C158.664 105.799 157.216 103.742 157.268 101.932C157.338 99.858 158.367 98.3365 160.043 97.8605C162.66 97.121 165.993 99.0335 168.584 102.731C169.798 104.804 170.619 107.073 171.01 109.429C173.674 109.835 176.389 109.812 179.046 109.361C180.834 102.663 183.365 97.5715 185.851 97.087C187.159 96.8913 188.496 97.1607 189.618 97.8457C190.739 98.5308 191.57 99.586 191.959 100.818C192.334 102.059 192.962 106.318 185.101 109.429C183.625 110.014 182.102 110.478 180.546 110.814C178.906 117.368 177.859 125.519 178.496 132.387C178.517 132.613 178.445 132.837 178.296 133.011C178.147 133.185 177.933 133.294 177.702 133.314C177.471 133.334 177.24 133.264 177.062 133.119C176.884 132.974 176.772 132.766 176.751 132.54C176.277 125.358 176.909 118.146 178.627 111.146C176.229 111.482 173.796 111.497 171.394 111.188C173.034 120.334 173.06 132.54 173.06 133.288C173.051 133.512 172.952 133.724 172.783 133.877C172.615 134.03 172.392 134.111 172.162 134.104ZM161.212 99.399C160.984 99.3984 160.758 99.4299 160.54 99.4925C159.275 99.8495 159.048 101.192 159.022 101.983C159.022 103.173 160.235 104.779 162.285 106.165C164.377 107.537 166.711 108.522 169.169 109.072C168.826 107.177 168.144 105.356 167.154 103.691C165.033 100.657 162.765 99.399 161.212 99.399ZM186.75 98.702C186.568 98.7017 186.387 98.7188 186.209 98.753C184.638 99.059 182.614 103.207 180.974 108.953C182.135 108.661 183.274 108.294 184.385 107.856C188.748 106.156 190.947 103.674 190.222 101.311C189.981 100.58 189.516 99.9376 188.889 99.4711C188.262 99.0046 187.503 98.7363 186.715 98.702H186.75Z" fill="#70CC40"/>
<path d="M188.015 132.464H162.084C160.894 132.464 159.929 133.404 159.929 134.563V150.101C159.929 151.261 160.894 152.201 162.084 152.201H188.015C189.205 152.201 190.17 151.261 190.17 150.101V134.563C190.17 133.404 189.205 132.464 188.015 132.464Z" fill="#FFBC0E"/>
<path d="M188.024 153.051H162.084C161.282 153.049 160.513 152.737 159.946 152.185C159.379 151.632 159.059 150.883 159.057 150.101V134.563C159.059 133.782 159.379 133.033 159.946 132.48C160.513 131.928 161.282 131.616 162.084 131.614H188.024C188.826 131.616 189.595 131.928 190.162 132.48C190.729 133.033 191.049 133.782 191.051 134.563V150.101C191.049 150.883 190.729 151.632 190.162 152.185C189.595 152.737 188.826 153.049 188.024 153.051ZM162.084 133.314C161.744 133.314 161.418 133.446 161.177 133.68C160.937 133.914 160.802 134.232 160.802 134.563V150.101C160.802 150.433 160.937 150.751 161.177 150.985C161.418 151.219 161.744 151.351 162.084 151.351H188.024C188.364 151.351 188.69 151.219 188.931 150.985C189.171 150.751 189.306 150.433 189.306 150.101V134.563C189.306 134.232 189.171 133.914 188.931 133.68C188.69 133.446 188.364 133.314 188.024 133.314H162.084Z" fill="#093F68"/>
<path d="M189.751 139.63H160.357C160.125 139.63 159.903 139.54 159.74 139.381C159.576 139.221 159.484 139.005 159.484 138.78C159.484 138.554 159.576 138.338 159.74 138.178C159.903 138.019 160.125 137.93 160.357 137.93H189.751C189.983 137.93 190.205 138.019 190.368 138.178C190.532 138.338 190.624 138.554 190.624 138.78C190.624 139.005 190.532 139.221 190.368 139.381C190.205 139.54 189.983 139.63 189.751 139.63Z" fill="#093F68"/>
<path d="M189.751 146.736H160.357C160.125 146.736 159.903 146.646 159.74 146.487C159.576 146.327 159.484 146.111 159.484 145.886C159.484 145.66 159.576 145.444 159.74 145.284C159.903 145.125 160.125 145.036 160.357 145.036H189.751C189.983 145.036 190.205 145.125 190.368 145.284C190.532 145.444 190.624 145.66 190.624 145.886C190.624 146.111 190.532 146.327 190.368 146.487C190.205 146.646 189.983 146.736 189.751 146.736Z" fill="#093F68"/>
<path d="M141.729 85C141.621 85.0009 141.514 84.9807 141.415 84.9405L130.378 80.75C130.161 80.6688 129.987 80.5073 129.893 80.3008C129.799 80.0944 129.793 79.86 129.876 79.6492C129.959 79.4385 130.125 79.2686 130.337 79.1769C130.549 79.0852 130.789 79.0793 131.006 79.1605L142.043 83.3C142.231 83.3725 142.388 83.5066 142.486 83.6793C142.584 83.8519 142.617 84.0524 142.58 84.2464C142.543 84.4403 142.438 84.6157 142.282 84.7423C142.127 84.869 141.931 84.939 141.729 84.9405V85Z" fill="#DFEAEF"/>
<path d="M153.988 66.572C153.861 66.572 153.737 66.5454 153.622 66.4941C153.508 66.4427 153.406 66.3678 153.324 66.2745L146.152 58.072C146.063 57.9913 145.992 57.8933 145.945 57.7843C145.897 57.6753 145.873 57.5578 145.874 57.4393C145.875 57.3207 145.902 57.2037 145.953 57.0959C146.004 56.9881 146.077 56.8918 146.168 56.8132C146.259 56.7345 146.366 56.6753 146.482 56.6394C146.598 56.6035 146.72 56.5915 146.841 56.6044C146.962 56.6173 147.079 56.6547 147.184 56.7142C147.29 56.7738 147.381 56.8541 147.452 56.95L154.624 65.161C154.73 65.2847 154.798 65.435 154.819 65.5946C154.841 65.7542 154.815 65.9164 154.746 66.0624C154.676 66.2084 154.566 66.3323 154.427 66.4195C154.288 66.5067 154.127 66.5537 153.961 66.555L153.988 66.572Z" fill="#DFEAEF"/>
<path d="M207.271 85C207.04 85.0406 206.801 84.9899 206.608 84.8592C206.415 84.7285 206.283 84.5284 206.242 84.303C206.2 84.0776 206.252 83.8452 206.386 83.6572C206.52 83.4691 206.726 83.3406 206.957 83.3L217.994 79.1605C218.101 79.1209 218.215 79.1022 218.33 79.1055C218.444 79.1088 218.557 79.1341 218.662 79.1799C218.766 79.2257 218.86 79.291 218.939 79.3723C219.018 79.4536 219.079 79.5491 219.12 79.6535C219.202 79.8632 219.196 80.0962 219.103 80.3017C219.01 80.5072 218.837 80.6683 218.622 80.75L207.585 84.915C207.488 84.964 207.381 84.9929 207.271 85Z" fill="#DFEAEF"/>
<path d="M195.012 66.572C194.847 66.5707 194.686 66.5236 194.547 66.4364C194.408 66.3492 194.298 66.2254 194.228 66.0794C194.159 65.9334 194.133 65.7712 194.155 65.6116C194.176 65.452 194.244 65.3017 194.349 65.178L201.547 56.95C201.698 56.7787 201.912 56.6726 202.143 56.655C202.373 56.6375 202.602 56.71 202.778 56.8565C202.954 57.003 203.062 57.2116 203.08 57.4364C203.098 57.6611 203.024 57.8837 202.874 58.055L195.676 66.3C195.591 66.3887 195.488 66.4588 195.374 66.5057C195.26 66.5526 195.136 66.5752 195.012 66.572Z" fill="#DFEAEF"/>
<path d="M174.5 62.5855C174.269 62.5855 174.047 62.4959 173.883 62.3365C173.719 62.1771 173.628 61.9609 173.628 61.7355V52.768C173.628 52.5426 173.719 52.3264 173.883 52.167C174.047 52.0076 174.269 51.918 174.5 51.918C174.731 51.918 174.953 52.0076 175.117 52.167C175.281 52.3264 175.373 52.5426 175.373 52.768V61.7355C175.373 61.9609 175.281 62.1771 175.117 62.3365C174.953 62.4959 174.731 62.5855 174.5 62.5855Z" fill="#DFEAEF"/>
</svg>
