<svg width="321" height="275" viewBox="0 0 321 275" fill="none" xmlns="http://www.w3.org/2000/svg">
<path d="M209.887 105.141C209.887 105.141 237.141 86.84 243.705 80.7855C250.269 74.7311 251.289 71.5427 249.788 71.3507C248.287 71.1587 244.761 71.1588 246.98 68.8343C249.199 66.5099 253.63 61.4085 251.009 57.8293C248.388 54.2501 243.073 48.9156 251.82 37.3484C260.568 25.7812 278.737 4.43628 279.764 1.30963C280.791 -1.81702 270.026 5.60192 264.776 9.35939C259.526 13.1169 242.671 28.229 242.671 28.229L244.862 27.5433C244.862 27.5433 240.237 32.343 238.549 34.2492C236.861 36.1553 236.021 36.9301 236.021 36.9301C236.021 36.9301 241.766 32.1922 241.831 35.7714C241.896 39.3506 236.581 46.2347 228.904 53.4753C221.227 60.716 216.164 66.0025 218.225 65.1317C220.286 64.2609 228.057 61.244 227.683 62.8004C227.31 64.3569 226.47 65.6528 227.403 65.7282C228.337 65.8037 229.464 66.4139 228.43 67.1407C227.695 67.7358 227.092 68.4656 226.656 69.2869C226.656 69.2869 233.055 69.6434 229.105 74.6488C225.155 79.6542 224.689 81.4506 228.717 79.8873C232.746 78.324 233.026 81.0941 229.744 84.7556C226.462 88.417 215.683 100.67 209.887 105.141Z" fill="url(#paint0_linear_2255_402)"/>
<path d="M230.85 129.194C230.85 129.194 235.877 123.468 242.635 122.639C249.393 121.809 261.408 117.318 263.979 114.706L266.549 112.093C266.549 112.093 257.135 112.265 258.614 111.483C260.093 110.701 264.065 108.055 263.49 107.074C262.916 106.094 263.404 104.763 264.625 103.687C265.846 102.61 261.637 103.461 264.424 101.63C267.21 99.7991 269.113 98.325 268.826 99.5729C268.539 100.821 271.972 99.0038 274.456 97.3993C276.941 95.7948 281.121 94.1424 280.202 93.8887C279.282 93.635 276.977 93.1002 280.589 90.9609C284.202 88.8216 283.936 88.6159 282.256 88.4856C280.575 88.3553 274.277 86.168 280.762 81.6289C287.247 77.0898 320.555 57.6716 320.978 59.2281C321.402 60.7846 303.204 73.8397 300.188 79.5308C297.172 85.2218 301.509 85.0984 297.89 90.1175C294.27 95.1366 298.787 95.1229 295.85 99.8334C292.913 104.544 295.132 108.391 283.448 115.48C271.763 122.57 260.144 127.781 254.003 127.761C247.863 127.74 234.477 125.717 230.85 129.194Z" fill="url(#paint1_linear_2255_402)"/>
<path d="M103.651 91.2009C103.651 91.2009 96.2468 87.5668 94.911 87.56C93.5752 87.5531 91.6219 84.1316 89.2591 84.5773C86.8964 85.023 84.7922 82.4654 83.4565 81.5878C82.1207 80.7101 73.7398 71.3027 71.3771 70.1508C69.6113 69.378 67.7231 68.8914 65.7899 68.7109C65.7899 68.7109 70.817 63.1227 66.8025 58.4944C62.788 53.8662 59.2332 47.9146 61.2153 47.7912C63.1974 47.6677 68.9354 49.807 66.6086 44.8839C64.2818 39.9608 58.7089 33.7624 57.4378 29.2644C56.1666 24.7664 51.1037 18.2937 47.5488 12.966C43.9939 7.63837 35.4982 -0.0822689 38.3852 1.1356e-05C41.2721 0.0822917 64.9568 20.1724 65.9551 24.0876C66.9533 28.0027 67.9515 27.893 69.079 28.6747C69.7234 29.1243 70.4168 29.506 71.1473 29.8129L68.7487 25.0132C68.7487 25.0132 77.4886 32.1442 78.9752 35.3737C80.4618 38.6032 84.5768 40.859 87.2555 44.2874C89.9342 47.7157 92.0456 51.7406 90.3866 52.5154C88.7277 53.2902 83.5426 49.2859 84.3254 51.4801C85.1082 53.6742 88.9288 59.3858 87.6648 58.8373C86.4009 58.2887 85.0005 58.035 85.8551 60.6406C86.7097 63.2461 87.0616 64.8026 85.8551 64.1855C84.9813 63.7701 84.0467 63.4834 83.083 63.3353C83.6324 64.6588 84.45 65.8658 85.4888 66.887L87.1908 68.5395C87.1908 68.5395 84.7922 68.4984 86.2716 71.7553C87.751 75.0122 90.9683 83.0483 103.651 91.2009Z" fill="url(#paint2_linear_2255_402)"/>
<path d="M77.1942 142.475C69.928 142.491 62.7074 141.38 55.8148 139.184C44.3602 135.529 38.0261 132.252 38.0261 132.252C38.0261 132.252 43.2184 134.521 44.8055 134.309C46.3926 134.096 46.6152 133.822 43.0029 131.354C39.3906 128.885 22.0113 115.59 20.4529 114.424C18.8945 113.259 19.3182 112.484 22.4063 113.698C25.4944 114.911 28.2377 113.307 26.9091 112.326C26.0524 111.661 25.3234 110.858 24.7547 109.954C24.7547 109.954 26.866 110.043 26.7296 108.795C26.5931 107.547 22.3273 101.191 22.3273 101.191C22.3273 101.191 26.5069 103.618 26.6362 102.117C26.7655 100.615 3.75586 73.1198 3.75586 73.1198C3.75586 73.1198 26.4567 86.3669 29.99 91.9345C33.5233 97.5021 34.5718 98.0095 38.5647 100.019C41.0489 101.306 43.2083 103.096 44.8917 105.264C44.8917 105.264 41.4948 103.399 40.5396 104.379C39.5845 105.36 42.4428 111.414 41.4661 113.033C40.4894 114.651 36.8483 117.016 47.161 125.231C57.4737 133.445 64.3464 136.976 71.6931 139.342C79.0398 141.707 81.6539 141.399 81.6539 141.399C77.9036 141.734 74.1208 141.463 70.4651 140.596C65.1436 139.17 64.0017 139.006 64.0017 139.006C64.0017 139.006 67.377 140.905 77.1942 142.475Z" fill="url(#paint3_linear_2255_402)"/>
<path opacity="0.25" d="M152.043 245.551C187.965 245.551 217.086 239.16 217.086 231.276C217.086 223.391 187.965 217 152.043 217C116.121 217 87 223.391 87 231.276C87 239.16 116.121 245.551 152.043 245.551Z" fill="#6BABB6"/>
<path d="M279.835 153.885C279.835 153.885 284.073 152.143 285.337 149.188C286.6 146.233 286.6 145.76 286.6 145.76L290.536 148.427C290.536 148.427 289.552 152.438 287.872 153.912C286.91 154.774 285.756 155.417 284.496 155.791L279.835 153.885Z" fill="#ABDDE8"/>
<path d="M289.976 170.834C289.976 170.834 293.631 170.3 295.175 171.52L296.719 172.699L295.032 176.999C295.032 176.999 291.8 174.256 290.004 173.872C288.209 173.488 289.976 170.834 289.976 170.834Z" fill="#F47421"/>
<path d="M245.479 164.3L247.059 160.405L250.025 163.45C249.96 164.233 249.624 164.974 249.07 165.555C248.244 166.227 245.479 164.3 245.479 164.3Z" fill="#F47421"/>
<path d="M260.926 142.023C260.926 142.023 256.122 139.801 256.129 138.19C256.136 136.578 257.767 134.357 257.767 134.357L260.926 137.25C260.926 137.25 256.28 138.882 260.926 142.023Z" fill="#EE2C28"/>
<path d="M43.8072 78.7697C43.8072 78.7697 39.0243 73.6546 43.8072 69.2732L48.5829 64.8917L41.9616 61.9845C41.9616 61.9845 38.6221 65.1386 37.7963 68.7726C36.9704 72.4067 43.8072 78.7697 43.8072 78.7697Z" fill="#EE2C28"/>
<path d="M32.7263 141.618L26.6723 136.942L22.5286 141.906L27.6274 147.09L32.7263 141.618Z" fill="#EE2C28"/>
<path d="M14.8586 127.26C14.8586 127.26 10.3629 125.587 7.74169 127.26C5.12043 128.933 0 131.374 0 131.374L7.41852 134.912C7.41852 134.912 13.3505 131.827 14.8442 131.628L16.3452 131.436L14.8586 127.26Z" fill="#ABDDE8"/>
<path d="M89.3918 196C89.3918 196 87.2373 200.114 82.5119 200.231C77.7864 200.347 75 198.811 75 198.811L77.3915 205.209C77.3915 205.209 82.7561 207.67 85.2911 206.333L87.8549 205.003L89.3918 196Z" fill="#F47421"/>
<path d="M61.1041 186.003C61.1041 186.003 57.5637 184.179 59.6678 181.114C61.772 178.049 63.8116 177 63.8116 177L66.4975 179.825C66.4975 179.825 60.4865 181.436 61.1041 186.003Z" fill="#EE2C28"/>
<path d="M84.4476 107.033C84.4476 107.033 85.2232 103.173 82.171 101.548L79.1189 99.9363L82.9754 96.8096C82.9754 96.8096 85.848 98.7364 86.5159 100.32C87.1838 101.904 84.4476 107.033 84.4476 107.033Z" fill="#ABDDE8"/>
<path d="M113.705 76.9595C113.705 76.9595 110.667 74.5322 108.298 74.8134L105.935 75.0945V71.3507C107.228 71.2654 108.526 71.2654 109.82 71.3507C110.782 71.5153 113.971 73.8191 113.705 76.9595Z" fill="#F47421"/>
<path d="M179.725 60.6543L182.921 56.4923L185.068 58.9333L182.138 61.9913L179.725 60.6543Z" fill="#F47421"/>
<path d="M182.921 69.7394C182.921 69.7394 189.298 69.9314 190.224 71.3507L191.151 72.7701L187.036 76.267C186.924 75.548 186.604 74.873 186.113 74.3172C185.623 73.7615 184.98 73.3469 184.257 73.1198L181.786 72.4341L182.921 69.7394Z" fill="#ABDDE8"/>
<path d="M204.796 49.5122C204.796 49.5122 207.546 46.8723 206.749 45.597C206.167 44.709 205.514 43.8654 204.796 43.0737H209.219C209.219 43.0737 210.85 44.8633 210.85 46.2964C210.85 47.7294 207.783 50.2321 207.783 50.2321L204.796 49.5122Z" fill="#ABDDE8"/>
<path d="M189.276 39.906L195.51 37.5335L192.393 33.9543L189.276 36.9301V39.906Z" fill="#EE2C28"/>
<path d="M115.809 33.9543C115.809 33.9543 111.881 33.4127 111.989 31.2665C112.004 30.0774 112.296 28.9063 112.843 27.8382H116.305C116.305 27.8382 114.646 29.806 115.809 30.8757L116.966 31.9522L115.809 33.9543Z" fill="#EE2C28"/>
<path d="M104.104 44.8839L101.604 43.0737C101.604 43.0737 98.6312 44.7262 99.177 44.8839C100.049 45.3933 100.865 45.986 101.612 46.6529L104.104 44.8839Z" fill="#ABDDE8"/>
<path d="M42.7421 163H39.0005C39.0005 163 38.9431 165.585 40.0562 165.852C41.1693 166.12 42.7421 163 42.7421 163Z" fill="#F47421"/>
<path d="M213 195.384C214.539 195.665 216.058 196.04 217.546 196.508C218.027 196.773 218.592 196.861 219.136 196.758C219.68 196.655 220.166 196.366 220.505 195.946L221.223 195L224.814 196.906C224.814 196.906 222.961 201.164 220.505 200.856C218.898 200.628 217.338 200.166 215.88 199.484L213 195.384Z" fill="#ABDDE8"/>
<path d="M239 184.061C239 184.061 239.194 179.611 241.528 181.442C242.692 182.376 243.907 183.251 245.169 184.061L242.081 186.612C242.081 186.612 239.883 185.659 239.819 186.612L239.747 187.565L239 184.061Z" fill="#F47421"/>
<path d="M97.2451 273.383L99.0261 270.442C99.0261 270.442 101.281 270.627 101.281 271.36C101.125 272.457 100.885 273.541 100.563 274.604L97.2451 273.383Z" fill="#ABDDE8"/>
<path d="M143.6 74L143.56 74.12L154.28 100.16L149.12 99L146.32 91.68L136.88 92.32L134 100.16L128.4 99L138.08 72.36L143.6 74ZM141.6 79.4L138.16 88.84L145.04 88.36L141.6 79.4ZM156.849 87.6L155.649 84.68H163.609V76.2L168.209 77.32V84.68H174.569L175.769 87.6H168.209V96.48L163.609 95.36V87.6H156.849Z" fill="url(#paint4_linear_2255_402)"/>
<path d="M219.552 154.782C219.552 154.782 213.089 147.667 203.182 154.708L202.969 154.856L202.794 154.997L202.382 155.303L202.268 155.394L202.207 155.443C201.75 155.807 201.277 156.203 200.812 156.633C190.067 166.549 165.566 200.528 149.608 204.825C133.65 209.122 130.061 208.131 123.042 196.149C116.023 184.167 112.655 176.523 109.05 172.755C105.445 168.987 102.412 161.236 102.412 161.236C102.412 161.236 133.802 143.23 147.604 130.488C147.604 130.488 163.836 112.622 182.804 113.589C182.804 113.589 194.106 125.414 202.786 129.289C209.645 132.314 218.165 139.726 221.244 147.254L221.335 147.502C221.339 147.518 221.339 147.535 221.335 147.552C222.105 149.502 219.651 152.898 219.552 154.782Z" fill="url(#paint5_linear_2255_402)"/>
<path d="M219.552 154.782C219.552 154.782 213.089 147.667 203.182 154.708L202.969 154.857L202.794 154.997L202.382 155.303C204.028 153.964 216.328 144.213 221.434 147.51C222.105 149.502 219.651 152.898 219.552 154.782Z" fill="#F47421"/>
<path d="M133.437 206.742C133.437 206.742 125.938 205.867 118.698 196.636C111.458 187.406 101.467 179.283 99.4782 171.755C97.4891 164.227 100.652 150.055 102.008 146.849C103.059 154.346 106.212 161.31 111.039 166.797C119.041 175.771 123.994 186.481 127.98 189.802C130.737 191.935 133.863 193.441 137.171 194.232C137.171 194.232 131.196 195.223 133.437 206.742Z" fill="#AF4D26"/>
<path d="M170.954 153.129C176.632 153.129 181.234 148.479 181.234 142.742C181.234 137.006 176.632 132.355 170.954 132.355C165.276 132.355 160.673 137.006 160.673 142.742C160.673 148.479 165.276 153.129 170.954 153.129Z" fill="white"/>
<path d="M161.572 153.617C161.572 153.617 165.573 156.385 170.085 155.922L153.319 190.174L151.277 177.614L142.894 180.663L161.572 153.617Z" fill="white"/>
<path d="M157.739 145.395C157.739 145.395 157.313 141.8 157.739 140.23C157.739 140.23 138.84 144.106 133.216 144.197L136.401 146.849C135.03 148.922 133.447 150.821 131.684 152.51C131.684 152.51 152.123 149.18 157.739 145.395Z" fill="white"/>
<path d="M165.437 138.487L162.914 143.643L163.714 147.072L176.639 145.998L178.59 141.569L165.658 143.131L166.808 141.081L165.437 138.487Z" fill="#6BABB6"/>
<path d="M190.265 142.775C190.265 142.775 198.008 150.816 198.861 151.08C199.715 151.345 200.096 150.617 199.501 149.601C198.907 148.585 193.626 143.693 192.605 142.486C191.583 141.28 191.454 141.197 191.027 141.147C190.6 141.098 189.96 142.048 190.265 142.775Z" fill="white"/>
<path d="M188.306 130.901C188.306 130.901 203.67 147.659 204.31 148.254C204.95 148.849 205.88 148.056 205.072 146.841C204.264 145.626 197.116 137.173 195.714 136.206C194.311 135.239 192.665 132.281 191.705 131.355C190.745 130.43 189.579 129.339 188.939 129.537C188.299 129.736 188.047 129.934 188.306 130.901Z" fill="#EE2C28"/>
<path d="M202.991 139.536C202.991 139.536 205.971 143.048 206.566 143.139C207.16 143.23 207.671 142.354 207.328 141.891C206.985 141.428 204.912 139.288 204.592 138.991C204.272 138.693 203.205 138.148 202.991 139.536Z" fill="#EE2C28"/>
<path d="M115.764 160.724C115.764 160.724 127.279 177.986 127.858 179.093C128.437 180.2 129.961 178.374 128.811 176.796C127.66 175.218 121.472 166.219 121.022 165.037C120.573 163.855 116.937 159.434 116.808 159.087C116.678 158.74 115.421 159.038 115.764 160.724Z" fill="#EE2C28"/>
<path d="M121.022 156.658C121.022 156.658 126.258 164.764 126.768 164.971C126.977 164.973 127.182 164.911 127.36 164.793C127.537 164.675 127.681 164.505 127.774 164.302C127.867 164.1 127.906 163.873 127.885 163.648C127.865 163.423 127.787 163.208 127.66 163.029C126.951 161.955 123.766 157.079 123.255 156.658C122.745 156.236 121.914 154.865 121.022 156.658Z" fill="#EE2C28"/>
<path d="M132.134 173.069C132.134 173.069 134.946 177.308 135.327 177.614C135.708 177.92 136.988 178.168 136.287 176.788C135.405 175.169 134.385 173.645 133.239 172.234C133.115 172.166 132.977 172.135 132.839 172.145C132.701 172.155 132.568 172.205 132.454 172.291C132.341 172.377 132.251 172.495 132.194 172.632C132.138 172.769 132.117 172.92 132.134 173.069Z" fill="white"/>
<path d="M104.736 205.189C104.736 205.189 107.891 200.983 109.309 201.677C110.726 202.371 110.627 203.478 109.736 204.313C108.844 205.148 107.221 206.792 106.626 207.263C106.032 207.734 103.921 206.222 104.736 205.189Z" fill="#FECF0A"/>
<path d="M167.021 199.636C167.021 199.636 169.613 204.346 170.596 204.346C171.579 204.346 173.194 202.817 172.882 201.991C172.569 201.165 171.091 200.28 170.961 199.636C170.832 198.991 170.443 198.71 169.956 198.115C169.468 197.52 167.235 198.529 167.021 199.636Z" fill="#FECF0A"/>
<path d="M180.983 188.555C180.983 188.555 185.959 194.099 186.942 194.604C187.925 195.108 188.771 195.116 189.068 196.174C189.366 197.231 191.705 198.851 192.94 198.206C194.174 197.562 194.898 195.529 194.007 194.323C193.115 193.116 187.369 187.356 186.515 186.621C185.662 185.886 184.511 184.77 183.665 184.861C182.819 184.952 180.945 186.894 180.983 188.555Z" fill="#FECF0A"/>
<path d="M187.963 179.837C187.963 179.837 190.303 182.465 191.012 182.142C191.72 181.82 193.351 180.06 192.925 179.415C192.498 178.771 190.714 176.738 190.074 176.738C189.434 176.738 186.942 178.358 187.963 179.837Z" fill="#FECF0A"/>
<path d="M220.062 158.55C220.062 158.55 223.545 158.187 223.873 158.972C224.2 159.757 224.177 162.665 223.408 162.847C222.638 163.029 220.131 163.351 219.834 162.847C219.536 162.343 219.254 158.914 220.062 158.55Z" fill="#FECF0A"/>
<path d="M228.445 159.476C228.56 159.393 229.253 158.509 231.258 158.74C233.262 158.972 240.921 159.905 241.515 160.393C242.11 160.881 242.11 162.922 241.774 164.128C241.439 165.335 239.686 165.045 238.916 165.004C238.147 164.963 230.069 163.707 229.238 163.756C228.407 163.806 228.293 163.293 228.217 162.789C228.141 162.285 228.087 159.74 228.445 159.476Z" fill="#FECF0A"/>
<path d="M222.059 134.785C222.059 134.785 225.595 132.661 226.152 133.487C226.708 134.314 227.127 136.214 226.487 136.677C225.442 137.204 224.342 137.59 223.21 137.826C222.6 137.966 221.503 135.099 222.059 134.785Z" fill="#FECF0A"/>
<path d="M218.485 130.579C218.485 130.579 226.106 128.224 228.194 126.447C230.282 124.67 233.643 123.72 233.765 123.075C233.887 122.431 231.981 120.117 231.128 120.117C230.274 120.117 227.211 121.968 225.214 122.522C223.217 123.075 217.548 125.984 217.334 126.769C217.121 127.554 217.464 129.752 218.485 130.579Z" fill="#FECF0A"/>
<path d="M202.306 115.209C202.519 115.209 205.545 112.944 205.59 112.069C205.636 111.193 204.866 109.532 203.944 109.713C203.022 109.895 199.837 112.44 200.134 113.019C200.431 113.597 200.949 115.349 202.306 115.209Z" fill="#FECF0A"/>
<path d="M193.969 111.705C193.969 111.705 204.638 99.3098 205.164 98.2273C205.689 97.1448 204.142 94.6658 202.435 95.0377C200.728 95.4095 191.538 108.672 191.964 109.705C192.391 110.738 193.069 111.655 193.969 111.705Z" fill="#FECF0A"/>
<path d="M102.443 130.719C102.443 130.719 104.729 134.644 105.59 134.504C106.451 134.363 107.762 132.934 107.465 132.149C107.168 131.364 105.765 128.645 104.973 128.455C104.18 128.265 101.924 129.876 102.443 130.719Z" fill="#FECF0A"/>
<path d="M94.8603 142.213C94.8603 142.213 96.5216 144.378 97.3751 144.337C98.2287 144.296 99.3413 143.271 98.8078 142.395C98.2744 141.519 97.7104 140.462 96.9026 140.23C96.0948 139.999 94.5021 141.767 94.8603 142.213Z" fill="#FECF0A"/>
<path d="M92.284 150.89C92.284 150.89 95.5991 151.072 95.5991 151.584C95.5991 152.097 95.3704 154.443 94.837 154.724C94.3035 155.005 91.6515 154.534 91.4381 154.303C91.2247 154.071 91.2552 150.807 92.284 150.89Z" fill="#FECF0A"/>
<path d="M92.9472 140.643C92.9472 140.643 94.8601 139.305 94.6086 138.107C94.3571 136.908 86.8201 128.736 85.5855 127.579C84.351 126.422 82.0952 127.951 82.3924 129.232C82.6896 130.512 83.1545 132.306 86.2028 135.074C89.2512 137.842 92.1852 140.643 92.9472 140.643Z" fill="#FECF0A"/>
<path d="M90.1808 150.196C89.7136 149.647 89.1266 149.235 88.4738 148.998C87.5593 148.717 77.3017 145.073 76.1509 144.866C75.0002 144.659 74.4058 148.171 75.8537 148.791C77.3017 149.411 87.2849 152.923 88.1156 153.32C88.9463 153.716 89.9446 153.865 90.158 152.873C90.3714 151.882 90.76 150.791 90.1808 150.196Z" fill="#FECF0A"/>
<path d="M107.435 158.294C107.435 158.294 122.676 149.411 124.155 148.469C125.633 147.527 134.168 141.338 136.98 140.205C139.793 139.073 144.174 133.082 146.651 131.479C149.128 129.876 149.471 128.595 150.545 127.637C151.62 126.678 153.022 125.497 153.022 125.497C153.022 125.497 145.348 132.008 144.708 132.636C144.068 133.264 134.466 141.048 133.109 141.825C131.753 142.602 108.646 157.897 107.435 158.294Z" fill="white"/>
<path d="M219.552 146.891C219.552 146.891 216.046 146.139 213.874 147.618C212.585 148.466 211.216 149.161 209.79 149.692C208.898 150.155 208.906 150.584 207.45 151.08C205.994 151.576 203.464 154.468 203.464 154.468C203.464 154.468 213.013 147.411 219.552 146.891Z" fill="white"/>
<path d="M201.81 155.757C201.81 155.757 197.101 158.773 195.287 161.542C193.473 164.31 190.493 166.871 189.541 168.053C188.588 169.235 183.071 175.49 181.646 176.705C180.221 177.92 173.697 186.266 172.165 187.646C171.077 188.684 170.077 189.826 169.178 191.058C169.178 191.058 181.996 177.994 183.246 176.763C184.496 175.532 199.776 156.798 201.81 155.757Z" fill="white"/>
<path d="M106.672 160.74C106.672 160.74 109.591 165.698 111.634 166.524C113.676 167.351 119.872 177.267 120.321 178.713C120.771 180.159 124.894 185.051 125.473 186.464C126.606 188.486 128.259 190.106 130.228 191.125C132.133 192.009 137.133 194.265 137.133 194.265C137.133 194.265 134.084 194.223 132.72 193.389C131.356 192.554 126.936 190.133 124.459 186.671C121.983 183.208 115.916 174.143 114.552 171.929C113.188 169.714 107.023 162.525 106.672 160.74Z" fill="white"/>
<defs>
<linearGradient id="paint0_linear_2255_402" x1="265.674" y1="26.5423" x2="226.014" y2="81.6323" gradientUnits="userSpaceOnUse">
<stop stop-color="#375E8B"/>
<stop offset="0.84" stop-color="#FECF0A"/>
</linearGradient>
<linearGradient id="paint1_linear_2255_402" x1="309.698" y1="81.5571" x2="242.308" y2="129.984" gradientUnits="userSpaceOnUse">
<stop stop-color="#375E8B"/>
<stop offset="0.84" stop-color="#FECF0A"/>
</linearGradient>
<linearGradient id="paint2_linear_2255_402" x1="47.5717" y1="28.3991" x2="78.3448" y2="59.7933" gradientUnits="userSpaceOnUse">
<stop stop-color="#375E8B"/>
<stop offset="1" stop-color="#FECF0A"/>
</linearGradient>
<linearGradient id="paint3_linear_2255_402" x1="16.3916" y1="97.5835" x2="63.4447" y2="138.92" gradientUnits="userSpaceOnUse">
<stop stop-color="#375E8B"/>
<stop offset="0.84" stop-color="#FECF0A"/>
</linearGradient>
<linearGradient id="paint4_linear_2255_402" x1="151.5" y1="88" x2="153.5" y2="118" gradientUnits="userSpaceOnUse">
<stop stop-color="#46CEAD"/>
<stop offset="1" stop-color="white"/>
</linearGradient>
<linearGradient id="paint5_linear_2255_402" x1="105.194" y1="211.411" x2="200.717" y2="133.649" gradientUnits="userSpaceOnUse">
<stop stop-color="#F47421"/>
<stop offset="0.83" stop-color="#FECF0A"/>
</linearGradient>
</defs>
</svg>
