<svg width="226" height="175" viewBox="0 0 226 175" fill="none" xmlns="http://www.w3.org/2000/svg">
<g clip-path="url(#clip0_129_171)">
<rect width="226" height="175" fill="#FBFFF4"/>
<ellipse cx="75" cy="113" rx="63" ry="61" fill="#E5E5E5"/>
<path d="M209.954 175V155.128C209.954 155.128 217.307 169.216 209.954 175Z" fill="#F1F1F1"/>
<path d="M210.408 174.997L196.509 161.558C196.509 161.558 211.335 165.38 210.408 174.997Z" fill="#F1F1F1"/>
<path d="M150.366 122.509C150.335 122.145 150.38 121.778 150.498 121.435C150.616 121.091 150.804 120.779 151.049 120.521C151.294 120.262 151.59 120.063 151.916 119.938C152.242 119.813 152.59 119.765 152.935 119.797L155.441 114.734L158.733 115.587L155.099 122.685C155.01 123.292 154.712 123.844 154.263 124.236C153.813 124.628 153.242 124.833 152.658 124.811C152.075 124.789 151.519 124.543 151.097 124.119C150.674 123.694 150.414 123.121 150.366 122.509Z" fill="#FFB7B7"/>
<path d="M165.321 171.833L162.543 171.833L161.221 160.545L165.322 160.546L165.321 171.833Z" fill="#FFB7B7"/>
<path d="M166.03 174.669L157.071 174.669V174.55C157.071 173.576 157.439 172.642 158.093 171.953C158.747 171.264 159.633 170.877 160.558 170.877L166.03 170.877L166.03 174.669Z" fill="#2F2E41"/>
<path d="M187.667 169.647L184.987 170.417L180.892 159.893L184.848 158.757L187.667 169.647Z" fill="#FFB7B7"/>
<path d="M189.059 172.187L180.416 174.669L180.386 174.554C180.143 173.615 180.264 172.612 180.723 171.766C181.182 170.92 181.941 170.301 182.833 170.045L188.112 168.529L189.059 172.187Z" fill="#2F2E41"/>
<path d="M160.249 123.075L158.863 145.242L161.84 170.112L166.717 168.544L166.922 146.323L170.823 133.51L182.373 167.733L187.66 165.678L183.297 143.458L180.833 122.589L160.249 123.075Z" fill="#2F2E41"/>
<path d="M173.723 84.1504L165.511 85.4257L162.553 88.5074L161.634 99.5796L162.205 109.387L159.826 126.682C159.826 126.682 165.807 123.185 170.442 127.562C175.076 131.94 181.562 128.336 181.695 125.424L173.723 84.1504Z" fill="#CBCBCB"/>
<path d="M169.553 98.0368L169.553 98.0244L173.632 84.019L173.685 84.0154C173.975 83.9955 180.815 83.5709 182.345 87.1278L182.352 87.1449L181.887 101.699L182.527 124.494L169.878 127.38L169.786 127.401L169.553 98.0368Z" fill="#004636"/>
<path d="M165.032 97.0687L165.781 85.1958C160.458 85.5445 160.538 89.519 160.545 89.6923L160.486 107.452L159.42 126.451L163.296 126.145L165.032 97.0687Z" fill="#004636"/>
<path d="M153.031 118.672L157.756 107.122L161.054 100.743L162.776 112.25L156.798 121.695L153.031 118.672Z" fill="#004636"/>
<path d="M172.559 114.422C172.631 114.065 172.777 113.729 172.986 113.438C173.195 113.146 173.462 112.907 173.769 112.736C174.075 112.565 174.414 112.467 174.76 112.448C175.107 112.43 175.452 112.492 175.774 112.63L179.586 108.57L182.493 110.409L177.033 116.062C176.777 116.614 176.338 117.05 175.799 117.284C175.259 117.519 174.656 117.537 174.105 117.335C173.553 117.133 173.091 116.725 172.806 116.188C172.522 115.651 172.434 115.023 172.559 114.422Z" fill="#FFB7B7"/>
<path d="M175.765 111.148L183.537 102.167L178.392 94.4346L178.922 90.6542L181.954 86.7089L182.013 86.7895C182.337 87.23 189.932 97.6235 190.15 101.558C190.369 105.507 179.452 115.497 178.987 115.92L178.922 115.979L175.765 111.148Z" fill="#004636"/>
<path d="M168.985 83.1776C172.036 83.1776 174.509 80.5725 174.509 77.3591C174.509 74.1456 172.036 71.5405 168.985 71.5405C165.934 71.5405 163.46 74.1456 163.46 77.3591C163.46 80.5725 165.934 83.1776 168.985 83.1776Z" fill="#FFB7B7"/>
<path d="M174.18 72.7075L174.448 72.1397L173.101 71.4345C173.101 71.4345 171.614 68.8868 168.924 69.6028C166.234 70.3187 165.023 70.7472 165.023 70.7472L163.679 71.4596L164.354 72.1666L163.144 72.5951L163.952 73.0182L163.011 73.5877L163.518 76.5073C163.518 76.5073 164.359 74.2929 165.976 75.1392C167.593 75.9854 170.551 74.7017 170.551 74.7017L173.121 79.9399C173.121 79.9399 173.651 78.1036 174.596 78.5933C174.596 78.5933 177.011 74.5428 174.18 72.7075Z" fill="#2F2E41"/>
<path d="M111.672 105.649L27.6635 130.051L0 24.4021L84.0083 0L111.672 105.649Z" fill="white"/>
<path d="M111.672 105.649L27.6635 130.051L0 24.4021L84.0083 0L111.672 105.649ZM28.7368 128.06L109.781 104.519L82.9349 1.99144L1.89077 25.5325L28.7368 128.06Z" fill="#F1F1F1"/>
<path d="M65.7262 47.3292L44.6679 53.446C44.3709 53.5319 44.0536 53.4902 43.7857 53.33C43.5178 53.1699 43.3212 52.9043 43.2389 52.5916L37.4313 30.412C37.3498 30.0991 37.3894 29.7649 37.5415 29.4827C37.6935 29.2006 37.9457 28.9935 38.2425 28.9068L59.3008 22.79C59.5979 22.7041 59.9152 22.7458 60.1831 22.906C60.451 23.0662 60.6476 23.3317 60.7298 23.6444L66.5374 45.8241C66.619 46.1369 66.5794 46.4711 66.4273 46.7533C66.2752 47.0355 66.0231 47.2426 65.7262 47.3292ZM38.3661 29.3788C38.188 29.4307 38.0367 29.555 37.9454 29.7243C37.8542 29.8936 37.8304 30.0941 37.8794 30.2818L43.6869 52.4615C43.7363 52.6491 43.8543 52.8084 44.015 52.9046C44.1758 53.0007 44.3661 53.0257 44.5444 52.9741L65.6026 46.8573C65.7807 46.8053 65.932 46.6811 66.0233 46.5118C66.1145 46.3425 66.1383 46.1419 66.0893 45.9542L60.2818 23.7746C60.2324 23.587 60.1144 23.4276 59.9537 23.3315C59.793 23.2354 59.6026 23.2104 59.4243 23.2619L38.3661 29.3788Z" fill="#E5E5E5"/>
<path d="M60.3881 51.7996L39.3298 57.9165C39.0625 57.9938 38.7769 57.9562 38.5358 57.8121C38.2947 57.6679 38.1177 57.4289 38.0437 57.1475L32.2361 34.9678C32.1627 34.6862 32.1983 34.3855 32.3352 34.1315C32.4721 33.8776 32.699 33.6912 32.9662 33.6132L54.0244 27.4964C54.2918 27.4191 54.5773 27.4566 54.8185 27.6008C55.0596 27.7449 55.2365 27.9839 55.3106 28.2654L61.1181 50.445C61.1915 50.7266 61.1559 51.0274 61.019 51.2813C60.8822 51.5353 60.6553 51.7217 60.3881 51.7996Z" fill="#00906C"/>
<path d="M84.783 54.8275L26.0176 71.8972L26.6439 74.289L85.4093 57.2193L84.783 54.8275Z" fill="#F1F1F1"/>
<path d="M86.4159 61.0637L27.6506 78.1334L28.2769 80.5253L87.0422 63.4556L86.4159 61.0637Z" fill="#F1F1F1"/>
<path d="M88.0488 67.3L29.2835 84.3697L29.9098 86.7615L88.6751 69.6918L88.0488 67.3Z" fill="#F1F1F1"/>
<path d="M90.9228 78.2758L32.1574 95.3455L32.7837 97.7373L91.5491 80.6676L90.9228 78.2758Z" fill="#F1F1F1"/>
<path d="M92.5557 84.512L33.7903 101.582L34.4166 103.974L93.182 86.9039L92.5557 84.512Z" fill="#F1F1F1"/>
<path d="M94.1886 90.7483L35.4232 107.818L36.0495 110.21L94.8149 93.1401L94.1886 90.7483Z" fill="#F1F1F1"/>
<path d="M138.563 129.699H51.4189V20.105H138.563V129.699Z" fill="white"/>
<path d="M138.563 129.699H51.4189V20.105H138.563V129.699ZM52.9563 128.079H137.026V21.7242H52.9563V128.079Z" fill="#E5E5E5"/>
<path d="M122.697 67.2179H72.8731V69.699H122.697V67.2179Z" fill="#00906C"/>
<path d="M122.697 73.6688H72.8731V76.1499H122.697V73.6688Z" fill="#00906C"/>
<path d="M122.697 80.1197H72.8731V82.6008H122.697V80.1197Z" fill="#00906C"/>
<path d="M68.8225 70.4412C69.6715 70.4412 70.3598 69.7162 70.3598 68.8219C70.3598 67.9277 69.6715 67.2027 68.8225 67.2027C67.9734 67.2027 67.2851 67.9277 67.2851 68.8219C67.2851 69.7162 67.9734 70.4412 68.8225 70.4412Z" fill="#00906C"/>
<path d="M122.697 39.421H72.8731V41.9021H122.697V39.421Z" fill="#E5E5E5"/>
<path d="M122.697 45.8719H72.8731V48.353H122.697V45.8719Z" fill="#E5E5E5"/>
<path d="M122.697 52.3228H72.8731V54.804H122.697V52.3228Z" fill="#E5E5E5"/>
<path d="M68.8225 42.3744C69.6715 42.3744 70.3598 41.6495 70.3598 40.7552C70.3598 39.8609 69.6715 39.136 68.8225 39.136C67.9734 39.136 67.2851 39.8609 67.2851 40.7552C67.2851 41.6495 67.9734 42.3744 68.8225 42.3744Z" fill="#E5E5E5"/>
<path d="M122.697 95.2846H72.8731V97.7657H122.697V95.2846Z" fill="#E5E5E5"/>
<path d="M122.697 101.736H72.8731V104.217H122.697V101.736Z" fill="#E5E5E5"/>
<path d="M122.697 108.186H72.8731V110.668H122.697V108.186Z" fill="#E5E5E5"/>
<path d="M68.8225 98.238C69.6715 98.238 70.3598 97.5131 70.3598 96.6188C70.3598 95.7245 69.6715 94.9995 68.8225 94.9995C67.9734 94.9995 67.2851 95.7245 67.2851 96.6188C67.2851 97.5131 67.9734 98.238 68.8225 98.238Z" fill="#E5E5E5"/>
<path d="M134.495 139.136C144.332 139.136 152.307 130.736 152.307 120.375C152.307 110.014 144.332 101.615 134.495 101.615C124.658 101.615 116.683 110.014 116.683 120.375C116.683 130.736 124.658 139.136 134.495 139.136Z" fill="#00906C"/>
<path d="M139.43 119.179V115.589C139.43 114.906 139.303 114.23 139.055 113.599C138.807 112.968 138.444 112.394 137.986 111.911C137.527 111.428 136.983 111.045 136.384 110.784C135.785 110.522 135.143 110.388 134.495 110.388C133.846 110.388 133.204 110.522 132.606 110.784C132.007 111.045 131.462 111.428 131.004 111.911C130.546 112.394 130.182 112.968 129.935 113.599C129.687 114.23 129.56 114.906 129.56 115.589V119.179C128.9 119.21 128.278 119.508 127.821 120.01C127.365 120.513 127.11 121.182 127.109 121.877V130.36H141.88V121.877C141.88 121.182 141.625 120.513 141.169 120.01C140.712 119.508 140.089 119.21 139.43 119.179ZM134.495 112.221C135.343 112.222 136.155 112.578 136.755 113.209C137.354 113.84 137.691 114.696 137.692 115.589V119.172H131.298V115.589C131.299 114.696 131.636 113.84 132.235 113.209C132.835 112.578 133.647 112.222 134.495 112.221Z" fill="white"/>
<path d="M135.823 123.368C135.823 123.126 135.764 122.889 135.651 122.679C135.538 122.47 135.376 122.294 135.18 122.169C134.984 122.045 134.761 121.976 134.532 121.969C134.303 121.963 134.076 122.018 133.874 122.131C133.672 122.244 133.501 122.41 133.377 122.613C133.253 122.816 133.182 123.049 133.169 123.29C133.157 123.53 133.203 123.77 133.305 123.987C133.406 124.203 133.559 124.388 133.748 124.523V127.563H135.242V124.523C135.421 124.395 135.567 124.223 135.668 124.021C135.77 123.82 135.823 123.595 135.823 123.368Z" fill="#00906C"/>
<path d="M225.739 174.888H126.37C126.301 174.888 126.234 174.859 126.185 174.808C126.136 174.756 126.109 174.687 126.109 174.614C126.109 174.541 126.136 174.471 126.185 174.419C126.234 174.368 126.301 174.339 126.37 174.339H225.739C225.808 174.339 225.875 174.368 225.924 174.419C225.973 174.471 226 174.541 226 174.614C226 174.687 225.973 174.756 225.924 174.808C225.875 174.859 225.808 174.888 225.739 174.888Z" fill="#CBCBCB"/>
<ellipse cx="74" cy="177" rx="63" ry="3" fill="#D9D9D9"/>
</g>
<defs>
<clipPath id="clip0_129_171">
<rect width="226" height="175" fill="white"/>
</clipPath>
</defs>
</svg>
