<svg width="278" height="119" viewBox="0 0 278 119" fill="none" xmlns="http://www.w3.org/2000/svg">
<rect x="27.2984" y="22.0004" width="219.273" height="50.001" fill="white"/>
<g filter="url(#filter0_d_6053_4)">
<path d="M270.94 3C270.94 27.2632 270.527 44.7967 269.702 55.6012C268.674 69.0614 256.92 81.55 244.114 86.6665C240.197 88.2314 205.045 95.1697 138.658 107.48L138.653 107.478L136.688 107.113C71.9909 95.0312 37.7029 88.2158 33.8264 86.6665C21.0197 81.55 9.26546 68.205 8.2379 54.7448C7.43081 44.1832 7.0187 27.464 7 4.58822V3H270.94Z" fill="black"/>
</g>
<path d="M270.94 3C270.94 27.2632 270.527 44.7967 269.702 55.6012C268.674 69.0614 256.92 81.55 244.114 86.6665C240.197 88.2314 205.045 95.1697 138.658 107.48L138.653 107.478L136.688 107.113C71.9909 95.0312 37.7029 88.2158 33.8264 86.6665C21.0197 81.55 9.26546 68.205 8.2379 54.7448C7.43081 44.1832 7.0187 27.464 7 4.58822V3H270.94Z" fill="white"/>
<defs>
<filter id="filter0_d_6053_4" x="0" y="0" width="277.94" height="118.48" filterUnits="userSpaceOnUse" color-interpolation-filters="sRGB">
<feFlood flood-opacity="0" result="BackgroundImageFix"/>
<feColorMatrix in="SourceAlpha" type="matrix" values="0 0 0 0 0 0 0 0 0 0 0 0 0 0 0 0 0 0 127 0" result="hardAlpha"/>
<feOffset dy="4"/>
<feGaussianBlur stdDeviation="3.5"/>
<feColorMatrix type="matrix" values="0 0 0 0 0.45098 0 0 0 0 0.45098 0 0 0 0 0.45098 0 0 0 0.231889 0"/>
<feBlend mode="normal" in2="BackgroundImageFix" result="effect1_dropShadow_6053_4"/>
<feBlend mode="normal" in="SourceGraphic" in2="effect1_dropShadow_6053_4" result="shape"/>
</filter>
</defs>
</svg>
